<?xml version="1.0" encoding="utf-8"?>
<!-- Generator: Adobe Illustrator 24.3.0, SVG Export Plug-In . SVG Version: 6.00 Build 0)  -->
<svg version="1.1" xmlns="http://www.w3.org/2000/svg" xmlns:xlink="http://www.w3.org/1999/xlink" x="0px" y="0px" width="563.4px"
	 height="399.7px" viewBox="0 0 563.4 399.7" style="enable-background:new 0 0 563.4 399.7;" xml:space="preserve">
<style type="text/css">
	.st0{fill:#0086DC;}
	.st1{fill:#B1E5FC;}
	.st2{fill:#70BEF2;}
	.st3{fill:#99B9FF;}
	.st4{fill:#FFFFFF;}
	.st5{fill:#002050;}
	.st6{fill:#005EB8;}
	.st7{fill:#01AFBD;}
	.st8{fill:#ED8B00;}
	.st9{fill:#177FDD;}
	.st10{fill:#5479F7;}
	.st11{fill:#FFB6B6;}
	.st12{fill:#F7941D;}
	.st13{fill:none;stroke:#002050;stroke-width:0.75;stroke-miterlimit:10;}
	.st14{fill:none;stroke:#002050;stroke-width:0.5;stroke-miterlimit:10;}
	.st15{fill:#CADDFF;}
	.st16{fill:none;stroke:#002050;stroke-width:1;stroke-miterlimit:10.0008;}
	.st17{fill:none;stroke:#002050;stroke-miterlimit:10;}
	.st18{fill:#F9A94A;}
	.st19{fill:none;stroke:#FFFFFF;stroke-miterlimit:10;}
	.st20{fill:none;stroke:#FFFFFF;stroke-width:2;stroke-miterlimit:10;}
</style>
<g id="Layer_4">
	<path class="st0" d="M476.2,204.7c0,42.1-15.3,78.6-42.4,108c-32.5,35.3-95.4,58.5-148.7,58.5c-97.9,0-194.9-75.9-194.9-168.4
		s97-166.6,194.9-166.6S476.2,112.2,476.2,204.7z"/>
</g>
<g id="Слой_1">
	<ellipse class="st1" cx="170.8" cy="114.1" rx="80" ry="80.6"/>
	<path class="st2" d="M155.5,40.7c-0.3,0.5,0.7,2.1,2.6,2.1c2,0,2.9-0.3,3.7,1.8c0.9,2.1-0.3,9.3,0.9,11.9
		c1.1,2.6,4.6,13.9,6.1,12.4c1.4-1.5,5.1-12.8,6.9-13.8s2.9-7.1,3.2-10.4c0.3-3.2-2-5.7-7.6-6.3C165.5,37.7,157.9,37.1,155.5,40.7z"
		/>
	<path class="st2" d="M129.5,113c-0.9,0.4-1.3,1.2-1.3,2.1c0.1,2.7-1,9.6-3.4,11.7c-3.1,2.7-2,7.8-2,9.7c-0.1,4.1,0.4,6,5.2,7.9
		c4.9,2,6.8,2.1,7.2,6s0.9,19,2.4,23c1.4,3.9,4.5,10.3,6.1,11.7c1.6,1.5,5.4,2.3,3.1-3.2c-2.4-5.6-3.8-8.1-1-11.3
		c2.7-3.1,7.3-10.3,7.6-13.1c0.4-2.7,2-4.4,3.4-4.7s4.5-1.3,5.4-2.3c0.9-0.9-0.9-3.8-1.4-6.2c-0.5-2.5-0.6-3.9,4-5.9
		c4.5-2,2.4-7.5-3.8-9c-6.1-1.5-9.9-4.5-9.3-7.7c0.8-3.1-4.2-2.7-7.1-4.3c-2.9-1.5-2.8-3.8-6.1-4.8
		C134.2,111.3,131.1,112.2,129.5,113z"/>
	<path class="st2" d="M229.1,109.6c-1.3-2.1-1.2-5.3,2.2-9.7c2.6-3.5-1.1-7-2.9-8.3c-0.3-0.3-0.2-0.8,0.2-0.9
		c2.2-0.3,7.3,0.5,9.6,11.9c2.9,14.8,4.1,9.6,5.7,7.9c1.5-1.7-1.3-4.9,1.5-8.2c1.8-2.1,2.7-5.1,3.2-7.7
		c-5.8-23.5-21.8-42.9-42.9-53.1c0,2.6-0.6,11.5-11,7.9c0,0-6.5-3.1-4.9,9.5s6.8-0.9,7.9-1.4c1-0.5,3.8-1.2,2.6,7.2
		c0,0-0.2,2.9-5.5,2.4s-6.3,2.1-6.3,3.4c0,1.4,0.5,5-2.4,7.6s-2.1,9.3,1.9,7c3.9-2.3,6.6-9.3,10.2-9.9c3.6-0.7,6.8,4,10.2,2.7
		c3.4-1.2,1.9-7,3.6-7s5.3,3.4,4.7,6.1c-0.5,2.6-5.8,3.8-4.4,6.9c1.3,3.1,4.3,2.1,5.1,4.2s-4.3,4.4-8.3,1.9
		c-4.1-2.6-4.7,1.2-6.8-0.5s-2.2-5.3-5.1-4.2c-2.9,1.2-4.6,3.6-8.3,5.3c-3.8,1.7-6.8,4-6.8,6.3c0,2.4,1.3,5,0.7,8.8
		c-0.7,3.8-1.9,14.1,10.4,12c12.3-2.1,10.8,4.3,10.8,5s-0.2,9.6,1,11.2c1.2,1.5,3.9,6.1,0,11.8c-3.9,5.9-2.4,18.9,1.2,17.2
		s7.2-8.4,11.6-11.8c4.4-3.4,10.6-18.4,8-23c-2.6-4.6,3.6-8.4,4.4-11.5C230.8,113.2,230.5,111.7,229.1,109.6z"/>
	<path class="st2" d="M113.6,57.6c0.1,2.8-0.2,6.7-2,9.6c-5.6,8.8-5.4,13.2-5.9,22s11.6,24.3,14.7,25.9c3,1.6,3.5-2.3,3.5-5.4
		s-1.3-6.8-3.1-10.4s-1.8-5.9-1.2-7.4s2.6-2,4.1-0.5c1.4,1.5,4.8,2.7,6.5,1.9c2-1.1,1.2-5.6,2-7c0.8-1.5,4.6-2.5,6.2-5.6
		c1.6-3.1,4.3-4.4,7.5-5.9s6.1-2.1,6.6-3.1c0.6-0.9-0.2-3.2,0.8-5.9c0.9-2.6,3-5.7,2.2-7c-0.9-1.3-3.6-3.4-8.6-0.2s-6.2,3.2-7.7,0.9
		c-1.4-2.5,1.6-8.8,7.9-8.8c6.2,0,7.5-2,7.7-3.4c0.2-1.5-1.8-3.1-4-3.4c-2.2-0.3-2.5,0.9-11.4,4.1c-6,2.2-11.5,0.9-14.4,0.4
		C120.9,51.3,117.1,54.3,113.6,57.6z"/>
	<path class="st3" d="M264.1,128.5c-1.2-0.3-0.9,2.7-2.6,3.2c-1.6,0.6-2.3,1.3-1.9,4.4c0.4,2.9-0.3,6.9-1.9,8.4s-3.9,2.6-4.1,6.2
		c-0.1,3.7-3.5,7.2-5.5,8.4s-5.1,3.1-5.1,6.2c0,2-0.1,4.5,0.4,6.5c10.7-10.4,18.4-23.7,22-38.8C265.3,131.1,264.8,128.7,264.1,128.5
		z"/>
	<path class="st2" d="M123.4,179.5c-0.1,0-0.3,0-0.4-0.1c-9.9-7.4-18.3-17.1-23.9-28.2c-6-11.5-9-24.1-9-37.2
		c0-44.7,36.1-81.2,80.6-81.2c16.8,0,33,5.2,46.7,15c0.3,0.2,0.4,0.6,0.1,0.9c-0.2,0.3-0.6,0.4-0.9,0.1c-13.5-9.6-29.4-14.8-46-14.8
		c-43.8,0-79.4,35.9-79.4,79.9c0,25.4,12.1,49.4,32.4,64.4c0.3,0.2,0.3,0.6,0.1,0.9C123.8,179.4,123.6,179.5,123.4,179.5z"/>
	<g>
		<g>
			<path class="st0" d="M155.6,127.1c0,5.1-8.1,17.4-10.1,20.3c-0.2,0.3-0.7,0.3-0.9,0c-1.4-2.1-6-9-8.5-14.6
				c-0.9-2.3-1.6-4.3-1.6-5.7c0-5.9,4.7-10.5,10.5-10.5C150.9,116.6,155.6,121.4,155.6,127.1z"/>
			<ellipse class="st4" cx="145" cy="127.1" rx="4.8" ry="4.8"/>
			<path class="st0" d="M119.7,74.1c0,5.5-8.8,18.7-10.9,21.9c-0.2,0.3-0.7,0.3-0.9,0c-1.5-2.2-6.4-9.6-9.1-15.7
				c-1-2.4-1.8-4.6-1.8-6.1c0-6.2,5.1-11.4,11.4-11.4C114.6,62.8,119.7,67.9,119.7,74.1z"/>
			<ellipse class="st4" cx="108.5" cy="74.2" rx="5.2" ry="5.2"/>
			<path class="st0" d="M176.6,43.2c0,4.8-7.8,16.5-9.6,19.2c-0.2,0.3-0.6,0.3-0.8,0c-1.3-2-5.7-8.5-8-13.8
				c-0.9-2.1-1.5-4.1-1.5-5.4c0-5.5,4.4-9.9,9.9-9.9C172.1,33.3,176.6,37.7,176.6,43.2z"/>
			<circle class="st4" cx="166.6" cy="43.2" r="4.5"/>
		</g>
		<g>
			<path class="st5" d="M146,132c-1.1,0-2.4-0.4-3.3-1.1c-1.1-0.9-1.9-2.2-2.1-3.6c0-0.4,0.2-0.7,0.6-0.7c0.3,0,0.7,0.2,0.7,0.6
				c0.1,1.1,0.7,2.1,1.6,2.8c1.8,1.4,4.4,1.1,5.9-0.8c0.7-0.9,0.9-2,0.9-3.1c-0.1-1.1-0.7-2.1-1.6-2.8c-0.7-0.6-1.5-0.9-2.5-0.9
				c-0.4,0-0.6-0.3-0.6-0.7c0-0.4,0.3-0.6,0.7-0.6c1.1,0,2.3,0.5,3.1,1.1c1.1,0.9,1.9,2.2,2.1,3.6c0.2,1.4-0.2,2.8-1.1,4
				C149.2,131.3,147.6,132,146,132z"/>
			<path class="st5" d="M109.4,79.4c-1.3,0-2.6-0.4-3.5-1.2c-1.2-0.9-2-2.4-2.2-3.9c0-0.4,0.2-0.7,0.6-0.7c0.4,0,0.7,0.2,0.7,0.6
				c0.2,1.2,0.8,2.3,1.7,3c0.9,0.8,2.2,1,3.4,0.9c1.2-0.2,2.3-0.8,3-1.7c0.8-0.9,1-2.2,0.9-3.4c-0.2-1.2-0.8-2.3-1.7-3
				c-0.8-0.6-1.7-0.9-2.6-0.9c-0.4,0-0.6-0.3-0.6-0.7s0.3-0.6,0.7-0.6c1.2,0,2.4,0.5,3.3,1.2c1.2,0.9,2,2.4,2.2,3.9s-0.2,3-1.1,4.3
				s-2.4,2-3.9,2.2C109.9,79.4,109.6,79.4,109.4,79.4z"/>
			<path class="st5" d="M167.5,47.9c-1.1,0-2.3-0.4-3.1-1c-1.1-0.9-1.8-2.1-2-3.4c0-0.4,0.2-0.7,0.6-0.7c0.4,0,0.7,0.2,0.7,0.6
				c0.1,1,0.7,2,1.5,2.6c0.9,0.7,1.9,0.9,2.9,0.8c1-0.1,2-0.7,2.6-1.5c1.3-1.7,1-4.2-0.7-5.6c-0.7-0.5-1.4-0.8-2.3-0.9
				c-0.4,0-0.6-0.3-0.6-0.7s0.3-0.6,0.7-0.6c1.1,0,2.1,0.4,3,1c2.3,1.7,2.6,5,0.9,7.3c-0.9,1.1-2.1,1.8-3.4,2
				C168,47.9,167.7,47.9,167.5,47.9z"/>
		</g>
	</g>
	<g>
		<g>
			<path class="st5" d="M77.6,149.4c-0.1,0-0.3,0-0.4-0.2c-0.3-0.2-0.3-0.6-0.1-0.9l2-2.4c0.2-0.3,0.6-0.3,0.9-0.1s0.3,0.6,0.1,0.9
				l-2,2.4C78,149.4,77.8,149.4,77.6,149.4z"/>
			<path class="st5" d="M72.9,155.2c-0.1,0-0.3,0-0.4-0.2c-0.3-0.2-0.3-0.6-0.1-0.9l2-2.4c0.2-0.3,0.6-0.3,0.9-0.1s0.3,0.6,0.1,0.9
				l-2,2.4C73.2,155.1,73,155.2,72.9,155.2z"/>
			<path class="st5" d="M74.6,149.7c-0.1,0-0.3,0-0.4-0.2l-2.4-2c-0.3-0.2-0.3-0.6-0.1-0.9c0.2-0.3,0.6-0.3,0.9-0.1l2.4,2
				c0.3,0.2,0.3,0.6,0.1,0.9C75,149.6,74.8,149.7,74.6,149.7z"/>
			<path class="st5" d="M80.4,154.6c-0.1,0-0.3,0-0.4-0.2l-2.4-2c-0.3-0.2-0.3-0.6-0.1-0.9s0.6-0.3,0.9-0.1l2.4,2
				c0.3,0.2,0.3,0.6,0.1,0.9C80.8,154.5,80.6,154.6,80.4,154.6z"/>
		</g>
		<g>
			<path class="st5" d="M274,44.4c-0.2,0-0.3-0.1-0.5-0.2l-1.8-1.8c-0.3-0.3-0.3-0.7,0-0.9c0.3-0.3,0.7-0.3,0.9,0l1.8,1.8
				c0.3,0.3,0.3,0.7,0,0.9C274.3,44.3,274.1,44.4,274,44.4z"/>
			<path class="st5" d="M280.3,50.7c-0.2,0-0.3-0.1-0.5-0.2l-1.8-1.8c-0.3-0.3-0.3-0.7,0-0.9c0.3-0.3,0.7-0.3,0.9,0l1.8,1.8
				c0.3,0.3,0.3,0.7,0,0.9C280.6,50.6,280.5,50.7,280.3,50.7z"/>
			<path class="st5" d="M272.2,50.7c-0.2,0-0.3-0.1-0.5-0.2c-0.3-0.3-0.3-0.7,0-0.9l1.8-1.8c0.3-0.3,0.7-0.3,0.9,0
				c0.3,0.3,0.3,0.7,0,0.9l-1.8,1.8C272.5,50.6,272.4,50.7,272.2,50.7z"/>
			<path class="st5" d="M278.5,44.4c-0.2,0-0.3-0.1-0.5-0.2c-0.3-0.3-0.3-0.7,0-0.9l1.8-1.8c0.3-0.3,0.7-0.3,0.9,0
				c0.3,0.3,0.3,0.7,0,0.9l-1.8,1.8C278.9,44.3,278.7,44.4,278.5,44.4z"/>
		</g>
		<g>
			<path class="st5" d="M452.9,193.1c-0.2,0-0.3-0.1-0.5-0.2l-1.8-1.8c-0.3-0.3-0.3-0.7,0-0.9c0.3-0.3,0.7-0.3,0.9,0l1.8,1.8
				c0.3,0.3,0.3,0.7,0,0.9C453.2,193,453,193.1,452.9,193.1z"/>
			<path class="st5" d="M459.2,199.4c-0.2,0-0.3-0.1-0.5-0.2l-1.8-1.8c-0.3-0.3-0.3-0.7,0-0.9c0.3-0.3,0.7-0.3,0.9,0l1.8,1.8
				c0.3,0.3,0.3,0.7,0,0.9C459.5,199.4,459.4,199.4,459.2,199.4z"/>
			<path class="st5" d="M451.1,199.4c-0.2,0-0.3-0.1-0.5-0.2c-0.3-0.3-0.3-0.7,0-0.9l1.8-1.8c0.3-0.3,0.7-0.3,0.9,0
				c0.3,0.3,0.3,0.7,0,0.9l-1.8,1.8C451.4,199.4,451.3,199.4,451.1,199.4z"/>
			<path class="st5" d="M457.4,193.1c-0.2,0-0.3-0.1-0.5-0.2c-0.3-0.3-0.3-0.7,0-0.9l1.8-1.8c0.3-0.3,0.7-0.3,0.9,0
				c0.3,0.3,0.3,0.7,0,0.9l-1.8,1.8C457.8,193,457.6,193.1,457.4,193.1z"/>
		</g>
		<g>
			<path class="st5" d="M332.9,347.3c-0.3-0.1-0.5-0.1-0.8-0.3c-0.8-0.4-1.5-1.1-1.8-2c-0.7-1.9,0.2-3.8,2.1-4.6
				c0.9-0.3,1.8-0.3,2.6,0c0.8,0.4,1.5,1.1,1.8,2c0.7,1.9-0.2,3.8-2.1,4.6C334.1,347.5,333.5,347.4,332.9,347.3z M333.9,341.7
				c-0.4-0.1-0.8-0.1-1.3,0.1l0,0c-1.2,0.5-1.8,1.7-1.3,2.9c0.2,0.6,0.7,1.1,1.3,1.3s1.2,0.2,1.7,0.1c1.2-0.5,1.8-1.7,1.3-2.9
				c-0.2-0.6-0.7-1.1-1.3-1.3C334.2,341.7,334.1,341.7,333.9,341.7z M334,344.3L334,344.3L334,344.3z"/>
			<path class="st5" d="M341.6,342c-0.2,0-0.5-0.2-0.5-0.5c-0.1-0.3,0.1-0.7,0.5-0.8c20.8-5.5,40-14.9,57.3-27.8
				c0.3-0.3,0.6-0.2,0.9,0.1c0.3,0.3,0.2,0.6-0.1,0.9c-17.4,13-36.8,22.5-57.7,28C341.8,342,341.7,342,341.6,342z"/>
			<path class="st5" d="M373.4,341c-0.2,0-0.4-0.2-0.4-0.4c-0.1-0.3-0.1-0.7,0.3-0.9c9.3-4.2,18.1-9.3,26.4-15.1
				c0.3-0.3,0.6-0.2,0.9,0.2c0.3,0.3,0.2,0.6-0.2,0.9c-8.4,5.9-17.3,11-26.6,15.3C373.6,341.1,373.5,341,373.4,341z"/>
		</g>
	</g>
	<path class="st6" d="M428.1,251.7l-189.3-26.3c-4.7-0.6-8.3-4.6-8.3-9.5l-2.6-132.1c0,0,4.4-3.1,6.7-4.3c1.2-0.6,2.6-0.9,5.1-0.7
		l188.7,24c3.8,0.6,7.4,4.6,7.4,9.5V242c0,2.4-1,4.4-2.7,5.7C431.7,249.1,428.1,251.7,428.1,251.7z"/>
	<path class="st4" d="M422.3,253.4l-188.7-24c-4.7-0.6-8.3-4.6-8.3-9.5V90.2c0-4.4,3.9-7.9,9.3-7.4l188.7,24
		c3.8,0.6,7.4,4.6,7.4,9.5V246C430.7,250.6,426.8,254,422.3,253.4z"/>
	<path class="st2" d="M418.4,248.1l-180.2-23c-3.5-0.5-6.1-3.4-6.1-6.9v-125c0-2.9,2.6-5.3,6.5-4.9l180.2,23
		c2.6,0.5,5.1,3.4,5.1,6.9v125.1C423.9,246.2,421.3,248.5,418.4,248.1z"/>
	<path class="st1" d="M410.5,242.2l-164.7-21c-3.1-0.4-5.5-3.1-5.5-6.2V100.5c0-2.7,2.4-4.8,5.1-4.4l164.7,21
		c3.1,0.4,5.5,3.1,5.5,6.2v114.4C415.6,240.4,413.3,242.4,410.5,242.2z"/>
	<path class="st5" d="M423.3,254.2c-0.4,0-0.7,0-1-0.1l-161.1-20.5c-0.4,0-0.6-0.4-0.6-0.7c0-0.4,0.4-0.6,0.7-0.6l161.1,20.5
		c1.9,0.3,3.9-0.4,5.4-1.6c1.4-1.3,2.3-3.1,2.3-5.1V144.2c0-0.4,0.3-0.6,0.6-0.6c0.4,0,0.6,0.3,0.6,0.6v101.9c0,2.3-0.9,4.4-2.7,6.1
		C427.2,253.4,425.3,254.2,423.3,254.2z"/>
	<path class="st5" d="M225.2,212.9c-0.4,0-0.6-0.3-0.6-0.6v-94.8c0-0.4,0.3-0.6,0.6-0.6s0.6,0.3,0.6,0.6v94.8
		C225.9,212.6,225.6,212.9,225.2,212.9z"/>
	<path class="st6" d="M312.2,329.8l-194.1-25.1c-1.5-0.2-2.4-1.5-2.4-2.7c0-0.9,0.1-7.1,0.1-7.1l102.6-58.6
		c5.1-2.9,11.8-4.1,17.7-3.3l191.7,24.7c1.1,0.2,2.2,0.9,2.6,2l0.3,0.8c0,0-0.2,5.1-0.1,6.3c0.1,0.9-0.4,1.9-1.3,2.5l-100.1,57.1
		C324,329.4,318.1,330.6,312.2,329.8z"/>
	<path class="st1" d="M142,301l-23.2-3c-2.6-0.3-3.2-3.7-1-5l99.5-56.9c5.1-2.9,11.1-4.2,16.9-3.4l193.5,25c2.6,0.3,3.2,3.7,1,5
		l-99.5,56.8c-5.1,2.9-11.1,4.2-16.9,3.4L142,301L142,301z"/>
	<path class="st2" d="M350.2,291.4l-167.7-21.9c-2.4-0.3-2.9-3.4-0.9-4.5l39.4-22.3c4.6-2.6,10-3.7,15.3-3L404,261.6
		c2.4,0.3,2.9,3.4,0.9,4.5l-39.4,22.3C360.8,291.1,355.5,292.1,350.2,291.4z"/>
	<path class="st2" d="M315.6,323.8c-1.1,0-2.4-0.1-3.5-0.2l-94.7-12.1c-0.4,0-0.6-0.4-0.6-0.7c0-0.4,0.4-0.6,0.7-0.6l94.7,12.1
		c5.7,0.8,11.6-0.5,16.6-3.3l99.5-56.9c0.9-0.6,1.1-1.5,1-2.2c-0.1-0.8-0.7-1.5-1.8-1.7l-193.5-25c-5.7-0.8-11.6,0.5-16.6,3.3
		l-13.9,7.9c-0.3,0.2-0.7,0.1-0.9-0.2s-0.1-0.7,0.2-0.9l13.9-7.9c5.2-3,11.4-4.2,17.3-3.4l193.5,25c1.4,0.2,2.6,1.2,2.8,2.6
		c0.3,1.4-0.4,2.8-1.6,3.5l-99.3,56.8C325.3,322.6,320.5,323.8,315.6,323.8z"/>
	<g>
		<g>
			<path class="st4" d="M362.7,170.3h136.7c8.6,0,15.4-6.9,15.4-15.4V60.8c0-8.6-6.9-15.4-15.4-15.4H362.7
				c-8.6,0-15.4,6.9-15.4,15.4v93.9C347.3,163.3,354.2,170.3,362.7,170.3z"/>
		</g>
		<g>
			<g>
				<path class="st1" d="M366.5,62.6h38.4c1.1,0,2.1-1,2.1-2.1l0,0c0-1.1-1-2.1-2.1-2.1h-38.4c-1.1,0-2.1,1-2.1,2.1l0,0
					C364.3,61.6,365.3,62.6,366.5,62.6z"/>
			</g>
			<g>
				<path class="st1" d="M360.3,71.5H411c1.1,0,2.1-1,2.1-2.1l0,0c0-1.1-1-2.1-2.1-2.1h-50.7c-1.1,0-2.1,1-2.1,2.1l0,0
					C358.2,70.5,359.2,71.5,360.3,71.5z"/>
			</g>
			<g>
				<path class="st1" d="M360.3,89.1h50.6c1.1,0,2.1-1,2.1-2.1l0,0c0-1.1-1-2.1-2.1-2.1h-50.6c-1.1,0-2.1,1-2.1,2.1l0,0
					C358.1,88.1,359,89.1,360.3,89.1z"/>
			</g>
			<g>
				<path class="st1" d="M360.4,97.8h49.8c1.1,0,2.1-1,2.1-2.1l0,0c0-1.1-1-2.1-2.1-2.1h-49.7c-1.1,0-2.1,1-2.1,2.1l0,0
					C358.2,97,359.2,97.8,360.4,97.8z"/>
			</g>
			<g>
				<path class="st1" d="M360.1,106.7h49.7c1.1,0,2.1-1,2.1-2.1l0,0c0-1.1-1-2.1-2.1-2.1h-49.7c-1.1,0-2.1,1-2.1,2.1l0,0
					C357.9,105.7,358.9,106.7,360.1,106.7z"/>
			</g>
			<g>
				<path class="st1" d="M360.3,115.5h50.6c1.1,0,2.1-1,2.1-2.1l0,0c0-1.1-1-2.1-2.1-2.1h-50.6c-1.1,0-2.1,1-2.1,2.1l0,0
					C358.1,114.6,359,115.5,360.3,115.5z"/>
			</g>
			<g>
				<path class="st1" d="M360.4,124.3H411c1.1,0,2.1-1,2.1-2.1l0,0c0-1.1-1-2.1-2.1-2.1h-50.6c-1.1,0-2.1,1-2.1,2.1l0,0
					C358.2,123.3,359.2,124.3,360.4,124.3z"/>
			</g>
			<g>
				<path class="st1" d="M390.5,80.2H411c1.1,0,2.1-1,2.1-2.1l0,0c0-1.1-1-2.1-2.1-2.1h-20.5c-1.1,0-2.1,1-2.1,2.1l0,0
					C388.3,79.4,389.2,80.2,390.5,80.2z"/>
			</g>
			<g>
				<path class="st1" d="M360.1,80.2h20c1.1,0,2.1-1,2.1-2.1l0,0c0-1.1-1-2.1-2.1-2.1h-20c-1.1,0-2.1,1-2.1,2.1l0,0
					C358.1,79.4,358.9,80.2,360.1,80.2z"/>
			</g>
		</g>
		<g>
			<g>
				<path class="st1" d="M424,124.4h76.6c1.1,0,2.1-1,2.1-2.1l0,0c0-1.1-1-2.1-2.1-2.1H424c-1.1,0-2.1,1-2.1,2.1l0,0
					C421.8,123.6,422.7,124.4,424,124.4z"/>
			</g>
			<g>
				<path class="st1" d="M472.2,115.5h28.4c1.1,0,2.1-1,2.1-2.1l0,0c0-1.1-1-2.1-2.1-2.1h-28.4c-1.1,0-2.1,1-2.1,2.1l0,0
					C470.1,114.6,471.1,115.5,472.2,115.5z"/>
			</g>
		</g>
		<path class="st7" d="M438.1,162.8H462c2.4,0,4.3-1.9,4.3-4.3v-21.9c0-2.4-1.9-4.3-4.3-4.3h-23.9c-2.4,0-4.3,1.9-4.3,4.3v21.9
			C433.8,160.8,435.8,162.8,438.1,162.8z"/>
		<path class="st8" d="M477.2,162.8h23.9c2.4,0,4.3-1.9,4.3-4.3v-21.9c0-2.4-1.9-4.3-4.3-4.3h-23.9c-2.4,0-4.3,1.9-4.3,4.3v21.9
			C472.9,160.8,474.8,162.8,477.2,162.8z"/>
		<path class="st9" d="M360.1,162.8H384c2.4,0,4.3-1.9,4.3-4.3v-21.9c0-2.4-1.9-4.3-4.3-4.3h-23.9c-2.4,0-4.3,1.9-4.3,4.3v21.9
			C355.8,160.8,357.7,162.8,360.1,162.8z"/>
		<path class="st6" d="M399.1,162.8H423c2.4,0,4.3-1.9,4.3-4.3v-21.9c0-2.4-1.9-4.3-4.3-4.3h-23.9c-2.4,0-4.3,1.9-4.3,4.3v21.9
			C394.8,160.8,396.7,162.8,399.1,162.8z"/>
		<path class="st0" d="M426.6,104h68.7c2.6,0,4.7-2.1,4.7-4.7V63c0-2.6-2.1-4.7-4.7-4.7h-68.7c-2.6,0-4.7,2.1-4.7,4.7v36.4
			C421.8,102,424,104,426.6,104z"/>
		<g>
			<path class="st10" d="M502.5,171.2H359.8c-7.3,0-13.3-6-13.3-13.3v-100c0-7.3,6-13.3,13.3-13.3h142.7c7.3,0,13.3,6,13.3,13.3
				v99.9C515.8,165.1,509.8,171.2,502.5,171.2z M359.8,46.3c-6.4,0-11.5,5.1-11.5,11.5v99.9c0,6.4,5.1,11.5,11.5,11.5h142.7
				c6.4,0,11.5-5.1,11.5-11.5V57.9c0-6.4-5.1-11.5-11.5-11.5H359.8V46.3z"/>
		</g>
	</g>
	<g>
		<path class="st4" d="M440.8,143.1h2.3v9h-2.3V143.1z"/>
		<path class="st4" d="M450.3,138.3l-6.1,4.5v9.6l6.1,4.5V138.3z"/>
		<path class="st4" d="M455.8,140.1l-0.7,0.8c3.7,3,4.3,8.5,1.2,12.2c-0.4,0.5-0.8,0.9-1.3,1.3l0.7,0.8c4.2-3.4,4.9-9.5,1.5-13.7
			C456.8,141,456.3,140.5,455.8,140.1L455.8,140.1z"/>
		<path class="st4" d="M454.1,142.2l-0.7,0.8c2.6,2.1,2.9,5.8,0.9,8.4c-0.3,0.3-0.5,0.6-0.9,0.9l0.7,0.8c3-2.5,3.5-6.9,1-9.9
			C454.8,142.9,454.5,142.5,454.1,142.2L454.1,142.2z"/>
		<path class="st4" d="M452.4,144.3l-0.7,0.8c1.4,1.1,1.6,3.2,0.5,4.6c-0.1,0.2-0.3,0.3-0.5,0.5l0.7,0.8c1.9-1.5,2.1-4.2,0.6-6.1
			C452.8,144.7,452.6,144.5,452.4,144.3z"/>
	</g>
	<g id="_Group_2_2_">
		<path id="_Compound_Path_2_2_" class="st4" d="M403.4,138v19.1h9.8v-5.6h5.6V138H403.4z M411.8,151.7h-5.1v-2.1h5.1V151.7z
			 M415.5,147.7h-8.8v-2.1h8.8V147.7z M415.5,143.8h-8.8v-2.1h8.8V143.8z"/>
		<path id="_Path_4_2_" class="st4" d="M414.9,156.7l3.4-3.4h-3.4V156.7z"/>
	</g>
	<g>
		<g>
			<path class="st4" d="M369.1,153.5c-0.2,0-0.5,0.1-0.7,0.1c-2.2,0-3.9-1.7-3.9-3.9c0-0.2,0-0.3,0-0.5l-4.4-1.5
				c-0.1,0.6-0.2,1.3-0.2,1.9c0,4.7,3.8,8.5,8.5,8.5c0.8,0,1.6-0.1,2.4-0.3L369.1,153.5z"/>
			<path class="st4" d="M365,147.8c0.6-1,1.5-1.7,2.6-1.9v-4.7c-3.2,0.3-5.8,2.3-7.1,5.1L365,147.8z"/>
			<path class="st4" d="M369.1,141.2v4.7c1.8,0.4,3.1,1.9,3.1,3.8c0,1.4-0.7,2.6-1.8,3.3l1.7,4.3c2.8-1.4,4.7-4.3,4.7-7.6
				C376.9,145.2,373.5,141.6,369.1,141.2z"/>
		</g>
		<rect x="377.7" y="142.6" class="st4" width="6.5" height="1.7"/>
		<rect x="377.7" y="139.7" class="st4" width="6.5" height="1.7"/>
		<rect x="377.7" y="136.9" class="st4" width="3.9" height="1.7"/>
	</g>
	<path class="st11" d="M323.2,134.5c1.1-0.1,6.6,11.1,23.6,10.6c17.1-0.5,30.8-19.6,30.8-19.6s5.9-9.9,10.4-13.5
		c4.4-3.6,5.2-4.1,5.2-4.1s1.4,1.9,0,4.1s-5.3,6.3-5.3,6.3s4.3,2.4,2.4,7.3c-2.2,5.6-8.5,5.2-8.5,5.2s-12.6,56.2-65,29.5
		L323.2,134.5z"/>
	<path class="st5" d="M342.8,168c-7.9,0-16.7-2.5-26.3-7.3c-0.3-0.1-0.4-0.4-0.3-0.7l6.4-25.6c0.1-0.3,0.3-0.5,0.6-0.5
		c0.6,0,0.9,0.4,1.8,1.4c2.6,2.8,8.6,9.6,21.9,9.3c16.4-0.5,29.8-18.6,30.4-19.3c0.4-0.7,6.1-10.1,10.5-13.7s5.2-4.1,5.2-4.1
		c0.3-0.2,0.7-0.1,0.9,0.1c0.1,0.1,1.6,2.3,0,4.7c-1.1,1.8-3.8,4.7-4.9,5.9c1.2,0.9,3.6,3.5,2,7.6c-2,5-6.9,5.5-8.5,5.6
		c-0.9,3.5-7.2,25.3-24.7,33.5C353,166.9,348.1,168,342.8,168z M317.4,159.9c15.3,7.7,28.7,9,39.6,3.8c18.4-8.7,24.1-32.8,24.2-33.1
		c0.1-0.3,0.3-0.5,0.7-0.5c0.2,0,5.9,0.4,7.9-4.8c1.7-4.4-1.9-6.4-2.1-6.5s-0.3-0.3-0.3-0.5s0-0.4,0.2-0.5c0,0,3.9-4.1,5.2-6.2
		c0.8-1.1,0.6-2.3,0.3-2.8c-0.7,0.5-2,1.5-4.6,3.7c-4.4,3.5-10.2,13.3-10.2,13.4l0,0c-0.6,0.8-14.1,19.4-31.3,19.9c-0.4,0-0.8,0-1,0
		c-13.1,0-19.1-6.7-21.8-9.6c-0.2-0.2-0.4-0.4-0.5-0.6L317.4,159.9z M323,135.1L323,135.1L323,135.1z"/>
	<path class="st12" d="M238.3,160.2c0,0,5.1-33.1,23.3-41.3c18.2-8.1,42.7-7,49.5-2.9s24.4,22.5,24.4,22.5l-15.6,21.8
		c0,0,4.8,54.8,2.1,70.2c0,0-24.3-3-32.1-4.2c-6.6-1-21.1-1.6-36.9-4.5l2-64.1L238.3,160.2z"/>
	<path d="M294.8,105.6C294.7,105.6,294.7,105.6,294.8,105.6c-4.7-0.8-6.8-4.3-6.9-4.4c-0.2-0.3-0.1-0.7,0.2-0.9
		c0.3-0.2,0.7-0.1,0.9,0.2l0,0c0,0,1.9,3.2,5.9,3.8c0.4,0.1,0.6,0.4,0.5,0.7C295.4,105.4,295.1,105.6,294.8,105.6z"/>
	<path class="st6" d="M249.9,62.3l7.6,14.6c3,6-4.4,15.9-16.6,22c-12.3,6.2-24.7,6.4-27.8,0.5l-7.6-14.6L249.9,62.3z"/>
	<path class="st5" d="M223,104.4c-5.3,0-9-1.7-10.6-4.7l-7.6-14.6c-0.1-0.2-0.1-0.3,0-0.5s0.2-0.3,0.3-0.4l44.5-22.5
		c0.3-0.2,0.7,0,0.9,0.3l7.6,14.6c0.9,1.8,1,4,0.2,6.3c-1.9,5.8-8.4,12.1-17.1,16.6c-6.1,3-12.3,4.7-17.6,4.8
		C223.3,104.4,223.2,104.4,223,104.4z M206.3,85.1l7.3,14c2.9,5.7,15,5.4,27-0.7c8.3-4.2,14.8-10.4,16.6-15.9
		c0.7-2.1,0.7-3.9-0.2-5.4l-7.3-14L206.3,85.1z"/>
	<path class="st2" d="M201.9,81.1l17.9-21.2c0.4-0.4,0.9-0.6,1.3-0.7l27.7-1.9l9.1-4.6l2.3,4.3c0.1,0.3,0.1,0.7-0.1,0.9L234.5,85
		c-0.4,0.4-0.9,0.6-1.3,0.7L196,90.4c-0.4,0-0.7-0.2-0.8-0.4l-2.3-4.4L201.9,81.1z"/>
	<path class="st5" d="M195.8,91.1c-0.6,0-1-0.3-1.2-0.8l-2.3-4.4c-0.1-0.2-0.1-0.3,0-0.5s0.2-0.3,0.3-0.4l9-4.5l17.8-21.1
		c0.5-0.5,1-0.8,1.7-0.9l27.6-1.9l9-4.5c0.3-0.2,0.7,0,0.9,0.3l2.3,4.4c0.3,0.6,0.2,1.1-0.2,1.6l-25.6,27.1c-0.5,0.5-1,0.8-1.7,0.9
		l-37.2,4.7C195.9,91.1,195.9,91.1,195.8,91.1z M193.7,85.9l2,3.9c0,0.1,0.1,0.1,0.2,0.1l37.2-4.7c0.4,0,0.7-0.2,0.9-0.5l25.6-27.1
		c0.1-0.1,0.1-0.2,0-0.2l-2-3.9l-8.5,4.4c-0.1,0-0.2,0.1-0.2,0.1l-27.7,1.8c-0.4,0-0.7,0.2-0.9,0.5l-17.8,21.2
		c-0.1,0.1-0.1,0.1-0.2,0.2L193.7,85.9z M201.9,81.1L201.9,81.1L201.9,81.1z"/>
	<path class="st6" d="M192.9,84.7l25.6-27.1c0.4-0.4,0.9-0.6,1.3-0.7l37.2-4.7c0.8-0.1,1.1,0.8,0.7,1.3l-25.6,27.1
		c-0.4,0.4-0.9,0.6-1.3,0.7L193.6,86C192.9,86.2,192.5,85.3,192.9,84.7z"/>
	<path class="st5" d="M193.5,86.7c-0.6,0-1-0.3-1.2-0.8c-0.3-0.6-0.2-1.1,0.2-1.6l25.6-27.1c0.5-0.5,1-0.8,1.7-0.9l37.2-4.7
		c0.6-0.1,1.1,0.2,1.4,0.8s0.2,1.1-0.2,1.6l-25.6,27.1c-0.5,0.5-1,0.8-1.7,0.9l-37.2,4.7C193.7,86.7,193.6,86.7,193.5,86.7z
		 M193.4,85.2c-0.1,0.1-0.1,0.2,0,0.2c0,0.1,0.1,0.1,0.2,0.1l37.2-4.7c0.4,0,0.7-0.2,0.9-0.5l25.6-27.1c0.1-0.1,0.1-0.2,0-0.2
		c0-0.1-0.1-0.1-0.2-0.1l-37.2,4.7c-0.4,0-0.7,0.2-0.9,0.5L193.4,85.2L193.4,85.2z M192.9,84.7L192.9,84.7L192.9,84.7z"/>
	<path class="st12" d="M211.9,97.6L211.9,97.6c0.7-0.1,1.3,0.4,1.5,1l3.9,19.3l-5.3,0.7l-1.2-19.7C210.7,98.3,211.2,97.7,211.9,97.6
		z"/>
	<path class="st5" d="M212,119.3c-0.1,0-0.3-0.1-0.4-0.1c-0.1-0.1-0.2-0.3-0.2-0.5L210.2,99c-0.1-1,0.7-1.9,1.7-2.1l0,0
		c1-0.1,2,0.6,2.2,1.5l3.9,19.3c0,0.2,0,0.4-0.1,0.5s-0.3,0.2-0.4,0.3L212,119.3L212,119.3z M212,98.2c-0.4,0.1-0.7,0.4-0.7,0.8
		l1.2,19l4-0.6l-3.8-18.7C212.7,98.4,212.4,98.1,212,98.2L212,98.2z M211.9,97.6L211.9,97.6L211.9,97.6z"/>
	<path class="st5" d="M212.1,98c-0.3,0-0.6-0.2-0.6-0.6l-1.6-13.3c0-0.2,0-0.4,0.2-0.5l14.5-15.7c0.2-0.3,0.6-0.3,0.9,0
		c0.3,0.2,0.3,0.6,0,0.9l-14.3,15.4l1.6,13.1C212.8,97.6,212.5,97.9,212.1,98C212.2,98,212.1,98,212.1,98z"/>
	<g>
		<path class="st11" d="M297.1,112.4l0.4-8.6c0.7,0-0.8,0-0.7,0c3.9,0,7.6-3.1,7.9-6.1c0.1-0.9,0.7-2,0.6-3.2
			c-0.1-1.5-0.5-1.5-0.9-3.4c-0.1-0.4,2.8-4.4,3.1-4.9l-2.6-1.2c-1.2-0.9-3.3-0.8-4.3-2.1c-0.8-1.2-2-4.4-2.9-4.8
			c-2.6-1.1-13.1-6.2-18.9,2.6c-4.6,6.9,2.9,16.4,5.6,19.6c0.7,0.8-3.6,12.7-3.6,12.7l-4.9,1.1c0,0-1.3,6.5,14.2,3.1
			c11.1-2.5,12.3-3.9,12.3-3.9L297.1,112.4z"/>
		<path class="st5" d="M282,69.5c2.8-0.6,6.1-0.2,7.5-0.7c2.2-0.8,2.3-3.2,5.4-3.9c3.7-0.9,5.3,0.7,6.7,2.6c0.2,0.3,0.4,0.8,0.7,1.1
			c2.3,5.8-1.8,7.5-3,8.4c0,0-8.3,4.1-9.7,5.2c-1.3,1-1.9,4.6-0.9,8.3c0.1,0.4-0.1,0.9-0.6,1.1l0,0c-0.6,0.3-1.1,0.1-1.5-0.3
			c-1-1.5-3.5-4.4-5.1-3.6c-2.1,0.9-1.5,6.7,3.2,7.4c1.5,0.2,2.6,1.6,2.6,2.9c-0.1,0.9-1,2-2.5,2.3c-0.9,0.2-1.7-0.1-2.5-0.6
			c-3-1.8-11.7-9.5-12.9-16.3C268.1,75.5,278.2,70.2,282,69.5z"/>
		<g>
			<path class="st5" d="M296.9,87.4c0.4-0.1,0.5-0.5,0.4-0.8l-0.6-1.7c-0.1-0.3-0.5-0.5-0.8-0.4c-0.4,0.1-0.5,0.5-0.4,0.8l0.6,1.7
				C296.1,87.3,296.5,87.5,296.9,87.4z"/>
			<g>
				<g>
					<path class="st5" d="M297.6,103.9c-0.2,0-0.3-0.1-0.3-0.2c-0.1-0.2,1-0.6,1.2-0.7c3.4-1.3,5.6-3.3,6.4-5.7
						c1.1-3.3-0.7-6.4-0.7-6.5c1.8-2.4,3.1-4.5,2.9-4.9c-0.2-0.3-1.8-0.9-3.1-1.3c-2.2-0.6-3.5-0.8-4-1.9c-2.6-5.9-5.1-7.4-5.2-7.4
						c-0.2-0.1-0.2-0.3-0.1-0.5s0.3-0.2,0.5-0.1c0.1,0.1,2.4,1.7,5.4,7.7c0.2,0.4,2.3,1.1,3.7,1.6c1.9,0.7,3.1,1.1,3.4,1.5
						c0.7,0.9-1.4,3.5-2.8,5.1c0.4,0.8,1.7,3.7,0.7,6.8c-0.9,2.6-3.1,4.7-6.7,6.1C298.6,103.7,297.6,103.9,297.6,103.9z"/>
				</g>
			</g>
			<g>
				<path class="st5" d="M293.9,84.7c-0.4-0.1-0.5-0.3-0.4-0.5c0-0.1,0.9-1.4,2.3-2.4c0.2-0.1,0.4-0.1,0.5,0.1s0.1,0.4-0.1,0.5
					c-1.2,0.8-2.1,2.1-2.1,2.1C294,84.6,294,84.7,293.9,84.7z"/>
			</g>
			<g>
				<path class="st5" d="M305.1,96.3c-1.7,0.5-2.8-0.4-3.2-0.8c-0.7-0.7-1-1.5-0.9-2.1c0.1-0.4,0.3-0.7,0.6-0.8
					c0.6-0.3,1.3-0.1,2,0.2c0.7,0.2,1.3,0,1.3,0c0.2-0.1,0.4,0,0.4,0.2c0.1,0.2,0,0.4-0.2,0.4c0,0-0.9,0.3-1.8,0
					c-0.4-0.1-1.1-0.4-1.5-0.2c-0.1,0.1-0.2,0.2-0.3,0.4c-0.1,0.3,0.2,0.9,0.7,1.5c0.4,0.4,1.4,1.1,3,0.5c0.2-0.1,0.4,0,0.4,0.2
					c0.1,0.2,0,0.4-0.2,0.4C305.4,96.3,305.2,96.3,305.1,96.3z"/>
			</g>
			<line class="st13" x1="297.3" y1="103.8" x2="297.1" y2="112.4"/>
		</g>
		<polyline class="st14" points="282,90.4 284.8,91.2 282.9,92.9 		"/>
	</g>
	<g>
		<g>
			<path class="st2" d="M137.5,298.1l-55.8-0.6c-10.1,0-18.7-6.6-20.5-16.6l-9.7-54.3c-1.1-6.4,3.8-12.4,10.3-12.4h36.4L137.5,298.1
				z"/>
			<polygon class="st2" points="104.2,364.4 94.9,364.4 94.9,297.4 104.2,297.8 			"/>
			<path class="st2" d="M121.2,353.2H79.9c-6.4,0-11.6,5.2-11.6,11.6l0,0H133l0,0C133,358.4,127.8,353.2,121.2,353.2z"/>
			<path class="st4" d="M66.6,256.7c-0.3,0-0.6-0.2-0.6-0.5l-4.6-26.3c-0.1-0.3,0.2-0.7,0.5-0.7c0.3-0.1,0.7,0.2,0.7,0.5l4.6,26.3
				C67.3,256.3,67,256.7,66.6,256.7C66.7,256.7,66.7,256.7,66.6,256.7z"/>
		</g>
		<path class="st5" d="M119.2,170.1c3.7-0.3,8.9,4.3,10.1,7.9c1.8,5.4-0.7,6.3-3,10c-5.7,8.7-15.2,28.5-26.1,35
			c-8.7,5.1-26.9,4.2-35.2-6.4c-7.9-10.1-9.2-24.8-0.2-31.4c8.1-6,15.7,4.3,24.3-1.3c8.5-5.5,8.3-9.9,13.3-12.6
			C107.8,168.4,108.8,170.9,119.2,170.1z"/>
		<path class="st11" d="M171.6,331.7c-0.1,0.3,3.7,17.4,3.7,17.4l-8.6-1.4l-2.6-14.5L171.6,331.7z"/>
		<path class="st4" d="M170.6,343.6c0.6-0.5,1.3-0.9,2.3-0.9c1.4-0.1,2.7,0.9,3.3,2.2c1.5,3.3,5.4,12.6,6.5,20.1
			c0.4,2.6-1.6,4.8-4.7,3.1c-5.1-2.8-12.3-9.5-16-19.1c-0.5-1.1-0.3-2.4,0.5-3.3c0.6-0.8,1.3-1.7,2.3-2.6c0.9-0.8,2.2-0.8,3-0.1
			l0.9,0.7C169.2,344,170,344,170.6,343.6z"/>
		<path class="st5" d="M180.1,369.2c-0.7,0-1.5-0.2-2.5-0.7c-5.4-3-12.5-9.7-16.3-19.5c-0.5-1.3-0.3-2.7,0.5-3.9
			c0.8-1,1.5-1.9,2.4-2.6c1.1-0.9,2.7-1,3.9-0.1l0.9,0.7c0.4,0.3,0.9,0.3,1.3,0l0,0c0.8-0.7,1.7-1,2.6-1c1.6-0.1,3.2,0.9,4,2.6
			c1.6,3.6,5.5,12.7,6.6,20.2c0.3,1.6-0.3,3.1-1.4,3.9C181.6,368.9,180.9,369.2,180.1,369.2z M166.3,342.9c-0.4,0-0.9,0.2-1.1,0.5
			c-0.8,0.7-1.4,1.5-2.2,2.5c-0.6,0.8-0.8,1.8-0.4,2.7c3.6,9.5,10.5,15.9,15.7,18.8c1.1,0.7,2.2,0.8,2.9,0.2c0.8-0.5,1-1.5,0.9-2.6
			c-1.1-7.4-4.9-16.4-6.5-20c-0.5-1.1-1.6-1.9-2.7-1.8c-0.7,0-1.3,0.3-1.9,0.8c-0.9,0.7-2,0.7-2.8,0l-0.9-0.7
			C167,343.1,166.6,342.9,166.3,342.9z"/>
		<path class="st5" d="M180.8,366.2c-0.7,0-8-0.5-16.9-17.9c-0.2-0.3,0-0.7,0.3-0.9c0.3-0.2,0.7,0,0.9,0.3
			c8.6,17.1,15.7,17.2,15.8,17.2l0,0c0.3,0,0.6,0.3,0.6,0.6C181.4,365.9,181.2,366.2,180.8,366.2L180.8,366.2z"/>
		<path class="st5" d="M175.2,356.6c-0.3,0-0.5-0.2-0.6-0.4c-0.1-0.3,0-0.7,0.4-0.8l4.1-1.6c0.3-0.1,0.7,0,0.8,0.4
			c0.1,0.3,0,0.7-0.4,0.8l-4.1,1.6C175.4,356.6,175.3,356.6,175.2,356.6z"/>
		<path class="st5" d="M173.8,353.5c-0.3,0-0.5-0.2-0.6-0.4c-0.1-0.3,0-0.7,0.4-0.8l4.8-1.9c0.3-0.1,0.7,0,0.8,0.4
			c0.1,0.3,0,0.7-0.4,0.8l-4.8,1.9C174,353.5,173.9,353.5,173.8,353.5z"/>
		<path class="st11" d="M134.8,331.6c-0.1,0.1-0.6,2.2-0.9,5.5c-0.7,5.7,5.7,10.9,5.7,10.9l-14.9-2l0.6-13.1L134.8,331.6z"/>
		<path class="st4" d="M128.1,342.2c0.9-0.3,0.7-1.6,1.4-2.3c1-0.9,2.5-0.9,3.7-0.3c3.2,1.6,12,6.3,17.6,11.4c2,1.8,1.8,4.8-1.8,5.4
			c-5.8,1-15.4,0.5-24.4-4.7c-1-0.6-1.7-1.7-1.7-2.8c0-0.9,0-4.2,0.2-5.4c0.2-1.1,1.2-2,2.4-2h1
			C127.4,341.6,127.4,342.5,128.1,342.2z"/>
		<path class="st5" d="M143.8,357.6c-5.7,0-12.8-1.3-19.4-5.2c-1.2-0.7-2-2-2.1-3.4c0-1,0-4.3,0.2-5.6c0.3-1.4,1.5-2.5,2.9-2.5h1
			c0.7,0,0.9,0.4,1.2,0.6c0.1,0.1,0.1,0.1,0.2,0.2l0,0c0.2-0.1,0.3-0.3,0.4-0.8c0.2-0.5,0.3-1,0.8-1.4c1.2-1,2.7-1.2,4.4-0.4
			c3.5,1.8,12.2,6.4,17.8,11.5c1.2,1.1,1.7,2.6,1.3,3.9c-0.2,0.8-0.9,2.2-3.4,2.6C147.6,357.4,145.8,357.6,143.8,357.6z
			 M125.5,342.1c-0.9,0-1.6,0.7-1.7,1.5c-0.2,1.1-0.2,4.4-0.2,5.3s0.6,1.9,1.4,2.4c8.7,5,18.1,5.7,23.9,4.6c1.3-0.3,2.2-0.9,2.5-1.7
			c0.3-0.9-0.1-1.9-0.9-2.6c-5.5-5-14-9.6-17.5-11.4c-0.9-0.4-2-0.8-3,0.2c-0.2,0.2-0.3,0.5-0.4,0.9c-0.2,0.6-0.4,1.3-1.2,1.5l0,0
			c-0.8,0.3-1.2-0.2-1.4-0.4c-0.2-0.2-0.2-0.2-0.4-0.2L125.5,342.1L125.5,342.1z M128.1,342.2L128.1,342.2L128.1,342.2z"/>
		<path class="st5" d="M143.6,354.9c-3.8,0-9.6-1-17.9-4.7c-0.3-0.1-0.5-0.5-0.3-0.8c0.1-0.3,0.5-0.5,0.8-0.3
			c17.6,7.9,23,3.4,23.1,3.3c0.3-0.2,0.7-0.2,0.9,0.1c0.2,0.3,0.2,0.7-0.1,0.9C150.1,353.5,148.3,354.9,143.6,354.9z"/>
		<path class="st5" d="M139.5,349.6c-0.1,0-0.2,0-0.3-0.1c-0.3-0.2-0.4-0.6-0.2-0.9l2.2-3.9c0.2-0.3,0.6-0.4,0.9-0.2
			c0.3,0.2,0.4,0.6,0.2,0.9l-2.2,3.9C140,349.5,139.8,349.6,139.5,349.6z"/>
		<path class="st5" d="M136.5,348.1c-0.1,0-0.2,0-0.3-0.1c-0.3-0.2-0.4-0.6-0.2-0.9l2.5-4c0.2-0.3,0.6-0.4,0.9-0.2
			c0.3,0.2,0.4,0.6,0.2,0.9l-2.5,4C136.8,348,136.6,348.1,136.5,348.1z"/>
		<path class="st5" d="M94.4,265.9c0,0,52.3-2.3,58.1,3c7.8,7.2,21.1,67.2,21.1,67.2l-12.9,3.6c0,0-19.4-49.3-24.2-49.3
			s-50.1-1.6-50.1-1.6L94.4,265.9z"/>
		<path class="st5" d="M84,264.2c0,0-6.9,20.2-1.4,23.9c5.5,3.7,45.1,3.4,43.7,2.9c-1.4-0.5-3.5,33.2-3.5,46.2l12.5,0.5
			c0,0,19.9-52,17.7-57.8c-3.9-10.4-32.7-13.9-42.2-15.3C108.9,264.3,84,264.2,84,264.2z"/>
		<path class="st15" d="M146.4,308.7c-0.1,0-0.1,0-0.2,0c-0.3-0.1-0.5-0.5-0.4-0.8c0.5-1.4,0.9-2.7,1.3-4.2
			c3.5-10.8,6.5-20.1,5.3-23.7c-2.6-7.9-22.3-10.9-28.8-11.9c-0.4-0.1-0.6-0.4-0.5-0.7c0.1-0.4,0.4-0.6,0.7-0.5
			c11.5,1.8,27.2,5,29.8,12.8c1.3,4.1-1.6,13.1-5.3,24.5c-0.5,1.3-0.9,2.7-1.3,4.2C146.9,308.6,146.7,308.7,146.4,308.7z"/>
		<path class="st4" d="M90.2,202.8c0,0,0.2-3.3-1.9,31.5c0,0,1.4,27,1.6,30s26.5,1.7,26.5,1.7c3.1-13.6,2.7-29.3,0.6-46.1l4.5-0.4
			l0.3-10.5c-0.9-3.1-4.3-5.3-6.6-6.1C109.1,200,98.2,200.9,90.2,202.8z"/>
		<path class="st5" d="M104.7,266.8c-0.5,0-0.9,0-1.4,0c-12.1-0.1-13.9-1.3-13.9-2.6c-0.2-3-1.6-29.7-1.6-30c0,0,0,0,0-0.1
			c0.9-14.6,1.3-22.5,1.6-26.8c0.1-2.1,0.2-3.3,0.3-4c0-0.3,0-0.5,0.1-0.7v-0.1v-0.1l0,0c0.1-0.5,0.2-0.6,0.7-0.6c0,0,0.1,0,0.2,0
			c7.7-1.8,18.7-2.7,25.2,0.1c2.2,0.8,6.1,3,6.9,6.5c0,0.1,0,0.1,0,0.2l-0.3,10.5c0,0.3-0.3,0.6-0.6,0.6l-3.9,0.4
			c2.4,18.4,2.1,33.4-0.7,45.7c-0.1,0.3-0.3,0.5-0.6,0.5C116.5,266.6,110.7,266.8,104.7,266.8z M89,234.3c0.1,1.1,1.4,27,1.6,30
			c0.1,0.1,1,1.3,13.1,1.4c5.4,0,10.7-0.2,12.3-0.3c2.7-12.2,2.8-27.1,0.5-45.4c0-0.2,0-0.3,0.1-0.5c0.1-0.1,0.3-0.2,0.4-0.2l4-0.4
			l0.3-9.9c-0.8-2.6-3.7-4.7-6.1-5.7l0,0c-6.1-2.7-16.7-1.8-24.3-0.1C90.7,204.9,90.4,211,89,234.3z"/>
		<path class="st12" d="M124.1,265.6l-1.1-55.5c-0.4-2.6-1.3-3.7-3.5-5.1c-0.9-0.6-2.3-1.2-3.5-1.4c0,0-0.6-0.4-0.8,3
			c-0.1,1.6,2,19.9,2.4,35.5c0.3,11-1.3,20.5-1.2,22.6c0,0.2,7.2,1.6,7.7,1.1V265.6z"/>
		<path class="st5" d="M106,232.1c-0.2,0-0.5-0.1-0.6-0.3c-0.2-0.3,0-0.7,0.3-0.9c6.1-3.2,6.6-12.4,6.6-12.5c0-0.4,0.3-0.6,0.7-0.6
			s0.6,0.3,0.6,0.7s-0.5,9.9-7.2,13.5C106.2,232.1,106.1,232.1,106,232.1z"/>
		<path class="st12" d="M94.6,202.3c0,0-6.3-0.8-10.4,4.8s-4.5,11.8-3.8,16.9c1.3,8.6,6.7,18.4,6.4,21.1c-0.1,1.3-1.5,10.5-6.7,18.8
			c-4.3,6.8-4.1,21.9-3.3,22.3c5.7,3.3,14.9,10,26,10.8c2.1,0.2,3.7-0.9,4-2.6c1.1-6.6,4.4-25.7,4.8-43.7
			c0.4-15.6-10.7-39.2-11.2-41.2C99.4,204.8,94.6,202.3,94.6,202.3z"/>
		<path class="st12" d="M100.5,243.9c5.2,11.8,14.4,14.7,29.6,16.6l-1.6,4.5c-22.6,2.8-27-1.6-36-13.6L100.5,243.9z"/>
		<g>
			<path class="st12" d="M122.4,223.2c1.1,9.7,16.5,24.3,24.7,27.4l-5.5,4.2c-7.1,0.3-16.4-7.9-19.6-10.9L122.4,223.2z"/>
		</g>
		<path class="st11" d="M137.7,251.9c0.2-0.4,0.6-0.8,0.9-0.9c0.3-0.1,0.6-0.3,0.9-0.4l4-2.1c0.8-0.4,1.8,0.5,2.6,0.8
			c2.4,0.8,7.2,2.6,6.8,4.3c-0.5,1.8-4.6,0.9-6.1,0.6c-0.4-0.1-3.4,1-4.4,1.1c-1.3,0.1-1.6-0.3-2.3-0.6c-0.3-0.2-0.7-0.2-1-0.2
			c-0.6,0-1-0.2-1.4-0.7l0,0c-0.4-0.5-0.5-1.1-0.2-1.7L137.7,251.9z"/>
		<path class="st5" d="M142,255.9c-0.9,0-1.4-0.3-1.9-0.6c-0.1-0.1-0.2-0.1-0.3-0.2c-0.2-0.1-0.5-0.2-0.8-0.2
			c-0.8,0-1.4-0.4-1.9-0.9c-0.6-0.7-0.7-1.6-0.3-2.4l0.1-0.2c0.3-0.6,0.8-0.9,1.3-1.1c0.3-0.1,0.5-0.2,0.9-0.4l4-2.1
			c0.9-0.4,1.7,0,2.4,0.4c0.3,0.1,0.5,0.3,0.7,0.3c7.8,2.6,7.4,4.4,7.2,5c-0.1,0.5-0.4,0.9-0.9,1.1c-1.4,0.9-4.3,0.4-6-0.1
			c-0.3,0-1,0.3-1.6,0.5c-1,0.3-2.1,0.7-2.6,0.7C142.4,255.9,142.2,255.9,142,255.9z M144,249.1c-0.1,0-0.1,0-0.2,0l-4,2.1
			c-0.4,0.2-0.7,0.4-0.9,0.5s-0.5,0.3-0.7,0.6l0,0l-0.1,0.2c-0.2,0.3-0.1,0.8,0.1,1c0.2,0.3,0.6,0.5,0.9,0.5c0.5,0,0.9,0.1,1.2,0.3
			c0.1,0.1,0.2,0.1,0.3,0.2c0.5,0.3,0.8,0.4,1.7,0.4c0.5,0,1.5-0.4,2.4-0.7c1.5-0.5,1.9-0.6,2.2-0.5c2.4,0.6,4.4,0.7,5.1,0.2
			c0.2-0.1,0.3-0.2,0.3-0.4c0.1-0.6-1.5-2-6.4-3.6c-0.3-0.1-0.6-0.2-0.9-0.4C144.8,249.2,144.3,249.1,144,249.1z M137.7,251.9
			L137.7,251.9L137.7,251.9z"/>
		<g>
			<path class="st4" d="M89.3,273.4c-1.6,0-3.4-0.3-5.4-1.1c-0.3-0.1-0.5-0.5-0.4-0.8s0.5-0.5,0.8-0.4c10.1,4.1,15.2-5.1,15.4-5.5
				c0.2-0.3,0.6-0.4,0.9-0.3c0.3,0.2,0.4,0.6,0.3,0.9C100.8,266.3,96.8,273.4,89.3,273.4z"/>
			<path class="st4" d="M123.6,245c-0.3,0-0.6-0.3-0.6-0.6l-0.6-15.1c0-0.4,0.3-0.7,0.6-0.7c0.4,0,0.7,0.3,0.7,0.6l0.6,15.1
				C124.3,244.7,124,245,123.6,245L123.6,245z"/>
			<path class="st4" d="M115.9,266.5c-5.8,0-8.5-1.2-12.1-2.8c-0.9-0.4-1.8-0.8-2.8-1.2c-3.1-1.2-5.3-3.1-7.2-6.1
				c-0.9-1.4-1.6-2.8-2.4-4.4c-0.7-1.2-1.3-2.6-2-3.8c-0.2-0.3-0.1-0.7,0.2-0.9c0.3-0.2,0.7-0.1,0.9,0.2c0.8,1.2,1.4,2.6,2.1,3.9
				c0.8,1.4,1.4,2.8,2.3,4.3c1.8,2.8,3.8,4.5,6.6,5.7c1,0.5,2,0.9,2.9,1.2c4.6,2.1,7.8,3.4,17.8,2.3c0.9-0.1,4.2-0.1,4.8,0
				c0.4,0,0.6,0.3,0.6,0.7c0,0.4-0.3,0.6-0.7,0.6c-0.9,0-4-0.1-4.6,0C119.8,266.4,117.7,266.5,115.9,266.5z"/>
			<path class="st4" d="M111.4,256c-0.1,0-0.2,0-0.3-0.1l-3.6-1.8l-0.1-0.1c-2.3-2.6-4-7.1-5.6-11.5c-0.1-0.3,0.1-0.7,0.4-0.8
				s0.7,0.1,0.8,0.4c1.4,4.3,3.1,8.6,5.2,11.1l3.4,1.7c0.3,0.2,0.4,0.5,0.3,0.9C111.8,255.9,111.6,256,111.4,256z"/>
		</g>
		<path class="st11" d="M126.4,262.7c0.2-0.4,0.6-0.8,0.9-0.9s0.6-0.3,0.9-0.4l4-2.1c0.8-0.4,1.8,0.5,2.6,0.8
			c2.4,0.8,7.2,2.6,6.8,4.3c-0.5,1.8-4.6,0.9-6.1,0.6c-0.4-0.1-3.4,1-4.4,1.1c-1.3,0.1-1.6-0.3-2.3-0.6c-0.3-0.2-0.7-0.2-1-0.2
			c-0.6,0-1-0.2-1.4-0.7l0,0c-0.4-0.5-0.5-1.1-0.2-1.7L126.4,262.7z"/>
		<path class="st5" d="M130.9,266.7c-0.9,0-1.4-0.3-1.9-0.6c-0.1-0.1-0.2-0.1-0.3-0.2c-0.2-0.1-0.5-0.2-0.8-0.2
			c-0.8,0-1.4-0.4-1.9-0.9c-0.6-0.7-0.7-1.6-0.3-2.4l0.1-0.2c0.3-0.6,0.8-0.9,1.3-1.1c0.3-0.1,0.5-0.2,0.9-0.4l4-2.1
			c0.9-0.4,1.7,0,2.4,0.4c0.3,0.1,0.5,0.3,0.7,0.3c7.8,2.6,7.4,4.4,7.2,5c-0.1,0.5-0.4,0.9-0.9,1.1c-1.4,0.9-4.3,0.4-6-0.1
			c-0.3,0-1,0.3-1.6,0.5c-1,0.3-2.1,0.7-2.6,0.7C131.2,266.7,131,266.7,130.9,266.7z M132.8,259.7c-0.1,0-0.1,0-0.2,0l-4,2.1
			c-0.4,0.2-0.7,0.4-0.9,0.5c-0.3,0.1-0.5,0.3-0.7,0.6l0,0l-0.1,0.2c-0.2,0.3-0.1,0.8,0.1,1c0.2,0.3,0.6,0.5,0.9,0.5
			c0.5,0,0.9,0.1,1.2,0.3c0.1,0.1,0.2,0.1,0.3,0.2c0.5,0.3,0.8,0.4,1.7,0.4c0.5,0,1.5-0.4,2.4-0.7c1.5-0.5,1.9-0.6,2.2-0.5
			c2.4,0.6,4.4,0.7,5.1,0.2c0.2-0.1,0.3-0.2,0.3-0.4c0.1-0.6-1.5-2-6.4-3.6c-0.3-0.1-0.6-0.2-0.9-0.4
			C133.5,260,133.1,259.7,132.8,259.7z M126.4,262.7L126.4,262.7L126.4,262.7z"/>
		<path class="st11" d="M123.8,195.5c0.6-0.1,0.9-0.6,0.9-1.1c-0.8-3.4-0.5-9.3-0.6-9.1c-1.2,1.8-3.8-0.5-7.4-0.6
			c-2.2-0.1-2.9,1.2-3.3,2.3c-0.1,0.4-0.6,0.4-0.8,0.1c-0.6-0.9-1.4-1.5-2.7-0.2c-1.5,1.5,3.2,1.9,1.9,4.9
			c-0.3,0.4-6.2,7.1-10.1,11.3c-0.8,0.9-0.7,2.2,0.2,2.8l3.5,2.6c2.2,1.7,5.2,1.8,7.5,0.3l0.6-0.4c0.6-0.4,0.7-1.1,0.2-1.6l-1-1.1
			c-0.9-1-0.7-2.3-0.2-3.4l2.2-3.7c0.5,0.6,1.1,1.3,1.7,1.7c1.1,0.8,2.6,0.7,3.6-0.3c1.4-1.3,2.4-2.8,2.8-4.3L123.8,195.5z"/>
		<path class="st5" d="M148.2,264.4l12.1-35.8c0.8-1.1,2-1.8,3.3-1.8H196c1.5,0,2.4,1.4,1.9,2.6c-0.2,0.5-0.4,1-0.6,1.5l-11,33.4
			l0,0c0,2-1.6,3.5-3.6,3.5H123c-2,0-3.6-1.6-3.6-3.6L148.2,264.4L148.2,264.4z"/>
		<path class="st12" d="M172.2,245.2c-0.5,1.5,0.3,3,1.5,3.5c1.3,0.4,2.7-0.5,3.2-2s-0.3-3-1.5-3.5S172.7,243.7,172.2,245.2z"/>
		<path class="st4" d="M242.6,267.4H99c-2.6,0-4.7,2.6-4.4,5.4l9.9,93.9h7.2l-6.2-88.2c-0.1-1.5,1-2.8,2.5-2.8h123.3
			c2.2,0,3.9,2,3.7,4.4l-6.1,87.3h7.2l10.1-95.8C246.2,269.3,244.7,267.4,242.6,267.4z"/>
		<path class="st6" d="M235.9,368h-7.2c-0.2,0-0.3-0.1-0.5-0.2c-0.1-0.1-0.2-0.3-0.2-0.5l6.1-87.3c0.1-1-0.3-2-0.9-2.6
			c-0.6-0.7-1.3-0.9-2.2-0.9H107.8c-0.5,0-0.9,0.2-1.3,0.6c-0.4,0.5-0.6,1-0.6,1.6l6.2,88.2c0,0.2,0,0.4-0.2,0.5
			c-0.1,0.1-0.3,0.2-0.5,0.2h-7.2c-0.3,0-0.6-0.2-0.6-0.6l-9.9-93.9c-0.2-1.6,0.4-3.2,1.4-4.4c0.9-1,2.3-1.7,3.7-1.7h143.7
			c1.1,0,2.1,0.5,2.8,1.3c0.9,0.9,1.2,2.2,1.1,3.4l-10.1,95.8C236.4,367.7,236.2,368,235.9,368z M229.3,366.7h6l10-95.3
			c0.1-0.9-0.2-1.8-0.8-2.5c-0.6-0.6-1.2-0.9-2-0.9H99c-1,0-2,0.5-2.7,1.2c-0.9,0.9-1.2,2.2-1,3.4l9.8,93.5h6l-6.1-87.5
			c-0.1-0.9,0.3-1.9,0.9-2.6s1.3-0.9,2.2-0.9h123.3c1.1,0,2.3,0.5,3,1.3c0.9,0.9,1.3,2.3,1.2,3.6L229.3,366.7z"/>
		<g>
			<path class="st11" d="M120.7,182.4c-3.2,3-5.1,1.2-5.1,1.2s-1.4-1.9-2.4-2.6s-4.8-0.7-5.8,3.1c-0.9,3.8,3.6,4.6,3.6,4.6
				c4.7,4.8,2.5,10.8,2.5,10.8c7.7,4.5,10.1-3.2,10.7-3.1c0,0,3-1.1,3.7-1.7c0.7-0.6-1.4-3.2-1.4-3.2s-0.1-2.7,0.8-4.3
				c0.8-1.5,0.9-1.5,0.9-1.5l0.7-1.2C128.7,184.7,123.9,179.3,120.7,182.4z"/>
			<g>
				<path class="st5" d="M122.7,184.6c-0.1-0.2,0-0.4,0.2-0.5c1.9-0.9,3.3,0.3,3.8,0.9c0.1,0.2,0.1,0.4,0,0.6
					c-0.2,0.1-0.4,0.1-0.6,0c-0.1,0-1.1-1.4-3.2-0.7C122.9,184.7,122.8,184.7,122.7,184.6z"/>
			</g>
			<path class="st5" d="M123.4,187.9c-0.5,0.8-0.4,1.2-0.1,1.3s0.6,0.1,1.1-1c0.5-0.9,0.3-1.2,0-1.3
				C124,186.8,123.8,187.1,123.4,187.9z"/>
			<g>
				<g>
					<path class="st5" d="M107.6,182.1c0.6-0.9,1.6-1.6,2.8-1.8s2.4,0,3.4,0.8c1.2,0.9,2,2.3,1.9,3.9c-0.1,0.2-0.2,0.4-0.4,0.4
						c-0.2-0.1-0.4-0.2-0.4-0.4c0.1-1.2-0.6-2.5-1.6-3.2c-0.9-0.6-1.8-0.9-2.7-0.6c-0.9,0.2-1.8,0.7-2.4,1.5c-1.1,1.7-0.8,4,0.9,5.2
						c0.7,0.5,1.3,0.7,2.1,0.7c0.3,0,0.4,0.1,0.4,0.4c0,0.3-0.1,0.4-0.4,0.4c-0.9,0-1.8-0.3-2.6-0.8
						C106.8,186.9,106.4,184.2,107.6,182.1z"/>
				</g>
				<g>
					<path class="st5" d="M109,185.6c0.1-0.2,0.2-0.4,0.4-0.4l2.8,0.1l-0.9-2.8c0-0.2,0-0.4,0.3-0.5c0.2,0,0.4,0,0.5,0.3
						c0,0,1,3.3,0.8,3.8c0,0-3.3-0.1-3.5-0.1C109.1,185.9,109.1,185.8,109,185.6z"/>
				</g>
			</g>
			<g>
				<path class="st5" d="M119.9,195.3c0-0.2,0.2-0.4,0.4-0.4c0.2,0,0.4,0.2,0.4,0.4c0.2,1.8,2.2,2.2,2.3,2.2
					c0.2,0.1,0.4,0.3,0.3,0.5c0,0.2-0.2,0.3-0.5,0.3c-0.4-0.1-1-0.3-1.5-0.7C120.7,197,120.1,196.5,119.9,195.3z"/>
			</g>
		</g>
	</g>
	<ellipse transform="matrix(0.9024 -0.431 0.431 0.9024 -7.9176 135.6629)" class="st16" cx="295.5" cy="85.3" rx="4.3" ry="4.1"/>
	<line class="st17" x1="299.6" y1="83.6" x2="300.4" y2="82.9"/>
	<line class="st17" x1="291.8" y1="87.7" x2="286.3" y2="91.3"/>
	<polygon class="st18" points="280.1,111.3 272.6,115 287.3,123.3 290.1,117.1 	"/>
	<polygon class="st18" points="293.8,123.1 305.3,114.1 298.9,112.6 290.1,117.1 	"/>
	<path class="st19" d="M288.4,225.6c0.7-1.3,4.3-92.4,1.7-108.5l-2.7,6.2l-14.7-8.4"/>
	<circle class="st19" cx="288.1" cy="129" r="1.2"/>
	<circle class="st19" cx="287.5" cy="146.5" r="1.3"/>
	<circle class="st19" cx="287.5" cy="165.1" r="1.1"/>
	<circle class="st19" cx="286.7" cy="184.8" r="1.2"/>
	<polygon class="st5" points="318.6,183.3 283.3,183.3 294.3,144 329.6,144 	"/>
	<path class="st11" d="M240.7,159.9l19.3-2.5c0,0-3.1,25.1,33,11.1c0,0-1.3-3.9-1.1-8.4c0.2-4.5,2.9-0.2,3.3,3.5s8.9,2.2,14,0.8
		s11.8-0.5,0,6s-14.4,3.6-14.4,3.6s-15,21.1-33.8,16.6C237.9,185.2,240.7,159.9,240.7,159.9z"/>
	<path class="st5" d="M266.2,191.9c-1.8,0-3.6-0.2-5.4-0.7c-12.2-2.9-17.1-11.4-19.2-17.9c-2.2-7-1.5-13.2-1.5-13.5s0.3-0.5,0.6-0.6
		l19.3-2.5c0.2,0,0.4,0,0.5,0.2c0.1,0.1,0.2,0.3,0.2,0.5c0,0.1-0.9,7.8,4.4,11.9c5.2,4.1,14.4,3.6,27.1-1.2c-0.4-1.2-1.1-4.4-1-8.1
		c0-0.6,0.1-2.5,1.3-2.6l0,0c1.5,0,2.9,3.6,3.1,6.1c0.1,0.5,0.3,0.9,0.7,1c2.1,1.4,8,0.4,12.5-0.9c2.6-0.8,6.5-1.1,7.3,0.7
		c0.4,0.9,0.1,2.6-6.8,6.5c-9.4,5.2-13.1,4.5-14.6,3.9c-1,1.4-4.5,5.7-9.6,9.6C278.9,189.4,272.4,191.9,266.2,191.9z M241.3,160.5
		c-0.1,1.6-0.3,6.9,1.5,12.6c2.8,9.1,9,14.8,18.4,17c1.7,0.4,3.4,0.6,5.1,0.6c15.7,0,27.9-16.7,28.1-16.9c0.1-0.2,0.3-0.3,0.5-0.3
		s0.4,0.1,0.5,0.2c0,0,2.6,2.4,13.6-3.7c6.7-3.7,6.2-4.9,6.2-4.9c-0.2-0.6-2.8-0.8-5.8,0.1c-2.4,0.7-10.5,2.7-13.5,0.7
		c-0.7-0.5-1.1-1.1-1.2-2c-0.3-2.4-1.3-4.4-1.9-4.9c-0.1,0.2-0.2,0.6-0.2,1.3c-0.2,4.4,1.1,8.1,1.1,8.2c0.1,0.3-0.1,0.7-0.4,0.8
		c-13.5,5.2-23.3,5.7-28.9,1.3c-4.9-3.8-5.1-10.1-4.9-12.3L241.3,160.5z"/>
	<circle class="st19" cx="286" cy="203.5" r="1.2"/>
	<polyline class="st19" points="305.3,114.1 293.8,123.1 290.4,115.6 	"/>
	<g>
		<circle class="st4" cx="461" cy="81.5" r="15.2"/>
		<polygon class="st8" points="456.6,89.5 456.6,73.5 468,81.5 		"/>
	</g>
	<g>
		<circle class="st20" cx="490.1" cy="146.2" r="6.7"/>
		<line class="st20" x1="484.7" y1="151.6" x2="479.8" y2="156.5"/>
	</g>
</g>
</svg>
