<svg width="701" height="442" viewBox="0 0 701 442" fill="none" xmlns="http://www.w3.org/2000/svg">
<path opacity="0.5" fill-rule="evenodd" clip-rule="evenodd" d="M31.5 201.753L278.756 59L281.756 64.1962L34.5 206.95C32.4964 208.106 32.5009 211 34.5081 212.15L252.234 336.956L249.251 342.161L31.5242 217.356C25.5027 213.904 25.4893 205.224 31.5 201.753Z" fill="#F54811"/>
<path d="M189.58 118.166L124.181 155L117 150.38L184.917 111.458L189.58 118.166Z" fill="url(#paint0_linear_802_9523)"/>
<path d="M187.034 118.925C189.459 118.925 191.425 117.151 191.425 114.962C191.425 112.774 189.459 111 187.034 111C184.609 111 182.643 112.774 182.643 114.962C182.643 117.151 184.609 118.925 187.034 118.925Z" fill="#F54811"/>
<path opacity="0.8" d="M180.683 119.168C181.252 119.168 181.713 118.751 181.713 118.238C181.713 117.724 181.252 117.308 180.683 117.308C180.114 117.308 179.653 117.724 179.653 118.238C179.653 118.751 180.114 119.168 180.683 119.168Z" fill="white"/>
<path opacity="0.5" d="M175.625 122.199C176.193 122.199 176.655 121.783 176.655 121.269C176.655 120.756 176.193 120.34 175.625 120.34C175.056 120.34 174.595 120.756 174.595 121.269C174.595 121.783 175.056 122.199 175.625 122.199Z" fill="white"/>
<path d="M186.905 116.951C188.042 116.951 188.964 116.118 188.964 115.091C188.964 114.064 188.042 113.231 186.905 113.231C185.767 113.231 184.845 114.064 184.845 115.091C184.845 116.118 185.767 116.951 186.905 116.951Z" fill="white"/>
<path opacity="0.5" fill-rule="evenodd" clip-rule="evenodd" d="M177.5 292.453L387.166 171.402L390.166 176.598L180.5 297.649L177.5 292.453Z" fill="#F54811"/>
<path opacity="0.5" fill-rule="evenodd" clip-rule="evenodd" d="M314.392 266.141C313.464 265.606 312.321 265.606 311.394 266.142L197.607 331.836L194.607 326.64L308.394 260.946C311.177 259.339 314.606 259.338 317.39 260.944L448.309 335.536C449.237 336.071 450.38 336.071 451.307 335.535L580.5 260.946L583.5 266.142L454.307 340.731C451.524 342.338 448.095 342.339 445.311 340.733L314.392 266.141Z" fill="#F54811"/>
<g opacity="0.3" filter="url(#filter0_f_802_9523)">
<path d="M151.818 97.2024C151.818 96.4356 152.229 95.7274 152.894 95.3461L223.172 55.0639C224.496 54.305 226.124 54.3087 227.445 55.0735L316.387 106.586C317.048 106.969 317.455 107.674 317.455 108.438V109.846C317.455 110.611 317.046 111.318 316.383 111.7L247.895 151.16C245.917 152.299 243.482 152.303 241.501 151.168L152.895 100.434C152.229 100.053 151.818 99.3448 151.818 98.5777V97.2024Z" fill="#D6DFF0"/>
</g>
<path d="M152.898 66.6481C152.727 66.7464 152.624 66.9309 152.63 67.128L152.711 69.7746C152.722 70.1464 152.926 70.4856 153.249 70.6704L241.719 121.326C243.37 122.271 245.398 122.269 247.047 121.319L315.576 81.8357C315.949 81.6209 316.179 81.2232 316.179 80.7929V78.8953C316.179 78.1318 315.772 77.4263 315.111 77.0437L234.687 30.4684L234.691 30.4664L227.39 26.2381C226.067 25.4718 224.436 25.4697 223.111 26.2324L152.898 66.6481Z" fill="white"/>
<path d="M152.898 66.6481C152.727 66.7464 152.624 66.9309 152.63 67.128L152.711 69.7746C152.722 70.1464 152.926 70.4856 153.249 70.6704L241.719 121.326C243.37 122.271 245.398 122.269 247.047 121.319L315.576 81.8357C315.949 81.6209 316.179 81.2232 316.179 80.7929V78.8953C316.179 78.1318 315.772 77.4263 315.111 77.0437L234.687 30.4684L234.691 30.4664L227.39 26.2381C226.067 25.4718 224.436 25.4697 223.111 26.2324L152.898 66.6481Z" fill="url(#paint1_linear_802_9523)"/>
<path d="M153.361 67.5502C153.011 67.3479 153.011 66.8414 153.363 66.64L223.439 26.4712C224.561 25.8284 225.94 25.8314 227.058 26.4792L315.263 77.555C315.903 77.9261 315.902 78.8519 315.261 79.2215L246.869 118.62C245.332 119.506 243.439 119.505 241.901 118.619L153.361 67.5502Z" fill="white"/>
<path d="M153.361 67.5502C153.011 67.3479 153.011 66.8414 153.363 66.64L223.439 26.4712C224.561 25.8284 225.94 25.8314 227.058 26.4792L315.263 77.555C315.903 77.9261 315.902 78.8519 315.261 79.2215L246.869 118.62C245.332 119.506 243.439 119.505 241.901 118.619L153.361 67.5502Z" fill="url(#paint2_linear_802_9523)"/>
<path d="M153.361 67.5502C153.011 67.3479 153.011 66.8414 153.363 66.64L223.439 26.4712C224.561 25.8284 225.94 25.8314 227.058 26.4792L315.263 77.555C315.903 77.9261 315.902 78.8519 315.261 79.2215L246.869 118.62C245.332 119.506 243.439 119.505 241.901 118.619L153.361 67.5502Z" stroke="url(#paint3_linear_802_9523)" stroke-width="0.75"/>
<rect width="62.8898" height="4.36734" rx="2.18367" transform="matrix(0.86604 -0.499975 0.86604 0.499975 215.688 92.8518)" fill="#DEDEDE"/>
<rect width="62.8898" height="4.36734" rx="2.18367" transform="matrix(0.86604 -0.499975 0.86604 0.499975 203.206 85.646)" fill="#DEDEDE"/>
<rect width="62.8898" height="4.36734" rx="2.18367" transform="matrix(0.86604 -0.499975 0.86604 0.499975 190.725 78.4402)" fill="#DEDEDE"/>
<rect width="62.8898" height="4.36734" rx="2.18367" transform="matrix(0.86604 -0.499975 0.86604 0.499975 178.243 71.2344)" fill="#DEDEDE"/>
<path d="M152.898 55.6481C152.727 55.7464 152.624 55.9309 152.63 56.128L152.711 58.7746C152.722 59.1464 152.926 59.4856 153.249 59.6704L241.719 110.326C243.37 111.271 245.398 111.269 247.047 110.319L315.576 70.8357C315.949 70.6209 316.179 70.2232 316.179 69.7929V67.8953C316.179 67.1318 315.772 66.4263 315.111 66.0437L234.687 19.4684L234.691 19.4664L227.39 15.2381C226.067 14.4718 224.436 14.4697 223.111 15.2324L152.898 55.6481Z" fill="white"/>
<path d="M152.898 55.6481C152.727 55.7464 152.624 55.9309 152.63 56.128L152.711 58.7746C152.722 59.1464 152.926 59.4856 153.249 59.6704L241.719 110.326C243.37 111.271 245.398 111.269 247.047 110.319L315.576 70.8357C315.949 70.6209 316.179 70.2232 316.179 69.7929V67.8953C316.179 67.1318 315.772 66.4263 315.111 66.0437L234.687 19.4684L234.691 19.4664L227.39 15.2381C226.067 14.4718 224.436 14.4697 223.111 15.2324L152.898 55.6481Z" fill="url(#paint4_linear_802_9523)"/>
<path d="M153.361 56.5502C153.011 56.3479 153.011 55.8414 153.363 55.64L223.439 15.4712C224.561 14.8284 225.94 14.8314 227.058 15.4792L315.263 66.555C315.903 66.9261 315.902 67.8519 315.261 68.2215L246.869 107.62C245.332 108.506 243.439 108.505 241.901 107.619L153.361 56.5502Z" fill="white"/>
<path d="M153.361 56.5502C153.011 56.3479 153.011 55.8414 153.363 55.64L223.439 15.4712C224.561 14.8284 225.94 14.8314 227.058 15.4792L315.263 66.555C315.903 66.9261 315.902 67.8519 315.261 68.2215L246.869 107.62C245.332 108.506 243.439 108.505 241.901 107.619L153.361 56.5502Z" fill="url(#paint5_linear_802_9523)"/>
<path d="M153.361 56.5502C153.011 56.3479 153.011 55.8414 153.363 55.64L223.439 15.4712C224.561 14.8284 225.94 14.8314 227.058 15.4792L315.263 66.555C315.903 66.9261 315.902 67.8519 315.261 68.2215L246.869 107.62C245.332 108.506 243.439 108.505 241.901 107.619L153.361 56.5502Z" stroke="url(#paint6_linear_802_9523)" stroke-width="0.75"/>
<rect width="62.8898" height="4.36734" rx="2.18367" transform="matrix(0.86604 -0.499975 0.86604 0.499975 215.688 81.8518)" fill="#DEDEDE"/>
<rect width="62.8898" height="4.36734" rx="2.18367" transform="matrix(0.86604 -0.499975 0.86604 0.499975 203.206 74.646)" fill="#DEDEDE"/>
<rect width="62.8898" height="4.36734" rx="2.18367" transform="matrix(0.86604 -0.499975 0.86604 0.499975 190.725 67.4402)" fill="#DEDEDE"/>
<rect width="62.8898" height="4.36734" rx="2.18367" transform="matrix(0.86604 -0.499975 0.86604 0.499975 178.243 60.2344)" fill="#DEDEDE"/>
<path d="M235.009 67L336.242 13.9775C339.848 12.0582 345.364 11.9701 349.149 13.7714L393.169 34.7209L393.169 42.3329C393.169 43.8261 392.141 45.2585 390.31 46.3163L293.076 102.479C289.239 104.695 283 104.692 279.17 102.471L237.854 78.5136C236.031 77.4564 235.008 76.0272 235.008 74.5376L235.009 67Z" fill="url(#paint7_linear_802_9523)"/>
<path d="M238.218 70.4767C236.394 69.427 235.597 68.1214 235.597 66.9195C235.597 65.7176 236.394 64.412 238.218 63.3623L335.412 7.42394C337.233 6.37595 339.651 5.83765 342.096 5.83765C344.541 5.83765 346.959 6.37595 348.78 7.42394L390.032 31.1658C391.856 32.2156 392.654 33.5211 392.654 34.723C392.654 35.9249 391.856 37.2305 390.032 38.2802L292.838 94.2186C291.018 95.2666 288.599 95.8049 286.154 95.8049C283.709 95.8049 281.291 95.2666 279.47 94.2186L238.218 70.4767Z" fill="white" stroke="#F0F0F0"/>
<path fill-rule="evenodd" clip-rule="evenodd" d="M248.09 65.4446L341.167 11.7113L381.144 34.79L288.067 88.5232L248.09 65.4446ZM250.688 65.4446L288.067 87.0233L378.545 34.79L341.167 13.2112L250.688 65.4446Z" fill="#090B21"/>
<path d="M244.145 65.4446L249.389 62.417L254.633 65.4446L249.389 68.4722L244.145 65.4446Z" fill="#090B21"/>
<path d="M335.922 12.4612L341.166 9.43357L346.411 12.4612L341.166 15.4888L335.922 12.4612Z" fill="#090B21"/>
<path d="M282.167 87.3948L287.411 84.3672L292.656 87.3948L287.411 90.4224L282.167 87.3948Z" fill="#090B21"/>
<path d="M373.944 34.4116L379.189 31.384L384.433 34.4116L379.189 37.4392L373.944 34.4116Z" fill="#090B21"/>
<path d="M270.37 63.1761C270.006 62.9659 270.006 62.625 270.37 62.4147C270.735 62.2045 271.325 62.2045 271.689 62.4147L293.97 75.2776C294.335 75.4879 294.335 75.8287 293.97 76.039C293.606 76.2492 293.016 76.2492 292.651 76.039L270.37 63.1761Z" fill="#090B21"/>
<path d="M317.667 61.6437L309.56 59.2038L300.969 64.1635L305.23 68.8232L300.588 71.503L284.514 52.8643L290.196 49.5845L322.412 58.9039L317.667 61.6437ZM291.477 53.6442L291.304 53.7442L298.163 61.2637L304.537 57.5839L291.477 53.6442Z" fill="#F54811"/>
<path d="M340.835 48.2685C339.865 48.8284 338.814 49.1151 337.683 49.1284C336.551 49.1151 335.443 48.8751 334.357 48.4084L334.149 48.5284C335.027 49.3817 335.304 50.2483 334.981 51.1283C334.634 51.9949 333.78 52.8215 332.417 53.6081C330.57 54.6747 328.664 55.2147 326.701 55.228C324.738 55.2413 322.948 54.7814 321.332 53.8481C319.461 52.7682 318.745 51.5816 319.184 50.2883C319.6 48.9817 321.043 47.6152 323.514 46.1886L326.597 44.4087L325.281 43.6488C324.265 43.0621 323.214 42.7621 322.129 42.7488C321.043 42.7355 319.912 43.0688 318.734 43.7488C317.694 44.3487 317.082 44.9687 316.898 45.6086C316.713 46.2219 316.713 46.8352 316.898 47.4485L311.909 47.6085C311.54 46.6219 311.597 45.6286 312.082 44.6287C312.544 43.6154 313.688 42.5822 315.512 41.5289C317.96 40.1157 320.373 39.3624 322.752 39.269C325.131 39.1757 327.359 39.729 329.438 40.9289L337.96 45.8486L339.761 44.8087L343.295 46.8485L340.835 48.2685ZM330.685 50.8883C331.678 50.315 332.302 49.7017 332.556 49.0484C332.81 48.3951 332.51 47.8218 331.655 47.3285L329.265 45.9486L326.424 47.5885C324.115 48.9217 323.699 50.015 325.177 50.8683L325.766 51.2083C326.505 51.6349 327.29 51.8216 328.122 51.7682C328.953 51.6882 329.808 51.3949 330.685 50.8883Z" fill="#F54811"/>
<path d="M308.123 225.295L286.455 238L279 233.391L303.641 218.509L308.123 225.295Z" fill="url(#paint8_linear_802_9523)"/>
<path d="M310.058 222.152C310.111 219.976 308.199 218.164 305.787 218.106C303.376 218.047 301.378 219.764 301.325 221.94C301.272 224.115 303.184 225.927 305.596 225.985C308.007 226.044 310.005 224.327 310.058 222.152Z" fill="#F54811"/>
<path d="M307.608 222.227C307.633 221.205 306.736 220.355 305.605 220.328C304.473 220.3 303.536 221.106 303.512 222.127C303.487 223.148 304.384 223.998 305.515 224.026C306.646 224.053 307.583 223.248 307.608 222.227Z" fill="white"/>
<path opacity="0.8" d="M300.591 225.451C300.603 224.941 300.155 224.516 299.589 224.502C299.024 224.488 298.555 224.891 298.543 225.402C298.531 225.912 298.979 226.337 299.545 226.351C300.11 226.365 300.579 225.962 300.591 225.451Z" fill="white"/>
<path opacity="0.5" d="M295.501 228.351C295.514 227.841 295.065 227.416 294.5 227.402C293.934 227.388 293.465 227.791 293.453 228.302C293.441 228.812 293.889 229.237 294.455 229.251C295.02 229.265 295.489 228.862 295.501 228.351Z" fill="white"/>
<g opacity="0.3" filter="url(#filter1_f_802_9523)">
<path fill-rule="evenodd" clip-rule="evenodd" d="M304.485 169.86C302.161 171.197 301 172.954 301 174.712V179.502C301 181.28 302.161 183.017 304.485 184.364L414.47 247.857C419.105 250.53 426.63 250.53 431.265 247.857L515.892 199.001C518.205 197.665 519.366 195.907 519.366 194.149V189.36C519.366 187.581 518.215 185.844 515.892 184.498L405.907 121.004C401.261 118.332 393.747 118.332 389.111 121.004L304.485 169.86Z" fill="#D6DFF0"/>
</g>
<path d="M301 141.712C301 143.459 302.162 145.217 304.485 146.564L414.469 210.057C419.105 212.74 426.63 212.74 431.265 210.057L515.892 161.201C518.205 159.865 519.366 158.117 519.366 156.359V161.149C519.366 162.907 518.205 164.665 515.892 166.001L431.265 214.857C426.63 217.53 419.105 217.53 414.469 214.857L304.485 151.364C302.162 150.017 301 148.28 301 146.502V141.712Z" fill="url(#paint9_linear_802_9523)"/>
<path d="M301 141.712C301 139.954 302.162 138.197 304.485 136.86L389.111 88.0044C393.747 85.3319 401.261 85.3319 405.907 88.0044L515.892 151.498C518.215 152.844 519.366 154.581 519.366 156.36C519.366 158.138 518.205 159.865 515.892 161.201L431.265 210.057C426.63 212.74 419.105 212.74 414.469 210.057L304.485 146.523C302.162 145.217 301 143.439 301 141.712Z" fill="#828990"/>
<path d="M301 141.712C301 139.954 302.162 138.197 304.485 136.86L389.111 88.0044C393.747 85.3319 401.261 85.3319 405.907 88.0044L515.892 151.498C518.215 152.844 519.366 154.581 519.366 156.36C519.366 158.138 518.205 159.865 515.892 161.201L431.265 210.057C426.63 212.74 419.105 212.74 414.469 210.057L304.485 146.523C302.162 145.217 301 143.439 301 141.712Z" fill="url(#paint10_linear_802_9523)"/>
<path d="M349.691 116.157C349.7 116.251 349.733 116.341 349.787 116.418C349.841 116.496 349.914 116.558 350 116.599C350.235 116.72 350.496 116.784 350.76 116.784C351.025 116.784 351.286 116.72 351.521 116.599L366.241 108.098C366.328 108.062 366.404 108.003 366.461 107.927C366.517 107.851 366.551 107.761 366.559 107.666C366.551 107.761 366.517 107.851 366.461 107.927C366.404 108.003 366.328 108.062 366.241 108.098L351.521 116.599C351.286 116.72 351.025 116.784 350.76 116.784C350.496 116.784 350.235 116.72 350 116.599C349.914 116.558 349.841 116.496 349.787 116.418C349.733 116.341 349.7 116.251 349.691 116.157Z" fill="#C7CECF"/>
<path d="M349.691 116.158C349.699 116.064 349.732 115.973 349.786 115.896C349.84 115.818 349.914 115.756 350 115.716L364.719 107.226C364.954 107.104 365.215 107.041 365.48 107.041C365.745 107.041 366.005 107.104 366.241 107.226C366.329 107.263 366.406 107.324 366.462 107.402C366.518 107.48 366.552 107.572 366.559 107.668C366.551 107.762 366.517 107.853 366.461 107.929C366.404 108.005 366.328 108.064 366.241 108.1L351.521 116.6C351.286 116.722 351.025 116.786 350.76 116.786C350.496 116.786 350.235 116.722 350 116.6C349.914 116.56 349.841 116.498 349.787 116.42C349.733 116.343 349.7 116.252 349.691 116.158Z" fill="#C7CECF"/>
<path d="M345.868 118.356C345.878 118.452 345.912 118.543 345.968 118.62C346.024 118.698 346.1 118.759 346.187 118.798C346.422 118.92 346.683 118.984 346.947 118.984C347.212 118.984 347.473 118.92 347.708 118.798C347.795 118.762 347.871 118.702 347.927 118.626C347.983 118.55 348.017 118.461 348.027 118.367C348.017 118.461 347.983 118.55 347.927 118.626C347.871 118.702 347.795 118.762 347.708 118.798C347.473 118.92 347.212 118.984 346.947 118.984C346.683 118.984 346.422 118.92 346.187 118.798C346.1 118.759 346.024 118.698 345.968 118.62C345.912 118.543 345.878 118.452 345.868 118.356Z" fill="#C7CECF"/>
<path d="M345.868 118.358C345.879 118.264 345.913 118.175 345.969 118.099C346.025 118.024 346.1 117.964 346.187 117.926C346.422 117.805 346.683 117.741 346.947 117.741C347.212 117.741 347.473 117.805 347.708 117.926C347.799 117.958 347.877 118.017 347.933 118.095C347.989 118.174 348.019 118.267 348.019 118.363C348.019 118.459 347.989 118.553 347.933 118.631C347.877 118.709 347.799 118.769 347.708 118.8C347.473 118.922 347.212 118.985 346.947 118.985C346.683 118.985 346.422 118.922 346.187 118.8C346.1 118.761 346.024 118.699 345.968 118.622C345.912 118.544 345.878 118.453 345.868 118.358Z" fill="#C7CECF"/>
<path d="M394.404 194.404L316.504 149.404H512.264L515.891 151.498C518.215 152.844 519.366 154.581 519.366 156.36C519.366 158.138 518.204 159.865 515.891 161.201L458.379 194.404H394.404Z" fill="url(#paint11_linear_802_9523)"/>
<path d="M313.815 136.404C312.804 136.404 312.435 135.081 313.303 134.563C322.58 129.025 332.069 123.803 341.421 118.404H458.565L489.745 136.404H313.815Z" fill="url(#paint12_linear_802_9523)"/>
<g opacity="0.15" filter="url(#filter2_f_802_9523)">
<path d="M375.969 181.267C372.139 179.064 372.139 175.49 375.969 173.286L473.162 117.348C476.992 115.144 483.2 115.144 487.03 117.348L528.282 141.09C532.111 143.294 532.111 146.867 528.282 149.071L431.088 205.009C427.258 207.213 421.05 207.213 417.221 205.009L375.969 181.267Z" fill="#ABE4FA"/>
</g>
<path d="M373.009 144L474.242 90.9775C477.848 89.0582 483.364 88.9701 487.149 90.7714L531.169 111.721L531.169 119.333C531.169 120.826 530.141 122.258 528.31 123.316L431.076 179.479C427.239 181.695 421 181.692 417.17 179.471L375.854 155.514C374.031 154.456 373.008 153.027 373.008 151.538L373.009 144Z" fill="url(#paint13_linear_802_9523)"/>
<path d="M376.218 147.477C374.394 146.427 373.597 145.121 373.597 143.92C373.597 142.718 374.394 141.412 376.218 140.362L473.412 84.4239C475.233 83.3759 477.651 82.8376 480.096 82.8376C482.541 82.8376 484.959 83.376 486.78 84.4239L528.032 108.166C529.856 109.216 530.654 110.521 530.654 111.723C530.654 112.925 529.856 114.231 528.032 115.28L430.838 171.219C429.018 172.267 426.599 172.805 424.154 172.805C421.709 172.805 419.291 172.267 417.47 171.219L376.218 147.477Z" fill="white" stroke="#F0F0F0"/>
<path d="M412.281 138.205C412.292 137.998 412.363 137.799 412.487 137.633C414.982 134.464 417.965 131.706 421.327 129.46C422.922 128.284 424.913 127.762 426.885 128.003C428.496 128.164 429.977 128.953 431.003 130.196C431.9 131.494 432.62 132.905 433.144 134.391L436.686 142.1C436.686 142.182 436.892 142.168 436.919 142.1C438.012 137.648 439.355 133.26 440.941 128.956C441.558 127.281 444.317 126.491 446.87 127.376C448.68 128.181 450.298 129.355 451.619 130.822C452.182 131.34 452.841 132.184 453.98 131.871C455.075 131.48 456.065 130.846 456.876 130.018C457.632 129.376 458.326 128.664 458.949 127.894C461.488 124.774 462.71 121.328 464.81 118.1C469.23 111.29 483.12 99.235 483.161 99.2214C484.63 98.5267 486.757 99.2214 486.757 100.202C486.756 100.326 486.723 100.448 486.661 100.556C486.387 101.037 486.012 101.455 485.563 101.782C481.584 104.798 477.907 108.187 474.583 111.903C471.769 115.057 469.316 118.511 467.267 122.2C465.455 125.483 463.973 129.01 460.404 131.735C458.666 133.315 456.462 134.299 454.117 134.541C452.436 134.652 450.761 134.253 449.313 133.396C448.23 132.647 447.227 131.789 446.321 130.836C446.021 130.528 445.7 130.241 445.36 129.978C443.031 136.273 441.24 142.752 440.007 149.347C439.747 150.79 436.15 151.24 435.437 149.687L428.148 134.009C427.723 133.11 427.531 131.598 426.35 130.877C425.842 130.55 426.021 130.591 425.444 130.877C424.646 131.278 423.907 131.787 423.248 132.388C420.728 134.285 418.48 136.512 416.564 139.008C415.479 140.33 412.281 139.471 412.281 138.205Z" fill="#51BEB7"/>
<path d="M426.58 321.834L361.181 285L354 289.62L421.917 328.542L426.58 321.834Z" fill="url(#paint14_linear_802_9523)"/>
<path d="M424.034 321.075C426.459 321.075 428.425 322.849 428.425 325.038C428.425 327.226 426.459 329 424.034 329C421.609 329 419.643 327.226 419.643 325.038C419.643 322.849 421.609 321.075 424.034 321.075Z" fill="#F54811"/>
<path opacity="0.8" d="M417.683 320.832C418.252 320.832 418.713 321.249 418.713 321.762C418.713 322.276 418.252 322.692 417.683 322.692C417.114 322.692 416.653 322.276 416.653 321.762C416.653 321.249 417.114 320.832 417.683 320.832Z" fill="white"/>
<path opacity="0.5" d="M412.625 317.801C413.193 317.801 413.655 318.217 413.655 318.731C413.655 319.244 413.193 319.66 412.625 319.66C412.056 319.66 411.595 319.244 411.595 318.731C411.595 318.217 412.056 317.801 412.625 317.801Z" fill="white"/>
<path d="M423.905 323.049C425.042 323.049 425.964 323.882 425.964 324.909C425.964 325.936 425.042 326.769 423.905 326.769C422.767 326.769 421.845 325.936 421.845 324.909C421.845 323.882 422.767 323.049 423.905 323.049Z" fill="white"/>
<g filter="url(#filter3_d_802_9523)">
<path d="M149.914 397.919C213.967 397.919 265.893 367.94 265.893 330.959V310C246.788 288.162 195.184 264 149.914 264C102.81 264 52.0946 286.713 33.9355 310C33.9355 310 33.936 321.174 33.936 330.959C33.936 367.94 85.8613 397.919 149.914 397.919Z" fill="url(#paint15_linear_802_9523)"/>
</g>
<path d="M33.9141 309.167C59.9765 332.318 85.8346 376.127 149.892 376.127C213.95 376.127 236.651 330.959 265.86 309.167V331.644C265.86 368.628 213.94 398.603 149.892 398.603C85.8448 398.603 33.9141 368.648 33.9141 331.685V309.167Z" fill="url(#paint16_linear_802_9523)"/>
<path d="M149.914 376.127C213.967 376.127 265.892 346.148 265.892 309.167C265.892 272.187 213.967 242.208 149.914 242.208C85.8608 242.208 33.9355 272.187 33.9355 309.167C33.9355 346.148 85.8608 376.127 149.914 376.127Z" fill="url(#paint17_linear_802_9523)"/>
<path d="M137.102 261.722L102.539 272.694C96.4911 274.513 97.4311 277.997 101.742 279.325L131.81 292.3L110.6 292.514C107.535 292.126 105.165 293.71 105.196 294.956L105.523 305.244C105.686 310.72 108.955 316.002 114.809 320.303L145.714 343.505C148.289 345.395 152.805 345.978 156.513 344.895L191.107 333.912C197.155 332.083 196.215 328.61 191.904 327.281L160.651 313.796L183.7 314.143C186.407 314.245 188.481 312.794 188.44 311.64L188.123 301.352C187.96 295.886 184.691 290.594 178.837 286.293L147.931 263.101C145.357 261.221 140.841 260.639 137.102 261.722ZM122.799 297.48L142.323 296.856L169.652 308.646L149.842 309.157L122.799 297.48Z" fill="white"/>
<g opacity="0.3" filter="url(#filter4_f_802_9523)">
<path fill-rule="evenodd" clip-rule="evenodd" d="M491 280C488.677 281.336 487.515 283.094 487.515 284.852V289.642C487.515 291.42 488.677 293.157 491 294.504L560.617 334.852C565.253 337.525 572.777 337.525 577.413 334.852L682.525 272.644C684.838 271.308 685.999 269.55 685.999 267.792V263.003C685.999 261.224 684.848 259.487 682.525 258.141L612.907 217.792C608.261 215.12 600.747 215.12 596.112 217.792L491 280Z" fill="#D6DFF0"/>
</g>
<path d="M686.265 227.473C686.265 230.484 684.279 233.491 680.3 235.788L581.043 293.094C573.069 297.688 560.198 297.688 552.244 293.094L488.608 256.356C484.633 254.078 482.644 251.04 482.644 248.048V253.444C482.644 256.451 484.633 259.458 488.608 261.755L552.244 298.493C560.217 303.084 573.088 303.084 581.043 298.493L680.3 241.188C684.279 238.909 686.265 235.872 686.265 232.873V227.473Z" fill="url(#paint18_linear_802_9523)"/>
<path d="M686.265 227.473C686.265 224.466 684.271 221.459 680.3 219.162L616.665 182.443C608.691 177.852 595.816 177.852 587.866 182.443L488.608 239.73C484.629 242.027 482.644 245.045 482.644 248.048C482.644 251.052 484.633 254.063 488.608 256.356L552.244 293.094C560.217 297.688 573.088 297.688 581.043 293.094L680.3 235.788C684.279 233.491 686.265 230.484 686.265 227.473Z" fill="white"/>
<path d="M665.948 225.21L629.023 203.891L542.865 272.462L563.486 284.369L665.948 225.21Z" fill="#32CEC5"/>
<path d="M636.94 208.463L612.723 194.479L599.195 225.522L566.778 246.538L524.052 261.603L542.865 272.462L587.22 259.215L617.469 236.658L636.94 208.463Z" fill="#F54810"/>
<path d="M612.724 194.479L669.35 227.174" stroke="#C6CDCF" stroke-width="0.334259" stroke-miterlimit="10"/>
<path d="M610.552 193.226L669.35 227.173" stroke="#C6CDCF" stroke-width="0.334259" stroke-miterlimit="10"/>
<path d="M578.567 214.2L635.197 246.894" stroke="#C6CDCF" stroke-width="0.334259" stroke-miterlimit="10"/>
<path d="M578.567 214.2L635.197 246.894" stroke="#C6CDCF" stroke-width="0.334259" stroke-miterlimit="10"/>
<path d="M673.959 228.385C673.948 228.499 673.907 228.608 673.841 228.701C673.774 228.795 673.684 228.869 673.58 228.916L671.176 230.283C670.89 230.427 670.574 230.502 670.253 230.502C669.933 230.502 669.617 230.427 669.331 230.283C669.226 230.236 669.136 230.162 669.07 230.068C669.003 229.975 668.962 229.866 668.951 229.752C668.962 229.866 669.003 229.975 669.07 230.068C669.136 230.162 669.226 230.236 669.331 230.283C669.617 230.427 669.933 230.502 670.253 230.502C670.574 230.502 670.89 230.427 671.176 230.283L673.576 228.897C673.68 228.85 673.77 228.776 673.837 228.682C673.903 228.589 673.944 228.48 673.955 228.366L673.959 228.385Z" fill="#C6CDCF"/>
<path d="M668.936 229.767C668.947 229.881 668.988 229.99 669.054 230.083C669.121 230.177 669.211 230.251 669.315 230.298C669.601 230.442 669.917 230.518 670.238 230.518C670.558 230.518 670.874 230.442 671.16 230.298L673.56 228.912C673.665 228.865 673.755 228.791 673.821 228.698C673.888 228.604 673.929 228.495 673.94 228.381" stroke="#C6CDCF" stroke-width="0.334259" stroke-miterlimit="10"/>
<path d="M673.959 228.385C673.949 228.27 673.908 228.16 673.841 228.066C673.775 227.972 673.684 227.897 673.579 227.849C673.293 227.705 672.977 227.63 672.657 227.63C672.336 227.63 672.02 227.705 671.734 227.849L669.335 229.235C669.222 229.272 669.125 229.344 669.056 229.439C668.986 229.535 668.949 229.65 668.949 229.769C668.949 229.887 668.986 230.002 669.056 230.098C669.125 230.193 669.222 230.265 669.335 230.302C669.621 230.446 669.937 230.521 670.257 230.521C670.578 230.521 670.894 230.446 671.18 230.302L673.579 228.916C673.684 228.869 673.774 228.795 673.84 228.701C673.907 228.608 673.948 228.499 673.959 228.385Z" fill="#C6CDCF"/>
<path d="M673.958 228.385C673.948 228.27 673.907 228.16 673.841 228.066C673.774 227.972 673.684 227.897 673.579 227.849C673.292 227.705 672.977 227.63 672.656 227.63C672.336 227.63 672.02 227.705 671.733 227.849L669.334 229.235C669.229 229.283 669.138 229.358 669.072 229.452C669.005 229.546 668.965 229.656 668.954 229.77" stroke="#C6CDCF" stroke-width="0.334259" stroke-miterlimit="10"/>
<path d="M668.936 229.767C668.947 229.881 668.988 229.99 669.054 230.083C669.121 230.177 669.211 230.251 669.315 230.298C669.601 230.442 669.917 230.518 670.238 230.518C670.558 230.518 670.874 230.442 671.16 230.298L673.56 228.912C673.665 228.865 673.755 228.791 673.821 228.698C673.888 228.604 673.929 228.495 673.94 228.381" stroke="#C6CDCF" stroke-width="0.334259" stroke-miterlimit="10"/>
<path d="M544.414 233.917L601.04 266.611" stroke="#C6CDCF" stroke-width="0.334259" stroke-miterlimit="10"/>
<path d="M544.414 233.917L601.04 266.611" stroke="#C6CDCF" stroke-width="0.334259" stroke-miterlimit="10"/>
<path d="M640.395 247.749C640.385 247.863 640.345 247.973 640.278 248.067C640.211 248.16 640.121 248.234 640.015 248.28L637.616 249.666C637.33 249.812 637.014 249.888 636.693 249.888C636.372 249.888 636.056 249.812 635.77 249.666C635.665 249.62 635.574 249.546 635.507 249.452C635.44 249.359 635.4 249.249 635.391 249.134C635.4 249.249 635.44 249.359 635.507 249.452C635.574 249.546 635.665 249.62 635.77 249.666C636.056 249.812 636.372 249.888 636.693 249.888C637.014 249.888 637.33 249.812 637.616 249.666L640.015 248.28C640.121 248.234 640.211 248.16 640.278 248.067C640.345 247.973 640.385 247.863 640.395 247.749Z" fill="#C6CDCF"/>
<path d="M635.387 249.142C635.396 249.257 635.437 249.366 635.503 249.46C635.57 249.554 635.661 249.627 635.766 249.674C636.052 249.819 636.368 249.896 636.689 249.896C637.01 249.896 637.326 249.819 637.612 249.674L640.011 248.288C640.117 248.242 640.207 248.168 640.274 248.074C640.341 247.981 640.381 247.871 640.391 247.756" stroke="#C6CDCF" stroke-width="0.334259" stroke-miterlimit="10"/>
<path d="M640.395 247.749C640.385 247.634 640.345 247.524 640.278 247.43C640.211 247.337 640.121 247.263 640.015 247.217C639.73 247.071 639.413 246.995 639.093 246.995C638.772 246.995 638.456 247.071 638.17 247.217L635.77 248.603C635.66 248.641 635.563 248.712 635.495 248.808C635.427 248.903 635.391 249.017 635.391 249.134C635.391 249.251 635.427 249.366 635.495 249.461C635.563 249.556 635.66 249.628 635.77 249.666C636.056 249.812 636.372 249.888 636.693 249.888C637.014 249.888 637.33 249.812 637.616 249.666L640.015 248.28C640.121 248.234 640.211 248.16 640.278 248.067C640.345 247.973 640.385 247.863 640.395 247.749Z" fill="#C6CDCF"/>
<path d="M640.395 247.749C640.385 247.634 640.345 247.524 640.278 247.43C640.211 247.337 640.121 247.263 640.015 247.217C639.73 247.071 639.413 246.995 639.093 246.995C638.772 246.995 638.456 247.071 638.17 247.217L635.77 248.603C635.665 248.649 635.574 248.723 635.507 248.816C635.44 248.91 635.4 249.02 635.391 249.134" stroke="#C6CDCF" stroke-width="0.334259" stroke-miterlimit="10"/>
<path d="M635.387 249.142C635.396 249.257 635.437 249.366 635.503 249.46C635.57 249.554 635.661 249.627 635.766 249.674C636.052 249.819 636.368 249.896 636.689 249.896C637.01 249.896 637.326 249.819 637.612 249.674L640.011 248.288C640.117 248.242 640.207 248.168 640.274 248.074C640.341 247.981 640.381 247.871 640.391 247.756" stroke="#C6CDCF" stroke-width="0.334259" stroke-miterlimit="10"/>
<path d="M510.258 253.637L566.888 286.332" stroke="#C6CDCF" stroke-width="0.334259" stroke-miterlimit="10"/>
<path d="M510.258 253.637L566.888 286.332" stroke="#C6CDCF" stroke-width="0.334259" stroke-miterlimit="10"/>
<path d="M506.856 256.553C506.848 256.644 506.816 256.731 506.763 256.805C506.711 256.879 506.639 256.938 506.556 256.975L504.658 258.057C504.435 258.171 504.187 258.231 503.936 258.231C503.686 258.231 503.438 258.171 503.215 258.057C503.132 258.022 503.061 257.964 503.008 257.892C502.955 257.819 502.923 257.733 502.915 257.643C502.923 257.733 502.955 257.819 503.008 257.892C503.061 257.964 503.132 258.022 503.215 258.057C503.438 258.171 503.686 258.231 503.936 258.231C504.187 258.231 504.435 258.171 504.658 258.057L506.556 256.975C506.639 256.938 506.711 256.879 506.763 256.805C506.816 256.731 506.848 256.644 506.856 256.553Z" fill="#C6CDCF"/>
<path d="M502.934 257.643C502.941 257.733 502.974 257.819 503.026 257.892C503.079 257.964 503.151 258.022 503.234 258.057C503.457 258.171 503.704 258.231 503.955 258.231C504.206 258.231 504.453 258.171 504.676 258.057L506.575 256.975C506.658 256.938 506.729 256.879 506.782 256.805C506.835 256.731 506.867 256.644 506.875 256.553" stroke="#C6CDCF" stroke-width="0.334259" stroke-miterlimit="10"/>
<path d="M506.856 256.553C506.847 256.464 506.814 256.379 506.761 256.306C506.709 256.234 506.638 256.176 506.556 256.14C506.332 256.025 506.084 255.966 505.833 255.966C505.581 255.966 505.334 256.025 505.11 256.14L503.234 257.241C503.146 257.269 503.069 257.324 503.015 257.399C502.96 257.474 502.931 257.564 502.931 257.656C502.931 257.749 502.96 257.839 503.015 257.914C503.069 257.988 503.146 258.044 503.234 258.072C503.457 258.186 503.704 258.246 503.955 258.246C504.206 258.246 504.453 258.186 504.677 258.072L506.575 256.99C506.657 256.949 506.726 256.887 506.775 256.81C506.824 256.733 506.852 256.645 506.856 256.553Z" fill="#C6CDCF"/>
<path d="M506.856 256.553C506.846 256.464 506.814 256.379 506.761 256.306C506.708 256.234 506.638 256.176 506.556 256.14C506.332 256.025 506.084 255.966 505.832 255.966C505.581 255.966 505.333 256.025 505.109 256.14L503.234 257.241C503.151 257.277 503.079 257.335 503.026 257.408C502.974 257.482 502.942 257.568 502.934 257.658" stroke="#C6CDCF" stroke-width="0.334259" stroke-miterlimit="10"/>
<path d="M502.934 257.643C502.941 257.733 502.974 257.819 503.026 257.892C503.079 257.964 503.151 258.022 503.234 258.057C503.457 258.171 503.704 258.231 503.955 258.231C504.206 258.231 504.453 258.171 504.676 258.057L506.575 256.975C506.658 256.938 506.729 256.879 506.782 256.805C506.835 256.731 506.867 256.644 506.875 256.553" stroke="#C6CDCF" stroke-width="0.334259" stroke-miterlimit="10"/>
<path d="M511.682 259.344C511.674 259.434 511.643 259.52 511.591 259.593C511.539 259.667 511.468 259.725 511.386 259.762L509.506 260.848C509.282 260.96 509.034 261.018 508.783 261.018C508.532 261.018 508.284 260.96 508.06 260.848C507.978 260.81 507.907 260.752 507.855 260.679C507.803 260.605 507.772 260.519 507.764 260.43C507.772 260.519 507.803 260.605 507.855 260.679C507.907 260.752 507.978 260.81 508.06 260.848C508.284 260.96 508.532 261.018 508.783 261.018C509.034 261.018 509.282 260.96 509.506 260.848L511.386 259.762C511.468 259.725 511.539 259.667 511.591 259.593C511.643 259.52 511.674 259.434 511.682 259.344Z" fill="#C6CDCF"/>
<path d="M507.764 260.43C507.772 260.519 507.803 260.605 507.855 260.679C507.907 260.752 507.978 260.81 508.06 260.848C508.284 260.96 508.532 261.018 508.783 261.018C509.034 261.018 509.282 260.96 509.506 260.848L511.386 259.762C511.468 259.725 511.539 259.667 511.591 259.593C511.643 259.52 511.674 259.434 511.682 259.344" stroke="#C6CDCF" stroke-width="0.334259" stroke-miterlimit="10"/>
<path d="M511.682 259.344C511.674 259.255 511.642 259.169 511.59 259.095C511.538 259.022 511.468 258.964 511.386 258.927C511.161 258.814 510.914 258.756 510.663 258.756C510.412 258.756 510.164 258.814 509.939 258.927L508.041 260.012C507.955 260.044 507.881 260.1 507.829 260.175C507.776 260.25 507.748 260.339 507.748 260.43C507.748 260.521 507.776 260.61 507.829 260.685C507.881 260.76 507.955 260.817 508.041 260.848C508.266 260.96 508.513 261.019 508.764 261.019C509.015 261.019 509.263 260.96 509.488 260.848L511.367 259.762C511.453 259.728 511.527 259.671 511.583 259.597C511.638 259.523 511.673 259.436 511.682 259.344Z" fill="#C6CDCF"/>
<path d="M511.681 259.344C511.673 259.255 511.642 259.169 511.59 259.095C511.538 259.022 511.467 258.964 511.385 258.927C511.161 258.814 510.913 258.756 510.662 258.756C510.411 258.756 510.163 258.814 509.939 258.927L508.04 260.012C507.958 260.049 507.887 260.108 507.835 260.181C507.783 260.254 507.752 260.34 507.744 260.43" stroke="#C6CDCF" stroke-width="0.334259" stroke-miterlimit="10"/>
<path d="M507.764 260.43C507.772 260.519 507.803 260.605 507.855 260.679C507.907 260.752 507.978 260.81 508.06 260.848C508.284 260.96 508.532 261.018 508.783 261.018C509.034 261.018 509.282 260.96 509.506 260.848L511.386 259.762C511.468 259.725 511.539 259.667 511.591 259.593C511.643 259.52 511.674 259.434 511.682 259.344" stroke="#C6CDCF" stroke-width="0.334259" stroke-miterlimit="10"/>
<path d="M516.511 262.131C516.503 262.221 516.471 262.307 516.418 262.381C516.365 262.454 516.294 262.512 516.211 262.549L514.335 263.634C514.111 263.747 513.863 263.805 513.612 263.805C513.361 263.805 513.113 263.747 512.889 263.634C512.806 263.597 512.735 263.539 512.683 263.466C512.63 263.393 512.598 263.307 512.589 263.217C512.598 263.307 512.63 263.393 512.683 263.466C512.735 263.539 512.806 263.597 512.889 263.634C513.113 263.747 513.361 263.805 513.612 263.805C513.863 263.805 514.111 263.747 514.335 263.634L516.211 262.549C516.294 262.512 516.365 262.454 516.418 262.381C516.471 262.307 516.503 262.221 516.511 262.131Z" fill="#C6CDCF"/>
<path d="M512.589 263.217C512.598 263.307 512.63 263.393 512.683 263.466C512.735 263.539 512.806 263.597 512.889 263.634C513.113 263.747 513.361 263.805 513.612 263.805C513.863 263.805 514.111 263.747 514.335 263.634L516.211 262.549C516.294 262.512 516.365 262.454 516.418 262.381C516.471 262.307 516.503 262.221 516.511 262.131" stroke="#C6CDCF" stroke-width="0.334259" stroke-miterlimit="10"/>
<path d="M516.511 262.131C516.503 262.041 516.471 261.955 516.418 261.882C516.365 261.808 516.294 261.75 516.211 261.713C515.987 261.601 515.74 261.543 515.49 261.543C515.239 261.543 514.992 261.601 514.768 261.713L512.87 262.799C512.782 262.829 512.706 262.885 512.652 262.96C512.598 263.035 512.569 263.125 512.569 263.217C512.569 263.309 512.598 263.399 512.652 263.474C512.706 263.549 512.782 263.605 512.87 263.635C513.095 263.747 513.342 263.805 513.593 263.805C513.844 263.805 514.092 263.747 514.317 263.635L516.192 262.549C516.279 262.515 516.354 262.458 516.41 262.385C516.467 262.311 516.501 262.223 516.511 262.131Z" fill="#C6CDCF"/>
<path d="M516.511 262.131C516.503 262.041 516.471 261.955 516.418 261.882C516.365 261.808 516.294 261.75 516.211 261.713C515.988 261.601 515.741 261.543 515.49 261.543C515.24 261.543 514.993 261.601 514.769 261.713L512.87 262.799C512.788 262.836 512.716 262.894 512.664 262.967C512.611 263.041 512.579 263.127 512.57 263.217" stroke="#C6CDCF" stroke-width="0.334259" stroke-miterlimit="10"/>
<path d="M512.589 263.217C512.598 263.307 512.63 263.393 512.683 263.466C512.735 263.539 512.806 263.597 512.889 263.634C513.113 263.747 513.361 263.805 513.612 263.805C513.863 263.805 514.111 263.747 514.335 263.634L516.211 262.549C516.294 262.512 516.365 262.454 516.418 262.381C516.471 262.307 516.503 262.221 516.511 262.131" stroke="#C6CDCF" stroke-width="0.334259" stroke-miterlimit="10"/>
<path d="M521.341 264.918C521.333 265.008 521.3 265.094 521.248 265.168C521.195 265.241 521.123 265.299 521.041 265.335L519.142 266.421C518.919 266.536 518.672 266.595 518.421 266.595C518.17 266.595 517.923 266.536 517.699 266.421C517.617 266.386 517.545 266.328 517.493 266.255C517.44 266.183 517.408 266.097 517.399 266.007C517.408 266.097 517.44 266.183 517.493 266.255C517.545 266.328 517.617 266.386 517.699 266.421C517.923 266.536 518.17 266.595 518.421 266.595C518.672 266.595 518.919 266.536 519.142 266.421L521.041 265.335C521.123 265.299 521.195 265.241 521.248 265.168C521.3 265.094 521.333 265.008 521.341 264.918Z" fill="#C6CDCF"/>
<path d="M517.419 266.007C517.427 266.097 517.459 266.183 517.512 266.255C517.565 266.328 517.636 266.386 517.719 266.421C517.942 266.536 518.189 266.595 518.44 266.595C518.691 266.595 518.938 266.536 519.162 266.421L521.06 265.335C521.143 265.299 521.214 265.241 521.267 265.168C521.32 265.094 521.352 265.008 521.36 264.918" stroke="#C6CDCF" stroke-width="0.334259" stroke-miterlimit="10"/>
<path d="M521.341 264.918C521.332 264.828 521.3 264.743 521.247 264.67C521.195 264.597 521.123 264.54 521.041 264.504C520.817 264.39 520.569 264.33 520.318 264.33C520.066 264.33 519.818 264.39 519.595 264.504L517.719 265.594C517.636 265.631 517.565 265.69 517.512 265.764C517.459 265.838 517.427 265.925 517.419 266.015C517.427 266.105 517.459 266.19 517.512 266.263C517.565 266.336 517.636 266.393 517.719 266.429C517.942 266.543 518.189 266.603 518.44 266.603C518.691 266.603 518.938 266.543 519.162 266.429L521.06 265.343C521.14 265.304 521.209 265.243 521.258 265.169C521.308 265.094 521.336 265.007 521.341 264.918Z" fill="#C6CDCF"/>
<path d="M521.341 264.918C521.332 264.828 521.3 264.743 521.247 264.67C521.195 264.597 521.123 264.54 521.041 264.504C520.817 264.39 520.569 264.33 520.318 264.33C520.066 264.33 519.818 264.39 519.595 264.504L517.719 265.594C517.636 265.631 517.565 265.69 517.512 265.764C517.459 265.838 517.427 265.925 517.419 266.015" stroke="#C6CDCF" stroke-width="0.334259" stroke-miterlimit="10"/>
<path d="M517.419 266.007C517.427 266.097 517.459 266.183 517.512 266.255C517.565 266.328 517.636 266.386 517.719 266.421C517.942 266.536 518.189 266.595 518.44 266.595C518.691 266.595 518.938 266.536 519.162 266.421L521.06 265.335C521.143 265.299 521.214 265.241 521.267 265.168C521.32 265.094 521.352 265.008 521.36 264.918" stroke="#C6CDCF" stroke-width="0.334259" stroke-miterlimit="10"/>
<path d="M606.242 267.492C606.231 267.606 606.19 267.715 606.124 267.809C606.057 267.902 605.967 267.976 605.863 268.024L603.459 269.391C603.173 269.535 602.857 269.61 602.537 269.61C602.216 269.61 601.9 269.535 601.614 269.391C601.51 269.343 601.42 269.269 601.353 269.176C601.286 269.082 601.245 268.973 601.234 268.859C601.245 268.973 601.286 269.082 601.353 269.176C601.42 269.269 601.51 269.343 601.614 269.391C601.9 269.535 602.216 269.61 602.537 269.61C602.857 269.61 603.173 269.535 603.459 269.391L605.859 268.005C605.963 267.957 606.053 267.883 606.12 267.79C606.187 267.696 606.228 267.587 606.239 267.473L606.242 267.492Z" fill="#C6CDCF"/>
<path d="M601.23 268.863C601.242 268.977 601.282 269.086 601.349 269.179C601.416 269.273 601.506 269.347 601.61 269.394C601.896 269.538 602.212 269.614 602.533 269.614C602.853 269.614 603.169 269.538 603.455 269.394L605.855 268.008C605.959 267.961 606.049 267.887 606.116 267.793C606.183 267.7 606.224 267.591 606.235 267.477" stroke="#C6CDCF" stroke-width="0.334259" stroke-miterlimit="10"/>
<path d="M606.242 267.492C606.232 267.377 606.191 267.267 606.125 267.173C606.058 267.079 605.968 267.005 605.863 266.957C605.576 266.813 605.26 266.738 604.94 266.738C604.62 266.738 604.304 266.813 604.017 266.957L601.618 268.343C601.506 268.38 601.408 268.451 601.339 268.547C601.27 268.643 601.232 268.758 601.232 268.876C601.232 268.994 601.27 269.109 601.339 269.205C601.408 269.301 601.506 269.373 601.618 269.41C601.904 269.554 602.22 269.629 602.54 269.629C602.861 269.629 603.177 269.554 603.463 269.41L605.863 268.024C605.967 267.976 606.057 267.902 606.124 267.809C606.19 267.716 606.231 267.606 606.242 267.492Z" fill="#C6CDCF"/>
<path d="M606.242 267.492C606.231 267.377 606.191 267.267 606.124 267.173C606.057 267.079 605.967 267.005 605.862 266.957C605.576 266.813 605.26 266.738 604.939 266.738C604.619 266.738 604.303 266.813 604.017 266.957L601.617 268.343C601.512 268.391 601.422 268.465 601.355 268.559C601.288 268.653 601.248 268.763 601.237 268.878" stroke="#C6CDCF" stroke-width="0.334259" stroke-miterlimit="10"/>
<path d="M601.23 268.863C601.242 268.977 601.282 269.086 601.349 269.179C601.416 269.273 601.506 269.347 601.61 269.394C601.896 269.538 602.212 269.614 602.533 269.614C602.853 269.614 603.169 269.538 603.455 269.394L605.855 268.008C605.959 267.961 606.049 267.887 606.116 267.793C606.183 267.7 606.224 267.591 606.235 267.477" stroke="#C6CDCF" stroke-width="0.334259" stroke-miterlimit="10"/>
<path d="M526.175 267.705C526.166 267.795 526.135 267.881 526.083 267.955C526.031 268.029 525.96 268.088 525.878 268.126L523.98 269.208C523.756 269.323 523.508 269.382 523.257 269.382C523.005 269.382 522.757 269.323 522.533 269.208C522.452 269.172 522.381 269.114 522.329 269.041C522.277 268.969 522.246 268.884 522.237 268.795C522.246 268.884 522.277 268.969 522.329 269.041C522.381 269.114 522.452 269.172 522.533 269.208C522.757 269.323 523.005 269.382 523.257 269.382C523.508 269.382 523.756 269.323 523.98 269.208L525.878 268.126C525.96 268.088 526.031 268.029 526.083 267.955C526.135 267.881 526.166 267.795 526.175 267.705Z" fill="#C6CDCF"/>
<path d="M522.249 268.795C522.257 268.884 522.289 268.969 522.341 269.041C522.393 269.114 522.464 269.172 522.545 269.208C522.769 269.323 523.017 269.382 523.268 269.382C523.52 269.382 523.768 269.323 523.992 269.208L525.89 268.126C525.972 268.088 526.043 268.029 526.095 267.955C526.147 267.881 526.178 267.795 526.186 267.705" stroke="#C6CDCF" stroke-width="0.334259" stroke-miterlimit="10"/>
<path d="M526.174 267.705C526.166 267.616 526.134 267.53 526.082 267.458C526.03 267.385 525.96 267.327 525.878 267.291C525.654 267.177 525.406 267.117 525.155 267.117C524.903 267.117 524.655 267.177 524.431 267.291L522.552 268.373C522.47 268.411 522.4 268.47 522.348 268.544C522.296 268.618 522.264 268.704 522.256 268.794C522.264 268.883 522.296 268.969 522.348 269.041C522.4 269.114 522.47 269.172 522.552 269.208C522.776 269.323 523.024 269.382 523.275 269.382C523.527 269.382 523.775 269.323 523.999 269.208L525.897 268.126C525.975 268.085 526.042 268.025 526.091 267.952C526.139 267.878 526.168 267.793 526.174 267.705Z" fill="#C6CDCF"/>
<path d="M526.174 267.705C526.166 267.616 526.134 267.53 526.082 267.458C526.03 267.385 525.96 267.327 525.878 267.291C525.654 267.177 525.406 267.117 525.155 267.117C524.903 267.117 524.655 267.177 524.431 267.291L522.552 268.373C522.47 268.411 522.4 268.47 522.348 268.544C522.296 268.618 522.264 268.704 522.256 268.794" stroke="#C6CDCF" stroke-width="0.334259" stroke-miterlimit="10"/>
<path d="M522.249 268.795C522.257 268.884 522.289 268.969 522.341 269.041C522.393 269.114 522.464 269.172 522.545 269.208C522.769 269.323 523.017 269.382 523.268 269.382C523.52 269.382 523.768 269.323 523.992 269.208L525.89 268.126C525.972 268.088 526.043 268.029 526.095 267.955C526.147 267.881 526.178 267.795 526.186 267.705" stroke="#C6CDCF" stroke-width="0.334259" stroke-miterlimit="10"/>
<path d="M530.997 270.492C530.989 270.582 530.956 270.669 530.904 270.743C530.851 270.817 530.78 270.876 530.697 270.913L528.832 271.995C528.609 272.11 528.361 272.169 528.109 272.169C527.858 272.169 527.61 272.11 527.386 271.995C527.304 271.959 527.232 271.902 527.18 271.829C527.127 271.756 527.095 271.671 527.086 271.581C527.095 271.671 527.127 271.756 527.18 271.829C527.232 271.902 527.304 271.959 527.386 271.995C527.61 272.11 527.858 272.169 528.109 272.169C528.361 272.169 528.609 272.11 528.832 271.995L530.708 270.913C530.791 270.876 530.862 270.817 530.915 270.743C530.968 270.669 531 270.582 531.008 270.492H530.997Z" fill="#C6CDCF"/>
<path d="M527.074 271.581C527.083 271.671 527.115 271.756 527.168 271.829C527.221 271.902 527.292 271.959 527.374 271.995C527.598 272.11 527.846 272.169 528.097 272.169C528.349 272.169 528.597 272.11 528.821 271.995L530.696 270.913C530.779 270.876 530.851 270.817 530.903 270.743C530.956 270.669 530.988 270.582 530.996 270.492" stroke="#C6CDCF" stroke-width="0.334259" stroke-miterlimit="10"/>
<path d="M530.996 270.492C530.988 270.402 530.956 270.317 530.903 270.244C530.85 270.171 530.779 270.114 530.696 270.078C530.473 269.964 530.226 269.904 529.975 269.904C529.724 269.904 529.477 269.964 529.253 270.078L527.355 271.164C527.267 271.192 527.19 271.248 527.136 271.322C527.081 271.397 527.052 271.487 527.052 271.58C527.052 271.672 527.081 271.762 527.136 271.837C527.19 271.912 527.267 271.967 527.355 271.995C527.579 272.11 527.827 272.169 528.078 272.169C528.33 272.169 528.578 272.11 528.802 271.995L530.677 270.913C530.764 270.879 530.839 270.821 530.895 270.747C530.951 270.673 530.986 270.584 530.996 270.492Z" fill="#C6CDCF"/>
<path d="M530.996 270.492C530.988 270.402 530.955 270.317 530.903 270.244C530.85 270.171 530.778 270.114 530.696 270.078C530.473 269.964 530.225 269.904 529.974 269.904C529.724 269.904 529.476 269.964 529.253 270.078L527.355 271.164C527.272 271.2 527.2 271.258 527.148 271.332C527.095 271.405 527.063 271.491 527.055 271.582" stroke="#C6CDCF" stroke-width="0.334259" stroke-miterlimit="10"/>
<path d="M527.074 271.581C527.083 271.671 527.115 271.756 527.168 271.829C527.221 271.902 527.292 271.959 527.374 271.995C527.598 272.11 527.846 272.169 528.097 272.169C528.349 272.169 528.597 272.11 528.821 271.995L530.696 270.913C530.779 270.876 530.851 270.817 530.903 270.743C530.956 270.669 530.988 270.582 530.996 270.492" stroke="#C6CDCF" stroke-width="0.334259" stroke-miterlimit="10"/>
<path d="M535.826 273.282C535.818 273.372 535.786 273.459 535.733 273.532C535.68 273.606 535.609 273.664 535.526 273.7L533.628 274.786C533.404 274.898 533.157 274.956 532.906 274.956C532.656 274.956 532.409 274.898 532.185 274.786C532.102 274.749 532.031 274.691 531.978 274.618C531.925 274.544 531.893 274.458 531.885 274.368C531.893 274.458 531.925 274.544 531.978 274.618C532.031 274.691 532.102 274.749 532.185 274.786C532.409 274.898 532.656 274.956 532.906 274.956C533.157 274.956 533.404 274.898 533.628 274.786L535.526 273.7C535.609 273.664 535.68 273.606 535.733 273.532C535.786 273.459 535.818 273.372 535.826 273.282Z" fill="#C6CDCF"/>
<path d="M531.904 274.368C531.913 274.458 531.945 274.544 531.998 274.618C532.05 274.691 532.122 274.749 532.204 274.786C532.428 274.898 532.675 274.956 532.926 274.956C533.176 274.956 533.423 274.898 533.647 274.786L535.545 273.7C535.628 273.664 535.7 273.606 535.753 273.532C535.805 273.459 535.837 273.372 535.845 273.282" stroke="#C6CDCF" stroke-width="0.334259" stroke-miterlimit="10"/>
<path d="M535.826 273.282C535.817 273.193 535.785 273.107 535.732 273.033C535.68 272.96 535.609 272.902 535.526 272.865C535.302 272.753 535.054 272.694 534.803 272.694C534.552 272.694 534.304 272.753 534.08 272.865L532.204 273.947C532.116 273.976 532.04 274.032 531.986 274.107C531.932 274.182 531.903 274.272 531.903 274.365C531.903 274.457 531.932 274.547 531.986 274.622C532.04 274.697 532.116 274.753 532.204 274.782C532.428 274.894 532.675 274.953 532.925 274.953C533.176 274.953 533.423 274.894 533.647 274.782L535.545 273.696C535.624 273.658 535.691 273.599 535.74 273.527C535.79 273.454 535.819 273.37 535.826 273.282Z" fill="#C6CDCF"/>
<path d="M535.826 273.282C535.818 273.193 535.785 273.107 535.733 273.033C535.68 272.96 535.609 272.902 535.526 272.865C535.302 272.753 535.054 272.694 534.803 272.694C534.552 272.694 534.304 272.753 534.08 272.865L532.204 273.947C532.121 273.983 532.05 274.041 531.997 274.115C531.944 274.188 531.912 274.274 531.904 274.365" stroke="#C6CDCF" stroke-width="0.334259" stroke-miterlimit="10"/>
<path d="M531.904 274.368C531.913 274.458 531.945 274.544 531.998 274.618C532.05 274.691 532.122 274.749 532.204 274.786C532.428 274.898 532.675 274.956 532.926 274.956C533.176 274.956 533.423 274.898 533.647 274.786L535.545 273.7C535.628 273.664 535.7 273.606 535.753 273.532C535.805 273.459 535.837 273.372 535.845 273.282" stroke="#C6CDCF" stroke-width="0.334259" stroke-miterlimit="10"/>
<path d="M540.651 276.069C540.644 276.159 540.612 276.245 540.56 276.318C540.508 276.392 540.437 276.45 540.355 276.487L538.457 277.573C538.232 277.685 537.984 277.744 537.733 277.744C537.482 277.744 537.235 277.685 537.01 277.573C536.928 277.536 536.857 277.478 536.805 277.404C536.753 277.331 536.722 277.245 536.714 277.155C536.722 277.245 536.753 277.331 536.805 277.404C536.857 277.478 536.928 277.536 537.01 277.573C537.235 277.685 537.482 277.744 537.733 277.744C537.984 277.744 538.232 277.685 538.457 277.573L540.355 276.487C540.437 276.45 540.508 276.392 540.56 276.318C540.612 276.245 540.644 276.159 540.651 276.069Z" fill="#C6CDCF"/>
<path d="M536.733 277.155C536.741 277.245 536.773 277.331 536.825 277.404C536.877 277.478 536.947 277.536 537.03 277.573C537.254 277.685 537.502 277.744 537.753 277.744C538.004 277.744 538.252 277.685 538.476 277.573L540.375 276.487C540.457 276.45 540.527 276.392 540.58 276.318C540.632 276.245 540.663 276.159 540.671 276.069" stroke="#C6CDCF" stroke-width="0.334259" stroke-miterlimit="10"/>
<path d="M540.651 276.069C540.643 275.98 540.612 275.894 540.56 275.82C540.508 275.747 540.437 275.689 540.355 275.651C540.131 275.539 539.883 275.481 539.632 275.481C539.381 275.481 539.133 275.539 538.909 275.651L537.029 276.737C536.943 276.768 536.869 276.825 536.817 276.9C536.764 276.975 536.736 277.064 536.736 277.155C536.736 277.246 536.764 277.335 536.817 277.41C536.869 277.485 536.943 277.542 537.029 277.573C537.254 277.685 537.501 277.743 537.753 277.743C538.004 277.743 538.251 277.685 538.476 277.573L540.374 276.487C540.453 276.447 540.52 276.388 540.568 276.315C540.617 276.241 540.646 276.157 540.651 276.069Z" fill="#C6CDCF"/>
<path d="M540.652 276.069C540.644 275.98 540.612 275.894 540.56 275.82C540.508 275.747 540.437 275.689 540.356 275.651C540.131 275.539 539.883 275.481 539.632 275.481C539.381 275.481 539.134 275.539 538.909 275.651L537.03 276.737C536.947 276.774 536.877 276.832 536.825 276.906C536.773 276.979 536.741 277.065 536.733 277.155" stroke="#C6CDCF" stroke-width="0.334259" stroke-miterlimit="10"/>
<path d="M536.733 277.155C536.741 277.245 536.773 277.331 536.825 277.404C536.877 277.478 536.947 277.536 537.03 277.573C537.254 277.685 537.502 277.744 537.753 277.744C538.004 277.744 538.252 277.685 538.476 277.573L540.375 276.487C540.457 276.45 540.527 276.392 540.58 276.318C540.632 276.245 540.663 276.159 540.671 276.069" stroke="#C6CDCF" stroke-width="0.334259" stroke-miterlimit="10"/>
<path d="M545.482 278.856C545.474 278.946 545.442 279.033 545.389 279.106C545.336 279.18 545.265 279.237 545.182 279.274L543.306 280.36C543.082 280.474 542.834 280.534 542.583 280.534C542.331 280.534 542.083 280.474 541.86 280.36C541.778 280.323 541.707 280.266 541.654 280.193C541.602 280.12 541.569 280.035 541.56 279.946C541.569 280.035 541.602 280.12 541.654 280.193C541.707 280.266 541.778 280.323 541.86 280.36C542.083 280.474 542.331 280.534 542.583 280.534C542.834 280.534 543.082 280.474 543.306 280.36L545.182 279.274C545.265 279.237 545.336 279.18 545.389 279.106C545.442 279.033 545.474 278.946 545.482 278.856Z" fill="#C6CDCF"/>
<path d="M541.56 279.946C541.569 280.035 541.602 280.12 541.654 280.193C541.707 280.266 541.778 280.323 541.86 280.36C542.083 280.474 542.331 280.534 542.583 280.534C542.834 280.534 543.082 280.474 543.306 280.36L545.182 279.274C545.265 279.237 545.336 279.18 545.389 279.106C545.442 279.033 545.474 278.946 545.482 278.856" stroke="#C6CDCF" stroke-width="0.334259" stroke-miterlimit="10"/>
<path d="M545.482 278.856C545.474 278.766 545.442 278.681 545.389 278.608C545.336 278.535 545.265 278.478 545.182 278.442C544.959 278.328 544.711 278.268 544.46 278.268C544.21 278.268 543.962 278.328 543.739 278.442L541.841 279.524C541.753 279.554 541.677 279.61 541.623 279.685C541.569 279.76 541.54 279.85 541.54 279.942C541.54 280.034 541.569 280.124 541.623 280.199C541.677 280.274 541.753 280.33 541.841 280.36C542.065 280.474 542.312 280.534 542.564 280.534C542.815 280.534 543.063 280.474 543.287 280.36L545.163 279.274C545.249 279.24 545.325 279.183 545.381 279.11C545.437 279.036 545.472 278.948 545.482 278.856Z" fill="#C6CDCF"/>
<path d="M545.481 278.856C545.473 278.766 545.441 278.681 545.388 278.608C545.336 278.535 545.264 278.478 545.181 278.442C544.958 278.328 544.711 278.268 544.46 278.268C544.209 278.268 543.962 278.328 543.738 278.442L541.84 279.524C541.757 279.562 541.686 279.62 541.633 279.694C541.58 279.768 541.548 279.855 541.54 279.946" stroke="#C6CDCF" stroke-width="0.334259" stroke-miterlimit="10"/>
<path d="M541.56 279.946C541.569 280.035 541.602 280.12 541.654 280.193C541.707 280.266 541.778 280.323 541.86 280.36C542.083 280.474 542.331 280.534 542.583 280.534C542.834 280.534 543.082 280.474 543.306 280.36L545.182 279.274C545.265 279.237 545.336 279.18 545.389 279.106C545.442 279.033 545.474 278.946 545.482 278.856" stroke="#C6CDCF" stroke-width="0.334259" stroke-miterlimit="10"/>
<path d="M550.311 281.643C550.303 281.734 550.271 281.82 550.218 281.894C550.165 281.968 550.094 282.027 550.011 282.065L548.131 283.147C547.908 283.261 547.661 283.321 547.41 283.321C547.159 283.321 546.912 283.261 546.689 283.147C546.606 283.111 546.535 283.054 546.482 282.981C546.429 282.908 546.397 282.822 546.389 282.733C546.397 282.822 546.429 282.908 546.482 282.981C546.535 283.054 546.606 283.111 546.689 283.147C546.912 283.261 547.159 283.321 547.41 283.321C547.661 283.321 547.908 283.261 548.131 283.147L550.011 282.065C550.094 282.027 550.165 281.968 550.218 281.894C550.271 281.82 550.303 281.734 550.311 281.643Z" fill="#C6CDCF"/>
<path d="M546.389 282.733C546.397 282.822 546.429 282.908 546.482 282.981C546.535 283.054 546.606 283.111 546.689 283.147C546.912 283.261 547.159 283.321 547.41 283.321C547.661 283.321 547.908 283.261 548.131 283.147L550.011 282.065C550.094 282.027 550.165 281.968 550.218 281.894C550.271 281.82 550.303 281.734 550.311 281.643" stroke="#C6CDCF" stroke-width="0.334259" stroke-miterlimit="10"/>
<path d="M550.311 281.643C550.302 281.554 550.269 281.469 550.217 281.396C550.164 281.323 550.093 281.266 550.012 281.229C549.788 281.115 549.54 281.055 549.288 281.055C549.037 281.055 548.789 281.115 548.565 281.229L546.678 282.3C546.595 282.337 546.524 282.396 546.471 282.47C546.418 282.544 546.386 282.631 546.378 282.721C546.386 282.811 546.418 282.896 546.471 282.969C546.524 283.042 546.595 283.099 546.678 283.135C546.901 283.249 547.148 283.309 547.399 283.309C547.65 283.309 547.897 283.249 548.121 283.135L550 282.053C550.084 282.018 550.156 281.962 550.211 281.89C550.266 281.818 550.3 281.733 550.311 281.643Z" fill="#C6CDCF"/>
<path d="M550.311 281.643C550.302 281.554 550.269 281.469 550.217 281.396C550.164 281.323 550.093 281.266 550.012 281.229C549.788 281.115 549.54 281.055 549.288 281.055C549.037 281.055 548.789 281.115 548.565 281.229L546.678 282.3C546.595 282.337 546.524 282.396 546.471 282.47C546.418 282.544 546.386 282.631 546.378 282.721" stroke="#C6CDCF" stroke-width="0.334259" stroke-miterlimit="10"/>
<path d="M546.389 282.733C546.397 282.822 546.429 282.908 546.482 282.981C546.535 283.054 546.606 283.111 546.689 283.147C546.912 283.261 547.159 283.321 547.41 283.321C547.661 283.321 547.908 283.261 548.131 283.147L550.011 282.065C550.094 282.027 550.165 281.968 550.218 281.894C550.271 281.82 550.303 281.734 550.311 281.643" stroke="#C6CDCF" stroke-width="0.334259" stroke-miterlimit="10"/>
<path d="M555.137 284.43C555.128 284.52 555.097 284.606 555.045 284.68C554.993 284.754 554.922 284.813 554.84 284.851L552.942 285.933C552.718 286.048 552.47 286.107 552.219 286.107C551.967 286.107 551.719 286.048 551.495 285.933C551.414 285.897 551.343 285.84 551.291 285.767C551.239 285.694 551.207 285.609 551.199 285.52C551.207 285.609 551.239 285.694 551.291 285.767C551.343 285.84 551.414 285.897 551.495 285.933C551.719 286.048 551.967 286.107 552.219 286.107C552.47 286.107 552.718 286.048 552.942 285.933L554.84 284.851C554.922 284.813 554.993 284.754 555.045 284.68C555.097 284.606 555.128 284.52 555.137 284.43Z" fill="#C6CDCF"/>
<path d="M551.233 285.52C551.241 285.609 551.273 285.694 551.325 285.767C551.377 285.84 551.448 285.897 551.53 285.933C551.754 286.048 552.001 286.107 552.253 286.107C552.504 286.107 552.752 286.048 552.976 285.933L554.875 284.851C554.957 284.813 555.027 284.754 555.079 284.68C555.131 284.606 555.163 284.52 555.171 284.43" stroke="#C6CDCF" stroke-width="0.334259" stroke-miterlimit="10"/>
<path d="M555.136 284.43C555.128 284.341 555.096 284.256 555.044 284.183C554.992 284.11 554.922 284.053 554.84 284.016C554.616 283.902 554.368 283.842 554.117 283.842C553.866 283.842 553.618 283.902 553.394 284.016L551.495 285.102C551.409 285.132 551.334 285.188 551.281 285.263C551.229 285.337 551.2 285.426 551.2 285.518C551.2 285.609 551.229 285.698 551.281 285.773C551.334 285.847 551.409 285.903 551.495 285.933C551.719 286.048 551.967 286.107 552.219 286.107C552.47 286.107 552.718 286.048 552.942 285.933L554.84 284.851C554.922 284.813 554.993 284.754 555.045 284.68C555.097 284.606 555.128 284.52 555.136 284.43Z" fill="#C6CDCF"/>
<path d="M555.137 284.43C555.128 284.341 555.096 284.256 555.044 284.183C554.992 284.11 554.922 284.053 554.84 284.016C554.616 283.902 554.369 283.842 554.117 283.842C553.866 283.842 553.618 283.902 553.394 284.016L551.495 285.102C551.413 285.139 551.343 285.197 551.29 285.27C551.238 285.344 551.207 285.43 551.199 285.52" stroke="#C6CDCF" stroke-width="0.334259" stroke-miterlimit="10"/>
<path d="M551.233 285.52C551.241 285.609 551.273 285.694 551.325 285.767C551.377 285.84 551.448 285.897 551.53 285.933C551.754 286.048 552.001 286.107 552.253 286.107C552.504 286.107 552.752 286.048 552.976 285.933L554.875 284.851C554.957 284.813 555.027 284.754 555.079 284.68C555.131 284.606 555.163 284.52 555.171 284.43" stroke="#C6CDCF" stroke-width="0.334259" stroke-miterlimit="10"/>
<path d="M572.086 287.194C572.076 287.309 572.036 287.419 571.969 287.513C571.902 287.607 571.812 287.682 571.706 287.729L569.307 289.111C569.021 289.257 568.704 289.334 568.382 289.334C568.061 289.334 567.744 289.257 567.458 289.111C567.352 289.065 567.262 288.992 567.195 288.898C567.128 288.804 567.088 288.695 567.078 288.58C567.088 288.695 567.128 288.804 567.195 288.898C567.262 288.992 567.352 289.065 567.458 289.111C567.744 289.257 568.061 289.334 568.382 289.334C568.704 289.334 569.021 289.257 569.307 289.111L571.706 287.729C571.812 287.682 571.902 287.607 571.969 287.513C572.036 287.419 572.076 287.309 572.086 287.194Z" fill="#C6CDCF"/>
<path d="M567.078 288.58C567.088 288.695 567.128 288.804 567.195 288.898C567.262 288.992 567.352 289.065 567.458 289.111C567.744 289.257 568.061 289.334 568.382 289.334C568.704 289.334 569.021 289.257 569.307 289.111L571.706 287.729C571.812 287.682 571.902 287.607 571.969 287.513C572.036 287.419 572.076 287.309 572.086 287.194" stroke="#C6CDCF" stroke-width="0.334259" stroke-miterlimit="10"/>
<path d="M572.086 287.194C572.076 287.08 572.035 286.97 571.969 286.877C571.902 286.783 571.811 286.709 571.706 286.662C571.42 286.516 571.103 286.44 570.782 286.44C570.461 286.44 570.144 286.516 569.857 286.662L567.458 288.048C567.347 288.086 567.251 288.158 567.183 288.253C567.115 288.348 567.078 288.463 567.078 288.58C567.078 288.697 567.115 288.811 567.183 288.906C567.251 289.002 567.347 289.073 567.458 289.111C567.744 289.257 568.061 289.333 568.382 289.333C568.704 289.333 569.021 289.257 569.307 289.111L571.706 287.729C571.812 287.682 571.902 287.607 571.969 287.513C572.036 287.419 572.076 287.309 572.086 287.194Z" fill="#C6CDCF"/>
<path d="M572.086 287.194C572.076 287.08 572.035 286.97 571.969 286.877C571.902 286.783 571.811 286.709 571.706 286.662C571.42 286.516 571.103 286.44 570.782 286.44C570.461 286.44 570.144 286.516 569.857 286.662L567.458 288.048C567.353 288.095 567.262 288.169 567.196 288.262C567.129 288.356 567.088 288.465 567.078 288.58" stroke="#C6CDCF" stroke-width="0.334259" stroke-miterlimit="10"/>
<path d="M567.078 288.58C567.088 288.695 567.128 288.804 567.195 288.898C567.262 288.992 567.352 289.065 567.458 289.111C567.744 289.257 568.061 289.334 568.382 289.334C568.704 289.334 569.021 289.257 569.307 289.111L571.706 287.729C571.812 287.682 571.902 287.607 571.969 287.513C572.036 287.419 572.076 287.309 572.086 287.194" stroke="#C6CDCF" stroke-width="0.334259" stroke-miterlimit="10"/>
<path d="M559.966 287.236C559.958 287.326 559.925 287.412 559.873 287.485C559.82 287.559 559.749 287.617 559.666 287.653L557.791 288.739C557.566 288.851 557.318 288.91 557.067 288.91C556.816 288.91 556.568 288.851 556.344 288.739C556.262 288.702 556.191 288.644 556.138 288.57C556.086 288.497 556.053 288.411 556.044 288.321C556.053 288.411 556.086 288.497 556.138 288.57C556.191 288.644 556.262 288.702 556.344 288.739C556.568 288.851 556.816 288.91 557.067 288.91C557.318 288.91 557.566 288.851 557.791 288.739L559.666 287.653C559.749 287.617 559.82 287.559 559.873 287.485C559.925 287.412 559.958 287.326 559.966 287.236Z" fill="#C6CDCF"/>
<path d="M556.044 288.306C556.053 288.396 556.086 288.482 556.138 288.555C556.191 288.628 556.262 288.687 556.344 288.724C556.568 288.836 556.816 288.895 557.067 288.895C557.318 288.895 557.566 288.836 557.791 288.724L559.666 287.638C559.747 287.603 559.817 287.547 559.869 287.476C559.922 287.406 559.955 287.323 559.966 287.236" stroke="#C6CDCF" stroke-width="0.334259" stroke-miterlimit="10"/>
<path d="M559.966 287.236C559.958 287.146 559.926 287.059 559.873 286.986C559.82 286.912 559.749 286.855 559.666 286.818C559.442 286.706 559.195 286.647 558.945 286.647C558.694 286.647 558.447 286.706 558.223 286.818L556.344 287.904C556.261 287.94 556.19 287.998 556.137 288.072C556.084 288.145 556.052 288.232 556.044 288.322C556.053 288.411 556.086 288.497 556.138 288.571C556.191 288.644 556.262 288.702 556.344 288.739C556.568 288.852 556.816 288.91 557.067 288.91C557.318 288.91 557.566 288.852 557.791 288.739L559.666 287.653C559.749 287.617 559.82 287.559 559.873 287.485C559.925 287.412 559.958 287.326 559.966 287.236Z" fill="#C6CDCF"/>
<path d="M559.966 287.236C559.958 287.146 559.926 287.059 559.873 286.986C559.82 286.912 559.749 286.855 559.666 286.818C559.442 286.706 559.195 286.647 558.945 286.647C558.694 286.647 558.447 286.706 558.223 286.818L556.344 287.904C556.261 287.94 556.19 287.998 556.137 288.072C556.084 288.145 556.052 288.232 556.044 288.322" stroke="#C6CDCF" stroke-width="0.334259" stroke-miterlimit="10"/>
<path d="M556.044 288.306C556.053 288.396 556.086 288.482 556.138 288.555C556.191 288.628 556.262 288.687 556.344 288.724C556.568 288.836 556.816 288.895 557.067 288.895C557.318 288.895 557.566 288.836 557.791 288.724L559.666 287.638C559.747 287.603 559.817 287.547 559.869 287.476C559.922 287.406 559.955 287.323 559.966 287.236" stroke="#C6CDCF" stroke-width="0.334259" stroke-miterlimit="10"/>
<path d="M555.247 219.652C555.228 219.45 555.156 219.256 555.038 219.091C554.92 218.927 554.76 218.796 554.575 218.714C554.072 218.458 553.516 218.324 552.951 218.324C552.387 218.324 551.831 218.458 551.328 218.714L547.102 221.152C546.907 221.218 546.737 221.345 546.617 221.513C546.496 221.681 546.432 221.883 546.432 222.089C546.432 222.296 546.496 222.498 546.617 222.666C546.737 222.834 546.907 222.96 547.102 223.027C547.606 223.282 548.163 223.414 548.727 223.414C549.292 223.414 549.849 223.282 550.353 223.027L554.575 220.59C554.76 220.507 554.92 220.377 555.038 220.212C555.156 220.047 555.228 219.854 555.247 219.652Z" fill="#C6CDCF"/>
<path d="M571.809 210.087C571.79 209.885 571.717 209.691 571.599 209.526C571.48 209.362 571.319 209.231 571.133 209.15C570.63 208.895 570.074 208.762 569.51 208.762C568.946 208.762 568.39 208.895 567.887 209.15L563.664 211.591C563.468 211.657 563.298 211.783 563.177 211.951C563.056 212.118 562.991 212.32 562.991 212.527C562.991 212.734 563.056 212.935 563.177 213.103C563.298 213.271 563.468 213.397 563.664 213.463C564.167 213.719 564.723 213.853 565.288 213.853C565.852 213.853 566.408 213.719 566.911 213.463L571.133 211.025C571.319 210.944 571.48 210.813 571.599 210.649C571.717 210.484 571.79 210.29 571.809 210.087Z" fill="#C6CDCF"/>
<path d="M560.501 216.952C561.768 216.952 562.795 216.361 562.795 215.631C562.795 214.901 561.768 214.31 560.501 214.31C559.235 214.31 558.208 214.901 558.208 215.631C558.208 216.361 559.235 216.952 560.501 216.952Z" fill="#F54810"/>
<path d="M542.148 226.991C543.414 226.991 544.441 226.4 544.441 225.67C544.441 224.94 543.414 224.349 542.148 224.349C540.881 224.349 539.854 224.94 539.854 225.67C539.854 226.4 540.881 226.991 542.148 226.991Z" fill="#32CEC5"/>
<path d="M600.512 188.91L599.216 189.657L599.546 190.229L600.842 189.482L600.512 188.91Z" fill="#9FA4A5"/>
<path d="M598.489 188.889L598.104 189.425L599.192 190.207L599.578 189.67L598.489 188.889Z" fill="#9FA4A5"/>
<path d="M598.489 188.889L598.104 189.425L599.192 190.207L599.578 189.67L598.489 188.889Z" fill="#9FA4A5"/>
<path d="M600.512 188.91L599.216 189.657L599.546 190.229L600.842 189.482L600.512 188.91Z" fill="#9FA4A5"/>
<path d="M599.351 190.317L597.935 189.311V185.83C597.935 185.408 598.379 185.07 598.971 185.07L599.875 185.051C600.204 185.032 600.528 185.141 600.778 185.355C600.842 185.413 600.892 185.483 600.928 185.562C600.963 185.64 600.982 185.725 600.983 185.811V189.368L599.351 190.317ZM598.591 188.97L599.37 189.531L600.315 188.985V185.811C600.183 185.742 600.035 185.708 599.886 185.712L598.983 185.731C598.845 185.727 598.71 185.773 598.603 185.86L598.591 188.97Z" fill="#9FA4A5"/>
<path d="M600.995 185.811H600.334V189.175H600.995V185.811Z" fill="#9FA4A5"/>
<path d="M598.603 185.86L597.935 185.83C597.935 185.408 598.379 185.07 598.971 185.07L599.875 185.051C600.204 185.032 600.528 185.141 600.778 185.355C600.842 185.413 600.892 185.483 600.928 185.562C600.963 185.64 600.982 185.725 600.983 185.811H600.319C600.318 185.821 600.318 185.831 600.319 185.841C600.194 185.747 600.039 185.701 599.882 185.712L598.979 185.731C598.842 185.728 598.709 185.774 598.603 185.86Z" fill="#9FA4A5"/>
<path d="M598.611 185.83H597.95V189.14H598.611V185.83Z" fill="#9FA4A5"/>
<path d="M598.489 188.889L598.104 189.425L599.192 190.207L599.578 189.67L598.489 188.889Z" fill="#9FA4A5"/>
<path d="M600.512 188.91L599.216 189.657L599.546 190.229L600.842 189.482L600.512 188.91Z" fill="#9FA4A5"/>
<path d="M602.937 188.625L602.606 189.197L608.19 192.421L608.52 191.848L602.937 188.625Z" fill="#9FA4A5"/>
<path d="M602.937 188.625L602.606 189.197L608.19 192.421L608.52 191.848L602.937 188.625Z" fill="#9FA4A5"/>
<path d="M602.937 188.625L602.606 189.197L608.19 192.421L608.52 191.848L602.937 188.625Z" fill="#9FA4A5"/>
<path d="M589.772 190.971H589.111C589.111 190.333 589.518 189.748 590.25 189.323L596.272 185.86L596.602 186.433L590.585 189.908C590.061 190.196 589.772 190.58 589.772 190.971Z" fill="#9FA4A5"/>
<path d="M589.772 190.971H589.111C589.111 190.333 589.518 189.748 590.25 189.323L596.272 185.86L596.602 186.433L590.585 189.908C590.061 190.196 589.772 190.58 589.772 190.971Z" fill="#9FA4A5"/>
<path d="M589.772 190.971H589.111C589.111 190.333 589.518 189.748 590.25 189.323L596.272 185.86L596.602 186.433L590.585 189.908C590.061 190.196 589.772 190.58 589.772 190.971Z" fill="#9FA4A5"/>
<path d="M608.213 191.873L599.073 197.146L599.403 197.718L608.543 192.445L608.213 191.873Z" fill="#9FA4A5"/>
<path d="M599.074 197.703L590.254 192.619C589.518 192.193 589.115 191.609 589.115 190.971H589.776C589.776 191.35 590.064 191.73 590.588 192.045L599.397 197.129L599.074 197.703Z" fill="#9FA4A5"/>
<path d="M599.074 197.703L590.254 192.619C589.518 192.193 589.115 191.609 589.115 190.971H589.776C589.776 191.35 590.064 191.73 590.588 192.045L599.397 197.129L599.074 197.703Z" fill="#9FA4A5"/>
<path d="M599.074 197.703L590.254 192.619C589.518 192.193 589.115 191.609 589.115 190.971H589.776C589.776 191.35 590.064 191.73 590.588 192.045L599.397 197.129L599.074 197.703Z" fill="#9FA4A5"/>
<path d="M608.213 191.873L599.073 197.146L599.403 197.718L608.543 192.445L608.213 191.873Z" fill="#9FA4A5"/>
<path d="M599.23 197.801L598.437 197.342L598.767 196.768L599.23 197.034L608.202 191.855L608.532 192.429L599.23 197.801Z" fill="#9FA4A5"/>
<path d="M596.337 189.729H595.657C595.657 189.694 595.65 189.659 595.636 189.627C595.621 189.595 595.6 189.566 595.574 189.543C595.533 189.504 595.487 189.472 595.437 189.448C595.473 189.456 595.51 189.456 595.546 189.449C595.582 189.442 595.616 189.427 595.646 189.406C595.682 189.381 595.713 189.347 595.734 189.307C595.755 189.267 595.766 189.223 595.767 189.178H595.106C595.106 189.105 595.126 189.033 595.165 188.971C595.204 188.909 595.26 188.86 595.327 188.829C595.517 188.742 595.748 188.829 596.01 189.046C596.111 189.129 596.192 189.233 596.248 189.351C596.305 189.469 596.335 189.598 596.337 189.729Z" fill="#9FA4A5"/>
<path d="M596.337 189.729H595.657C595.657 189.694 595.65 189.659 595.636 189.627C595.621 189.595 595.6 189.566 595.574 189.543C595.533 189.504 595.487 189.472 595.437 189.448C595.473 189.456 595.51 189.456 595.546 189.449C595.582 189.442 595.616 189.427 595.646 189.406C595.682 189.381 595.713 189.347 595.734 189.307C595.755 189.267 595.766 189.223 595.767 189.178H595.106C595.106 189.105 595.126 189.033 595.165 188.971C595.204 188.909 595.26 188.86 595.327 188.829C595.517 188.742 595.748 188.829 596.01 189.046C596.111 189.129 596.192 189.233 596.248 189.351C596.305 189.469 596.335 189.598 596.337 189.729Z" fill="#9FA4A5"/>
<path d="M596.337 189.729H595.657C595.657 189.694 595.65 189.659 595.636 189.627C595.621 189.595 595.6 189.566 595.574 189.543C595.533 189.504 595.487 189.472 595.437 189.448C595.473 189.456 595.51 189.456 595.546 189.449C595.582 189.442 595.616 189.427 595.646 189.406C595.682 189.381 595.713 189.347 595.734 189.307C595.755 189.267 595.766 189.223 595.767 189.178H595.106C595.106 189.105 595.126 189.033 595.165 188.971C595.204 188.909 595.26 188.86 595.327 188.829C595.517 188.742 595.748 188.829 596.01 189.046C596.111 189.129 596.192 189.233 596.248 189.351C596.305 189.469 596.335 189.598 596.337 189.729Z" fill="#9FA4A5"/>
<path d="M597.73 193.165H597.065C597.07 192.95 597.123 192.739 597.219 192.548C597.316 192.356 597.454 192.188 597.624 192.056C598.768 191.13 600.203 190.638 601.675 190.667L601.603 191.324C600.315 191.316 599.063 191.75 598.056 192.554C597.961 192.626 597.882 192.718 597.825 192.823C597.769 192.929 597.736 193.046 597.73 193.165Z" fill="#9FA4A5"/>
<path d="M597.73 193.165H597.065C597.07 192.95 597.123 192.739 597.219 192.548C597.316 192.356 597.454 192.188 597.624 192.056C598.768 191.13 600.203 190.638 601.675 190.667L601.603 191.324C600.315 191.316 599.063 191.75 598.056 192.554C597.961 192.626 597.882 192.718 597.825 192.823C597.769 192.929 597.736 193.046 597.73 193.165Z" fill="#9FA4A5"/>
<path d="M597.73 193.165H597.065C597.07 192.95 597.123 192.739 597.219 192.548C597.316 192.356 597.454 192.188 597.624 192.056C598.768 191.13 600.203 190.638 601.675 190.667L601.603 191.324C600.315 191.316 599.063 191.75 598.056 192.554C597.961 192.626 597.882 192.718 597.825 192.823C597.769 192.929 597.736 193.046 597.73 193.165Z" fill="#9FA4A5"/>
<path d="M600.559 193.716H599.898C599.898 193.476 599.518 192.918 597.62 191.601C596.481 190.796 595.11 189.721 595.11 189.178H595.771C595.774 189.161 595.774 189.143 595.771 189.125C595.824 189.262 596.325 189.885 598.007 191.058C599.834 192.349 600.559 193.093 600.559 193.716Z" fill="#9FA4A5"/>
<path d="M600.559 193.716H599.898C599.898 193.476 599.518 192.918 597.62 191.601C596.481 190.796 595.11 189.721 595.11 189.178H595.771C595.774 189.161 595.774 189.143 595.771 189.125C595.824 189.262 596.325 189.885 598.007 191.058C599.834 192.349 600.559 193.093 600.559 193.716Z" fill="#9FA4A5"/>
<path d="M600.559 193.716H599.898C599.898 193.476 599.518 192.918 597.62 191.601C596.481 190.796 595.11 189.721 595.11 189.178H595.771C595.774 189.161 595.774 189.143 595.771 189.125C595.824 189.262 596.325 189.885 598.007 191.058C599.834 192.349 600.559 193.093 600.559 193.716Z" fill="#9FA4A5"/>
<path d="M593.94 191.555L593.838 190.902C595.106 190.705 595.672 190.105 595.672 189.74H596.336C596.336 190.416 595.584 191.289 593.94 191.555Z" fill="#9FA4A5"/>
<path d="M593.94 191.555L593.838 190.902C595.106 190.705 595.672 190.105 595.672 189.74H596.336C596.336 190.416 595.584 191.289 593.94 191.555Z" fill="#9FA4A5"/>
<path d="M593.94 191.555L593.838 190.902C595.106 190.705 595.672 190.105 595.672 189.74H596.336C596.336 190.416 595.584 191.289 593.94 191.555Z" fill="#9FA4A5"/>
<path d="M598.926 194.801C598.508 194.802 598.101 194.669 597.764 194.422C597.558 194.281 597.387 194.094 597.266 193.876C597.145 193.658 597.076 193.414 597.065 193.165H597.73C597.74 193.31 597.784 193.451 597.857 193.576C597.931 193.701 598.033 193.807 598.155 193.886C598.316 194.006 598.503 194.087 598.701 194.121C598.899 194.155 599.102 194.143 599.294 194.084C599.674 193.959 599.894 193.826 599.894 193.704H600.555C600.555 194.361 599.795 194.608 599.495 194.703C599.311 194.764 599.12 194.797 598.926 194.801Z" fill="#9FA4A5"/>
<path d="M598.926 194.801C598.508 194.802 598.101 194.669 597.764 194.422C597.558 194.281 597.387 194.094 597.266 193.876C597.145 193.658 597.076 193.414 597.065 193.165H597.73C597.74 193.31 597.784 193.451 597.857 193.576C597.931 193.701 598.033 193.807 598.155 193.886C598.316 194.006 598.503 194.087 598.701 194.121C598.899 194.155 599.102 194.143 599.294 194.084C599.674 193.959 599.894 193.826 599.894 193.704H600.555C600.555 194.361 599.795 194.608 599.495 194.703C599.311 194.764 599.12 194.797 598.926 194.801Z" fill="#9FA4A5"/>
<path d="M598.926 194.801C598.508 194.802 598.101 194.669 597.764 194.422C597.558 194.281 597.387 194.094 597.266 193.876C597.145 193.658 597.076 193.414 597.065 193.165H597.73C597.74 193.31 597.784 193.451 597.857 193.576C597.931 193.701 598.033 193.807 598.155 193.886C598.316 194.006 598.503 194.087 598.701 194.121C598.899 194.155 599.102 194.143 599.294 194.084C599.674 193.959 599.894 193.826 599.894 193.704H600.555C600.555 194.361 599.795 194.608 599.495 194.703C599.311 194.764 599.12 194.797 598.926 194.801Z" fill="#9FA4A5"/>
<path d="M607.689 192.914L607.358 192.341L607.704 192.144L607.632 192.102L607.962 191.525L609.029 192.144L607.689 192.914Z" fill="#9FA4A5"/>
<path d="M584.765 197.872L577.476 202.082L577.806 202.654L585.095 198.444L584.765 197.872Z" fill="#9FA4A5"/>
<path d="M575.273 200.61L574.942 201.182L577.478 202.646L577.808 202.074L575.273 200.61Z" fill="#9FA4A5"/>
<path d="M575.273 200.61L574.942 201.182L577.478 202.646L577.808 202.074L575.273 200.61Z" fill="#9FA4A5"/>
<path d="M584.765 197.872L577.476 202.082L577.806 202.654L585.095 198.444L584.765 197.872Z" fill="#9FA4A5"/>
<path d="M577.641 202.741L574.44 200.895L582.414 196.301L585.611 198.15L577.641 202.741ZM575.766 200.895L577.641 201.978L584.267 198.15L582.391 197.068L575.766 200.895Z" fill="#9FA4A5"/>
<path d="M582.554 196.394L582.224 196.967L584.759 198.43L585.089 197.858L582.554 196.394Z" fill="#9FA4A5"/>
<path d="M582.22 196.389L574.93 200.597L575.26 201.17L582.55 196.961L582.22 196.389Z" fill="#9FA4A5"/>
<path d="M575.273 200.61L574.942 201.182L577.478 202.646L577.808 202.074L575.273 200.61Z" fill="#9FA4A5"/>
<path d="M584.765 197.872L577.476 202.082L577.806 202.654L585.095 198.444L584.765 197.872Z" fill="#9FA4A5"/>
<path d="M587.506 201.082L587.176 201.654L589.816 203.179L590.147 202.607L587.506 201.082Z" fill="#9FA4A5"/>
<path d="M587.506 201.082L587.176 201.654L589.816 203.179L590.147 202.607L587.506 201.082Z" fill="#9FA4A5"/>
<path d="M587.506 201.082L587.176 201.654L589.816 203.179L590.147 202.607L587.506 201.082Z" fill="#9FA4A5"/>
<path d="M571.699 201.925H571.038C571.038 201.188 571.505 200.516 572.356 200.026L578.002 196.765L578.332 197.338L572.686 200.599C572.052 200.964 571.699 201.427 571.699 201.925Z" fill="#9FA4A5"/>
<path d="M571.699 201.925H571.038C571.038 201.188 571.505 200.516 572.356 200.026L578.002 196.765L578.332 197.338L572.686 200.599C572.052 200.964 571.699 201.427 571.699 201.925Z" fill="#9FA4A5"/>
<path d="M571.699 201.925H571.038C571.038 201.188 571.505 200.516 572.356 200.026L578.002 196.765L578.332 197.338L572.686 200.599C572.052 200.964 571.699 201.427 571.699 201.925Z" fill="#9FA4A5"/>
<path d="M589.848 202.64L580.573 207.99L580.903 208.562L590.178 203.212L589.848 202.64Z" fill="#9FA4A5"/>
<path d="M580.564 208.546L572.356 203.808C571.505 203.318 571.038 202.646 571.038 201.909H571.699C571.699 202.384 572.052 202.851 572.686 203.219L580.895 207.958L580.564 208.546Z" fill="#9FA4A5"/>
<path d="M580.564 208.546L572.356 203.808C571.505 203.318 571.038 202.646 571.038 201.909H571.699C571.699 202.384 572.052 202.851 572.686 203.219L580.895 207.958L580.564 208.546Z" fill="#9FA4A5"/>
<path d="M580.564 208.546L572.356 203.808C571.505 203.318 571.038 202.646 571.038 201.909H571.699C571.699 202.384 572.052 202.851 572.686 203.219L580.895 207.958L580.564 208.546Z" fill="#9FA4A5"/>
<path d="M589.848 202.64L580.573 207.99L580.903 208.562L590.178 203.212L589.848 202.64Z" fill="#9FA4A5"/>
<path d="M580.731 208.641L579.851 208.136L580.185 207.563L580.731 207.878L589.836 202.619L590.167 203.193L580.731 208.641Z" fill="#9FA4A5"/>
<path d="M588.88 200.229L581.59 204.438L581.92 205.01L589.21 200.801L588.88 200.229Z" fill="#9FA4A5"/>
<path d="M579.387 202.986L579.057 203.558L581.592 205.022L581.922 204.45L579.387 202.986Z" fill="#9FA4A5"/>
<path d="M579.387 202.986L579.057 203.558L581.592 205.022L581.922 204.45L579.387 202.986Z" fill="#9FA4A5"/>
<path d="M588.88 200.229L581.59 204.438L581.92 205.01L589.21 200.801L588.88 200.229Z" fill="#9FA4A5"/>
<path d="M581.76 205.121L578.57 203.272L586.521 198.682L589.722 200.527L581.76 205.121ZM579.884 203.272L581.76 204.354L588.389 200.527L586.513 199.445L579.884 203.272Z" fill="#9FA4A5"/>
<path d="M586.683 198.782L586.353 199.354L588.888 200.818L589.218 200.246L586.683 198.782Z" fill="#9FA4A5"/>
<path d="M586.355 198.786L579.065 202.996L579.396 203.568L586.685 199.358L586.355 198.786Z" fill="#9FA4A5"/>
<path d="M579.387 202.986L579.057 203.558L581.592 205.022L581.922 204.45L579.387 202.986Z" fill="#9FA4A5"/>
<path d="M588.88 200.229L581.59 204.438L581.92 205.01L589.21 200.801L588.88 200.229Z" fill="#9FA4A5"/>
<path d="M589.046 203.842L588.716 203.269L589.342 202.908L588.887 202.646L589.217 202.073L590.664 202.908L589.046 203.842Z" fill="#9FA4A5"/>
<defs>
<filter id="filter0_f_802_9523" x="143.818" y="46.4973" width="181.637" height="113.519" filterUnits="userSpaceOnUse" color-interpolation-filters="sRGB">
<feFlood flood-opacity="0" result="BackgroundImageFix"/>
<feBlend mode="normal" in="SourceGraphic" in2="BackgroundImageFix" result="shape"/>
<feGaussianBlur stdDeviation="4" result="effect1_foregroundBlur_802_9523"/>
</filter>
<filter id="filter1_f_802_9523" x="293" y="111" width="234.366" height="146.861" filterUnits="userSpaceOnUse" color-interpolation-filters="sRGB">
<feFlood flood-opacity="0" result="BackgroundImageFix"/>
<feBlend mode="normal" in="SourceGraphic" in2="BackgroundImageFix" result="shape"/>
<feGaussianBlur stdDeviation="4" result="effect1_foregroundBlur_802_9523"/>
</filter>
<filter id="filter2_f_802_9523" x="365.097" y="107.695" width="174.057" height="106.967" filterUnits="userSpaceOnUse" color-interpolation-filters="sRGB">
<feFlood flood-opacity="0" result="BackgroundImageFix"/>
<feBlend mode="normal" in="SourceGraphic" in2="BackgroundImageFix" result="shape"/>
<feGaussianBlur stdDeviation="4" result="effect1_foregroundBlur_802_9523"/>
</filter>
<filter id="filter3_d_802_9523" x="3.93555" y="239" width="291.957" height="193.919" filterUnits="userSpaceOnUse" color-interpolation-filters="sRGB">
<feFlood flood-opacity="0" result="BackgroundImageFix"/>
<feColorMatrix in="SourceAlpha" type="matrix" values="0 0 0 0 0 0 0 0 0 0 0 0 0 0 0 0 0 0 127 0" result="hardAlpha"/>
<feOffset dy="5"/>
<feGaussianBlur stdDeviation="15"/>
<feComposite in2="hardAlpha" operator="out"/>
<feColorMatrix type="matrix" values="0 0 0 0 0.945098 0 0 0 0 0.384314 0 0 0 0 0.14902 0 0 0 1 0"/>
<feBlend mode="normal" in2="BackgroundImageFix" result="effect1_dropShadow_802_9523"/>
<feBlend mode="normal" in="SourceGraphic" in2="effect1_dropShadow_802_9523" result="shape"/>
</filter>
<filter id="filter4_f_802_9523" x="479.516" y="207.788" width="214.483" height="137.069" filterUnits="userSpaceOnUse" color-interpolation-filters="sRGB">
<feFlood flood-opacity="0" result="BackgroundImageFix"/>
<feBlend mode="normal" in="SourceGraphic" in2="BackgroundImageFix" result="shape"/>
<feGaussianBlur stdDeviation="4" result="effect1_foregroundBlur_802_9523"/>
</filter>
<linearGradient id="paint0_linear_802_9523" x1="121.67" y1="154.585" x2="162.92" y2="116.448" gradientUnits="userSpaceOnUse">
<stop offset="0.06" stop-color="#F16226" stop-opacity="0"/>
<stop offset="1" stop-color="#F54811"/>
</linearGradient>
<linearGradient id="paint1_linear_802_9523" x1="220.166" y1="31.0263" x2="230.595" y2="106.237" gradientUnits="userSpaceOnUse">
<stop stop-opacity="0.1"/>
<stop offset="0.543927" stop-opacity="0.2"/>
</linearGradient>
<linearGradient id="paint2_linear_802_9523" x1="242.06" y1="115.531" x2="209.792" y2="32.9403" gradientUnits="userSpaceOnUse">
<stop stop-color="#6D767F" stop-opacity="0.25"/>
<stop offset="1" stop-color="#2D3741" stop-opacity="0.15"/>
</linearGradient>
<linearGradient id="paint3_linear_802_9523" x1="196.579" y1="34.889" x2="226.068" y2="69.9085" gradientUnits="userSpaceOnUse">
<stop stop-color="#E6EAEB"/>
<stop offset="0.976889" stop-color="white" stop-opacity="0.7"/>
</linearGradient>
<linearGradient id="paint4_linear_802_9523" x1="220.166" y1="20.0263" x2="230.595" y2="95.2369" gradientUnits="userSpaceOnUse">
<stop stop-opacity="0.1"/>
<stop offset="0.543927" stop-opacity="0.2"/>
</linearGradient>
<linearGradient id="paint5_linear_802_9523" x1="239.416" y1="105.152" x2="205.197" y2="17.8526" gradientUnits="userSpaceOnUse">
<stop stop-color="#6D767F" stop-opacity="0.1"/>
<stop offset="1" stop-color="#2D3741" stop-opacity="0.02"/>
</linearGradient>
<linearGradient id="paint6_linear_802_9523" x1="196.579" y1="23.889" x2="226.068" y2="58.9085" gradientUnits="userSpaceOnUse">
<stop stop-color="#E6EAEB"/>
<stop offset="0.976889" stop-color="white" stop-opacity="0.7"/>
</linearGradient>
<linearGradient id="paint7_linear_802_9523" x1="284.866" y1="40.3367" x2="313.781" y2="90.5765" gradientUnits="userSpaceOnUse">
<stop stop-color="#E6EAEB"/>
<stop offset="1" stop-color="#C8CCCD"/>
</linearGradient>
<linearGradient id="paint8_linear_802_9523" x1="298.353" y1="223.419" x2="286.741" y2="238.127" gradientUnits="userSpaceOnUse">
<stop offset="0.265875" stop-color="#F54811"/>
<stop offset="1" stop-color="#F16226" stop-opacity="0"/>
</linearGradient>
<linearGradient id="paint9_linear_802_9523" x1="301" y1="179.282" x2="519.356" y2="179.282" gradientUnits="userSpaceOnUse">
<stop stop-color="#BABABA"/>
<stop offset="0.08" stop-color="#B5B5B6"/>
<stop offset="0.18" stop-color="#A8A8A9"/>
<stop offset="0.28" stop-color="#919195"/>
<stop offset="0.38" stop-color="#717278"/>
<stop offset="0.49" stop-color="#474953"/>
<stop offset="0.6" stop-color="#161826"/>
<stop offset="0.61" stop-color="#121423"/>
<stop offset="0.7" stop-color="#2C2E3B"/>
<stop offset="0.8" stop-color="#40414D"/>
<stop offset="0.9" stop-color="#4C4D58"/>
<stop offset="1" stop-color="#50515C"/>
</linearGradient>
<linearGradient id="paint10_linear_802_9523" x1="301" y1="149.031" x2="519.356" y2="149.031" gradientUnits="userSpaceOnUse">
<stop stop-color="#2A2C39"/>
<stop offset="0.52" stop-color="#828990"/>
<stop offset="0.62" stop-color="#858C92"/>
<stop offset="0.69" stop-color="#8E949B"/>
<stop offset="0.74" stop-color="#9DA3A8"/>
<stop offset="0.8" stop-color="#B3B8BC"/>
<stop offset="0.85" stop-color="#CFD2D5"/>
<stop offset="0.9" stop-color="#F6F7F7"/>
</linearGradient>
<linearGradient id="paint11_linear_802_9523" x1="311.999" y1="152.904" x2="456.949" y2="254.961" gradientUnits="userSpaceOnUse">
<stop stop-color="#2A2C39"/>
<stop offset="0.52" stop-color="#828990"/>
<stop offset="0.62" stop-color="#858C92"/>
<stop offset="0.69" stop-color="#8E949B"/>
<stop offset="0.74" stop-color="#9DA3A8"/>
<stop offset="0.8" stop-color="#B3B8BC"/>
<stop offset="0.85" stop-color="#CFD2D5"/>
<stop offset="1" stop-color="#F6F7F7"/>
</linearGradient>
<linearGradient id="paint12_linear_802_9523" x1="324.5" y1="118.404" x2="502" y2="186.904" gradientUnits="userSpaceOnUse">
<stop stop-color="#2A2C39"/>
<stop offset="0.52" stop-color="#828990"/>
<stop offset="0.62" stop-color="#858C92"/>
<stop offset="0.69" stop-color="#8E949B"/>
<stop offset="0.74" stop-color="#9DA3A8"/>
<stop offset="0.8" stop-color="#B3B8BC"/>
<stop offset="0.85" stop-color="#CFD2D5"/>
<stop offset="1" stop-color="#F6F7F7"/>
</linearGradient>
<linearGradient id="paint13_linear_802_9523" x1="422.866" y1="117.337" x2="451.781" y2="167.577" gradientUnits="userSpaceOnUse">
<stop stop-color="#E6EAEB"/>
<stop offset="1" stop-color="#C8CCCD"/>
</linearGradient>
<linearGradient id="paint14_linear_802_9523" x1="402.231" y1="317.574" x2="377.081" y2="282.035" gradientUnits="userSpaceOnUse">
<stop offset="0.265875" stop-color="#F54811"/>
<stop offset="1" stop-color="#F16226" stop-opacity="0"/>
</linearGradient>
<linearGradient id="paint15_linear_802_9523" x1="33.9355" y1="330.959" x2="265.882" y2="330.959" gradientUnits="userSpaceOnUse">
<stop stop-color="#F59167"/>
<stop offset="0.07" stop-color="#F4895D"/>
<stop offset="0.27" stop-color="#F37845"/>
<stop offset="0.49" stop-color="#F26C33"/>
<stop offset="0.72" stop-color="#F16429"/>
<stop offset="1" stop-color="#F16226"/>
</linearGradient>
<linearGradient id="paint16_linear_802_9523" x1="44.243" y1="298.808" x2="222.144" y2="365.757" gradientUnits="userSpaceOnUse">
<stop offset="0.09" stop-color="#F2F2F2"/>
<stop offset="0.13" stop-color="#EFEFEF"/>
<stop offset="0.35" stop-color="#E0E0E1"/>
<stop offset="0.62" stop-color="#D7D8D9"/>
<stop offset="1" stop-color="#D4D5D6"/>
</linearGradient>
<linearGradient id="paint17_linear_802_9523" x1="44" y1="285" x2="498.5" y2="400" gradientUnits="userSpaceOnUse">
<stop stop-color="#FA7138"/>
<stop stop-color="#FA7138"/>
<stop offset="0.484375" stop-color="#F54810"/>
<stop offset="1" stop-color="#D93706"/>
</linearGradient>
<linearGradient id="paint18_linear_802_9523" x1="482.644" y1="264.713" x2="686.265" y2="264.713" gradientUnits="userSpaceOnUse">
<stop stop-color="#EDEDED"/>
<stop offset="0.19" stop-color="#E6E6E6"/>
<stop offset="0.46" stop-color="#D3D3D3"/>
<stop offset="0.78" stop-color="#B3B3B3"/>
<stop offset="1" stop-color="#999999"/>
</linearGradient>
</defs>
</svg>
