<?xml version="1.0" encoding="UTF-8"?>
<svg width="402px" height="298px" viewBox="0 0 402 298" version="1.1" xmlns="http://www.w3.org/2000/svg" xmlns:xlink="http://www.w3.org/1999/xlink">
    <!-- Generator: Sketch 53.2 (72643) - https://sketchapp.com -->
    <title>NST_M18_010</title>
    <desc>Created with Sketch.</desc>
    <g id="Page-1" stroke="none" stroke-width="1" fill="none" fill-rule="evenodd">
        <g id="TutorEye---Log-In" transform="translate(-201.000000, -134.000000)">
            <g id="NST_M18_010" transform="translate(402.000000, 283.000000) scale(-1, 1) translate(-402.000000, -283.000000) translate(201.000000, 134.000000)">
                <polygon id="Path" fill="#C9C8C8" fill-rule="nonzero" points="261.663875 200.898914 259.516977 293.579484 255.423587 293.579484 255.683887 201.132454"></polygon>
                <polygon id="Path" fill="#C9C8C8" fill-rule="nonzero" points="238.064115 199.871572 257.962088 293.579484 262.521944 293.579484 245.958344 199.871572"></polygon>
                <polygon id="Path" fill="#C9C8C8" fill-rule="nonzero" points="285.684031 199.871572 305.582004 293.579484 310.140708 293.579484 293.57826 199.871572"></polygon>
                <polygon id="Path" fill="#FFFFFF" fill-rule="nonzero" points="220.164463 200.898914 218.017564 293.579484 213.924175 293.579484 214.183323 201.132454"></polygon>
                <path d="M291.673233,99.0136773 C291.673233,99.0136773 316.896989,97.5744773 314.378068,126.73122 C311.859148,155.887963 310.412525,185.403643 301.044031,195.483795 C291.675537,205.563947 197.254613,205.922884 189.322376,197.64317 C181.390138,189.363456 204.461236,189.724694 208.793041,189.724694 C213.124847,189.724694 239.784859,192.244157 248.433497,169.56669 C257.082136,146.889224 254.915657,97.5744773 291.673233,99.0136773 Z" id="Path" fill="#D6D6D6" fill-rule="nonzero"></path>
                <path d="M293.29147,99.0297834 C293.29147,99.0297834 312.576701,102.973491 310.773029,123.131494 C308.969358,143.289498 303.929214,178.565429 294.556113,187.564168 C285.183011,196.562907 248.471506,198.524407 228.603479,197.283082 C205.540444,195.843882 190.980924,191.457256 190.980924,191.457256 C190.980924,191.457256 186.771206,194.160789 188.047367,195.902555 C189.323527,197.64432 200.567103,204.645896 255.08036,203.480501 C309.593617,202.315105 305.803143,194.276984 308.061764,185.503731 C310.320384,176.730478 315.073737,129.937495 314.413773,119.651414 C313.753809,109.365333 308.578908,100.833673 293.29147,99.0297834 Z" id="Path" fill="#C9C8C8" fill-rule="nonzero"></path>
                <path d="M281.302699,143.265339 C282.460086,146.951007 283.26985,150.736714 283.721416,154.57301 L235.00156,156.528758 L224.428314,156.955571 L226.552178,147.105506 L230.122663,130.559883 L230.062771,129.954752 L229.125231,121.076809 L228.840744,118.338763 L228.40192,114.214436 C228.40192,114.214436 222.800864,111.736389 222.800864,106.367288 C222.800864,103.712073 223.524175,101.305353 224.200264,99.6119059 L224.200264,99.5992511 C224.508945,98.8191883 224.873862,98.062515 225.292142,97.3351858 C225.316329,97.2880178 225.339364,97.265009 225.339364,97.2293454 L206.259148,112.958156 L201.076185,99.9190733 L199.002999,94.7512983 L198.184091,92.68856 C198.184091,92.68856 208.745819,81.2393845 217.336869,71.5549835 C221.713593,66.6241991 227.531182,64.7996018 232.04036,64.1714618 C236.098044,63.596242 239.112226,64.004648 239.112226,64.004648 L257.28024,64.3014615 C257.28024,64.3014615 261.445039,64.5027884 266.464451,65.9960591 C273.276017,68.0231338 281.678176,72.4385212 283.374733,81.926197 L287.402472,102.061192 L276.081728,102.061192 L275.826035,108.584185 L275.268578,122.70123 L274.984091,129.682098 C277.675137,133.914793 279.799416,138.481399 281.302699,143.265339 L281.302699,143.265339 Z" id="Path" fill="#FEAD00" fill-rule="nonzero"></path>
                <path d="M225.363551,97.2051861 L225.352034,97.2166905 L206.259148,112.958156 L201.076185,99.9190733 C212.064067,92.0017475 228.226851,89.4293645 228.891422,89.524851 C229.576725,89.619187 226.016605,95.9638617 225.363551,97.2051861 Z" id="Path" fill="#F27203" fill-rule="nonzero"></path>
                <path d="M228.840744,118.338763 L228.40192,114.214436 C228.40192,114.214436 222.800864,111.736389 222.800864,106.367288 C222.800864,103.712073 223.524175,101.305353 224.200264,99.6119059 L224.200264,99.5992511 C224.508945,98.8191883 224.873862,98.062515 225.292142,97.3351858 C225.316329,97.2880178 225.339364,97.265009 225.339364,97.2293454 L225.352034,97.2166905 C223.624379,103.676409 226.882735,112.270193 234.524727,115.305053 C240.967726,117.864782 235.723719,119.749202 228.840744,118.338763 Z" id="Path" fill="#FFD579" fill-rule="nonzero"></path>
                <path d="M232.044967,64.1714618 C229.872729,64.8111062 227.144187,65.9488911 225.292142,67.8218068 C222.182364,70.9625071 212.299028,89.8561776 199.007606,94.7512983 L198.188698,92.68856 C198.188698,92.68856 208.750426,81.2393845 217.341476,71.5549835 C221.720504,66.6276505 227.535789,64.7996018 232.044967,64.1714618 Z" id="Path" fill="#FFD579" fill-rule="nonzero"></path>
                <path d="M287.402472,102.061192 L282.193017,102.061192 C281.682783,97.1545668 280.695717,92.4481181 279.61766,89.3189223 C276.507882,80.2994753 269.294349,70.6507379 266.469058,65.9926078 C273.280624,68.0196824 281.682783,72.4350698 283.37934,81.9227457 L287.402472,102.061192 Z" id="Path" fill="#F27203" fill-rule="nonzero"></path>
                <path d="M283.723719,154.57301 L235.003863,156.528758 C231.385003,152.937085 228.465267,149.595058 226.554481,147.105506 L230.124967,130.559883 L230.065075,129.954752 L229.127534,121.076809 L228.404223,114.214436 C228.404223,114.214436 248.374757,118.173099 257.083287,117.176819 C265.791818,116.180538 266.564655,113.028333 266.469058,110.408782 C266.373461,107.789231 266.956257,91.5990937 266.956257,91.5990937 C266.956257,91.5990937 267.952537,96.1387286 269.578836,102.068095 C269.578836,102.068095 272.154193,104.510478 275.820276,108.587636 L275.262819,122.704681 L274.978332,129.685549 C277.671384,133.917942 279.797605,138.48456 281.302699,143.26879 C282.460656,146.953262 283.27119,150.737805 283.723719,154.57301 Z" id="Path" fill="#F27203" fill-rule="nonzero"></path>
                <path d="M369.46683,136.903407 L361.384091,136.903407 L368.149586,282.672165 L366.165087,283.042607 C365.254037,283.218624 364.347594,283.387739 363.44,283.5488 L356.628434,136.903407 L113.144331,136.903407 L104.773269,290.658517 C103.1988,290.37666 101.625483,290.083297 100.06138,289.791086 L108.388674,136.903407 L95.8762299,136.903407 C93.5822255,136.903407 91.7225675,135.043749 91.7225675,132.749745 L91.7225675,132.749745 C91.7225675,130.455741 93.5822255,128.596083 95.8762299,128.596083 L369.46683,128.596083 C371.760834,128.596083 373.620492,130.455741 373.620492,132.749745 L373.620492,132.749745 C373.620492,135.043749 371.760834,136.903407 369.46683,136.903407 Z" id="Path" fill="#101D71" fill-rule="nonzero"></path>
                <polygon id="Path" fill="#2B42A0" fill-rule="nonzero" points="150.704691 78.0814277 167.982388 128.513251 246.219796 128.513251 245.642759 125.916709 214.007103 124.939985 199.432609 78.0549676"></polygon>
                <path d="M276.33051,62.8311996 C275.903203,62.8081908 275.511602,62.7840316 275.144187,62.7725272 C271.275393,62.6425275 270.326335,63.5778349 264.392418,63.8504891 C258.352537,64.1242938 253.178788,60.8996114 248.72835,60.7811161 C248.411769,60.761286 248.094147,60.7651316 247.77814,60.7926205 C243.114625,61.1722656 246.165663,33.0451664 246.165663,33.0451664 C241.953641,28.2443817 237.550426,14.2228231 252.408254,13.6533555 C267.266083,13.0838879 259.203695,25.1393451 267.253413,28.114382 C275.303131,31.089419 270.758248,45.4906226 274.904619,48.7958358 C279.05099,52.1010489 281.266995,63.1993403 276.33051,62.8311996 Z" id="Path" fill="#202F85" fill-rule="nonzero"></path>
                <path d="M275.144187,62.7725272 C271.275393,62.6425275 270.326335,63.5778349 264.392418,63.8504891 C258.352537,64.1242938 253.178788,60.8996114 248.72835,60.7811161 C247.363503,50.5997251 246.591818,40.87851 250.353497,38.6167457 C254.89838,35.8902037 259.182963,32.6344594 259.182963,32.6344594 C261.378236,36.7829448 263.703659,36.0006459 263.750882,39.7096633 C263.798104,43.4186808 265.478536,44.081334 264.522567,47.1184947 C263.566599,50.1556554 266.266347,56.0436056 270.812382,57.4241332 C272.996137,58.0902377 274.728398,60.3658074 275.144187,62.7725272 Z" id="Path" fill="#000A5D" fill-rule="nonzero"></path>
                <path d="M249.80871,61.3977518 C246.331518,62.5712002 242.000864,63.1395174 238.903755,62.4170413 C232.578236,60.9582838 230.632897,59.8860741 222.171998,59.7020037 C221.965722,59.7023328 221.759599,59.6908094 221.554649,59.6674905 C213.876953,59.1693501 217.222843,52.661313 221.969286,47.3577862 C226.835513,41.917357 220.319952,36.1686101 221.103155,31.6048159 C221.886359,27.0410218 225.517888,28.1327891 228.013773,25.3464242 C230.509658,22.5600594 230.636353,14.2055666 239.014325,14.5012295 C247.392298,14.7968925 249.028962,22.9523593 247.083623,27.1365083 C244.745531,30.6925173 246.822172,39.5117877 247.831122,41.823021 C248.840072,44.1342543 254.571278,53.3078601 255.603263,56.6510377 C256.130774,58.3513876 253.428722,60.2001441 249.80871,61.3977518 Z" id="Path" fill="#202F85" fill-rule="nonzero"></path>
                <path d="M249.80871,61.3977518 C246.331518,62.5712002 242.000864,63.1395174 238.903755,62.4170413 C232.578236,60.9582838 230.632897,59.8860741 222.171998,59.7020037 C221.965722,59.7023328 221.759599,59.6908094 221.554649,59.6674905 C221.530462,55.5891819 226.905771,55.1508644 229.516833,51.5948554 C232.127894,48.0388465 231.273281,33.4604751 232.602424,29.5961483 C232.602424,29.5961483 250.045975,42.1129318 250.339676,54.8552014 C250.401872,57.580593 250.236017,59.7146585 249.80871,61.3977518 Z" id="Path" fill="#000A5D" fill-rule="nonzero"></path>
                <path d="M259.978836,31.918886 L259.100036,46.3200896 L257.985123,64.4418151 C257.9379,65.2471229 257.770894,73.2127671 257.237624,73.7454206 C256.681563,74.3049098 255.93755,74.6385704 255.149466,74.6818785 L248.159376,75.1086916 L244.97934,75.3100186 C244.034164,75.3705241 243.099999,75.079575 242.356761,74.4932064 C242.299998,74.4561468 242.248143,74.4120822 242.202424,74.3620563 C241.400716,73.6802237 240.915755,72.6985205 240.861764,71.6481691 C240.766167,69.8822442 240.541572,65.0216367 240.387235,61.7624411 C240.291638,59.9608526 240.232897,58.6562541 240.232897,58.6562541 C240.232897,58.6562541 233.091926,57.8969639 232.661164,50.82176 C232.459604,47.5855732 232.448086,42.4051435 232.483791,37.7355089 L232.483791,37.6526772 C232.542531,32.1765845 232.661164,27.4356226 232.661164,27.4356226 L245.666947,21.0817444 L259.978836,31.918886 Z" id="Path" fill="#FC9E9E" fill-rule="nonzero"></path>
                <path d="M236.334157,28.7781857 C239.568326,29.7388028 243.80108,28.849513 244.355081,28.0350017 C244.355081,28.0350017 245.795945,30.6280927 249.616365,31.5173825 C253.436785,32.4066724 257.744403,34.7075517 258.112969,35.2977272 C258.481536,35.8879028 256.846023,25.8123523 251.731014,22.9235983 C246.616005,20.0348443 240.161488,19.0707759 238.380852,22.109087 C236.600216,25.1473981 236.334157,28.7781857 236.334157,28.7781857 Z" id="Path" fill="#FA6D6D" fill-rule="nonzero"></path>
                <path d="M240.236353,58.6597054 C240.236353,58.6597054 245.006983,58.7126256 249.620972,55.4936954 C249.620972,55.4936954 247.494805,60.6879305 240.39069,60.3945684 L240.236353,58.6597054 Z" id="Path" fill="#FA6D6D" fill-rule="nonzero"></path>
                <path d="M261.853917,32.2156994 L261.106419,35.7820623 C259.694349,38.9940899 256.062819,31.4437544 251.968278,30.9582689 C247.873737,30.4727833 247.150426,27.7462413 244.184619,26.1459798 C244.158021,26.182525 244.134153,26.2209769 244.113209,26.2610237 C243.934685,26.5210231 243.270114,27.1733224 240.967726,28.3709301 C237.906323,29.9711916 234.057109,27.3988086 232.602424,29.5915465 C232.009262,30.4808364 231.759328,31.6542848 231.604991,32.4676457 C231.380396,33.6756073 231.356209,34.1507389 230.75153,31.8625144 C229.731062,28.0223468 227.45171,23.6012072 233.871674,22.0722729 C240.291638,20.5433386 245.159016,17.5855583 248.906875,19.1328996 C252.654733,20.6802409 261.853917,32.2156994 261.853917,32.2156994 Z" id="Path" fill="#202F85" fill-rule="nonzero"></path>
                <path d="M264.784019,42.5627537 C264.3809,43.7005385 263.561992,44.5069967 262.588746,45.0523051 L262.588746,45.0638095 C260.133173,46.4869034 256.727391,46.3557532 256.727391,46.3557532 L256.192969,35.5416205 C262.066995,34.2301192 266.244463,38.5327636 264.784019,42.5627537 Z" id="Path" fill="#FC9E9E" fill-rule="nonzero"></path>
                <ellipse id="Oval" fill="#000A5D" fill-rule="nonzero" transform="translate(181.284241, 103.291089) rotate(-16.270000) translate(-181.284241, -103.291089) " cx="181.284241" cy="103.291089" rx="3.56555597" ry="4.98760859"></ellipse>
                <path d="M149.329478,41.8782421 C148.589446,41.8788532 147.879549,41.5854869 147.356267,41.0628096 C146.832986,40.5401323 146.53928,39.8310543 146.539892,39.0918772 L146.539892,14.9406975 C146.541162,13.4023565 147.789359,12.1556014 149.329478,12.1543326 L177.211926,12.1543326 C178.752758,12.1543325 180.002028,13.4016446 180.002663,14.9406975 L180.002663,39.0918772 C180.002664,39.8310665 179.708603,40.5399637 179.185205,41.0625416 C178.661807,41.5851194 177.951969,41.8785473 177.211926,41.8782421 L149.329478,41.8782421 Z" id="Path" fill="#2B42A0" fill-rule="nonzero"></path>
                <g id="noun_password_860328" transform="translate(157.000000, 18.000000)" fill="#F4F4F4" fill-rule="nonzero">
                    <path d="M10.5365854,6.70892857 L10.1268293,6.70892857 L10.1268293,4.43214286 C10.1268293,2.00357143 8.22439024,0 5.85365854,0 C3.48292683,0 1.5804878,2.00357143 1.5804878,4.43214286 L1.5804878,6.70892857 L1.17073171,6.70892857 C0.526829268,6.70892857 0,7.25535714 0,7.95357143 L0,15.725 C0,16.4232143 0.526829268,16.9696429 1.17073171,16.9696429 L10.5365854,16.9696429 C11.1804878,16.9696429 11.7073171,16.4232143 11.7073171,15.725 L11.7073171,7.98392857 C11.7365854,7.28571429 11.2097561,6.70892857 10.5365854,6.70892857 Z M3.04390244,4.43214286 C3.04390244,2.82321429 4.30243902,1.51785714 5.85365854,1.51785714 C7.40487805,1.51785714 8.66341463,2.82321429 8.66341463,4.43214286 L8.66341463,6.70892857 L3.04390244,6.70892857 L3.04390244,4.43214286 Z M6.73170732,12.6589286 L6.73170732,13.8125 C6.73170732,14.2982143 6.35121951,14.7232143 5.85365854,14.7232143 C5.38536585,14.7232143 4.97560976,14.3285714 4.97560976,13.8125 L4.97560976,12.6589286 C4.44878049,12.3553571 4.09756098,11.7785714 4.09756098,11.1107143 C4.09756098,10.1089286 4.88780488,9.31964286 5.82439024,9.31964286 C6.7902439,9.31964286 7.55121951,10.1392857 7.55121951,11.1107143 C7.5804878,11.7785714 7.22926829,12.3553571 6.73170732,12.6589286 Z" id="Shape"></path>
                </g>
                <path d="M259.100036,46.3200896 L257.985123,64.4418151 C257.9379,65.2471229 257.770894,73.2127671 257.237624,73.7454206 C256.681563,74.3049098 255.93755,74.6385704 255.149466,74.6818785 L248.159376,75.1086916 C250.651806,67.9759657 251.909538,55.9665261 252.169838,54.9230774 C252.395585,54.1200705 256.715873,49.058136 259.100036,46.3200896 Z" id="Path" fill="#FA6D6D" fill-rule="nonzero"></path>
                <path d="M309.097373,32.8800389 C308.429936,32.8804585 307.789766,32.5169229 307.317925,31.8695388 C306.846084,31.2221546 306.581296,30.3440505 306.581908,29.428721 L306.581908,3.51993189 C306.581602,2.60487593 306.846525,1.72717787 307.318333,1.08013552 C307.79014,0.433093181 308.430136,0.069774291 309.097373,0.0701935607 L341.709298,0.0701935607 C342.376734,0.0693548663 343.017026,0.432488586 343.489083,1.07957643 C343.96114,1.72666427 344.226221,2.60460206 344.225915,3.51993189 L344.225915,29.428721 C344.225915,31.3348312 343.099187,32.8800389 341.709298,32.8800389 L309.097373,32.8800389 Z" id="Path" fill="#2B42A0" fill-rule="nonzero"></path>
                <path d="M325.544531,6 L325.5,6 C322.972709,5.99997223 320.549573,7.00697277 318.766692,8.79821126 C316.983811,10.5894497 315.988153,13.0172678 316,15.5445313 C316.02375,20.7576562 320.396719,25 325.746406,25 L326.09375,25 C326.749588,25 327.28125,24.4683381 327.28125,23.8125 C327.28125,23.1566619 326.749588,22.625 326.09375,22.625 L325.746406,22.625 C321.7,22.625 318.392812,19.4425 318.375,15.5326563 C318.366313,13.637337 319.113144,11.8166646 320.450283,10.4733967 C321.787423,9.13012869 323.604661,8.37498009 325.5,8.375 L325.532656,8.375 C329.4425,8.3928125 332.625,11.7 332.625,15.7464062 L332.625,18.46875 C332.625,19.1245881 332.093338,19.65625 331.4375,19.65625 C330.781662,19.65625 330.25,19.1245881 330.25,18.46875 L330.25,15.5 C330.257349,13.3240113 328.789606,11.4194881 326.683548,10.8722207 C324.577491,10.3249533 322.368238,11.2739948 321.31531,13.1782857 C320.262382,15.0825767 320.633314,17.4582634 322.216633,18.9509399 C323.799951,20.4436163 326.193358,20.6740143 328.032344,19.5107813 C328.55024,21.1950725 330.22169,22.2476883 331.964425,21.9870577 C333.70716,21.7264271 334.997522,20.2308646 335,18.46875 L335,15.7464062 C335,10.3967188 330.757656,6.02375 325.544531,6 Z M325.5,17.875 C324.188324,17.875 323.125,16.8116763 323.125,15.5 C323.125,14.1883237 324.188324,13.125 325.5,13.125 C326.811676,13.125 327.875,14.1883237 327.875,15.5 C327.875,16.8116763 326.811676,17.875 325.5,17.875 Z" id="Shape" fill="#F4F4F4" fill-rule="nonzero" transform="translate(325.499948, 15.500000) scale(-1, 1) translate(-325.499948, -15.500000) "></path>
                <path d="M309.425459,71.0110148 L288.750042,71.0110148 C288.447359,71.0046363 288.160197,70.8759568 287.954169,70.6543785 C287.619004,70.3196006 287.402472,69.7788939 287.402472,69.1680105 L287.402472,48.2010584 C287.394454,47.7363588 287.532631,47.2808616 287.797528,46.8987608 C288.040552,46.5651333 288.373413,46.3592046 288.750042,46.3592046 L309.425459,46.3592046 C309.74045,46.3669616 310.03799,46.5053475 310.246671,46.7411505 C310.599702,47.1443444 310.787643,47.6656189 310.773029,48.2010584 L310.773029,69.1680105 C310.782841,69.6349289 310.645004,70.0930495 310.379124,70.4772108 C310.134949,70.8039357 309.803239,71.0110148 309.425459,71.0110148 Z" id="Path" fill="#2B42A0" fill-rule="nonzero"></path>
                <g id="file" transform="translate(293.000000, 50.000000)" fill="#FFFFFF" fill-rule="nonzero">
                    <path d="M11.1882803,1.69728601 L10.7602548,1.69728601 L10.7602548,12.4681785 C10.7602548,13.1837161 10.1915924,13.7661639 9.49300892,13.7661639 L5.15617834,13.7661639 L1.70751592,13.7661639 L1.70751592,14.1654332 C1.70751592,14.6226514 2.06980892,14.9937213 2.51617834,14.9937213 L6.85146497,14.9937213 L11.1867516,14.9937213 C11.633121,14.9937213 11.9953987,14.6226514 11.9953987,14.1654332 L11.9953987,2.52557411 C11.995414,2.06837161 11.6346497,1.69728601 11.1882803,1.69728601 Z" id="Path"></path>
                    <path d="M5.15617834,13.2964353 L9.49146497,13.2964353 C9.93783439,13.2964353 10.3001274,12.9253653 10.3001274,12.4681785 L10.3001274,1.69728601 L10.3001274,0.8282881 C10.3001274,0.371085595 9.93783439,0 9.49146497,0 L5.15617834,0 L3.71464968,0 L3.71464968,0.274008351 C3.71769172,0.302192067 3.71923567,0.331941545 3.71923567,0.361691023 L3.71923567,2.16701461 L3.71923567,2.63048017 C3.71923567,3.27400835 3.20866242,3.79697286 2.58038217,3.79697286 L2.12789809,3.79697286 L0.365350318,3.79697286 C0.342420382,3.79697286 0.317961783,3.7954071 0.295031847,3.79384134 L0.0137579618,3.79384134 L0.0137579618,12.4681785 C0.0137579618,12.9253653 0.376050955,13.2964353 0.822420382,13.2964353 L1.70904459,13.2964353 L5.15617834,13.2964353 L5.15617834,13.2964353 Z M5.31974522,10.4812109 L2.49324841,10.4812109 C2.28229299,10.4812109 2.1110828,10.3058299 2.1110828,10.0897704 C2.1110828,9.87367954 2.28229299,9.69832985 2.49324841,9.69832985 L5.32127389,9.69832985 C5.5322293,9.69832985 5.70343949,9.87367954 5.70343949,10.0897704 C5.70343949,10.3058299 5.53070064,10.4812109 5.31974522,10.4812109 Z M8.1477707,8.4833142 L2.49324841,8.4833142 C2.28229299,8.4833142 2.1110828,8.30793319 2.1110828,8.0918737 C2.1110828,7.87578288 2.28229299,7.70043319 2.49324841,7.70043319 L8.1477707,7.70043319 C8.35872611,7.70043319 8.52993631,7.87578288 8.52993631,8.0918737 C8.52993631,8.30793319 8.35872611,8.4833142 8.1477707,8.4833142 Z M2.49324841,5.57881002 L8.1477707,5.57881002 C8.35872611,5.57881002 8.52993631,5.75417537 8.52993631,5.97025052 C8.52993631,6.18632568 8.35872611,6.36169102 8.1477707,6.36169102 L2.49324841,6.36169102 C2.28229299,6.36169102 2.1110828,6.18632568 2.1110828,5.97025052 C2.1110828,5.75417537 2.28229299,5.57881002 2.49324841,5.57881002 Z" id="Shape"></path>
                    <path d="M0.365350318,3.32724426 L2.58038217,3.32724426 C2.58191083,3.32724426 2.58496815,3.32724426 2.58649682,3.32724426 C2.95643312,3.32411273 3.25605096,3.01722338 3.25910828,2.63830898 C3.25910828,2.63674322 3.25910828,2.63361169 3.25910828,2.63204593 L3.25910828,0.361691023 C3.25910828,0.151878914 3.09095541,0.012526096 2.91670318,0.012526096 C2.83262675,0.012526096 2.74855032,0.0438413361 2.67823185,0.115866388 L0.123821656,2.7322547 C-0.0901910828,2.95146138 0.0611464968,3.32724426 0.365350318,3.32724426 Z" id="Path"></path>
                </g>
                <path d="M222.836569,281.42969 C222.03033,281.334204 218.504763,280.410401 215.193425,279.496952 C211.907427,278.607662 208.809166,277.731027 208.809166,277.731027 L208.940468,260.401954 L223.476953,257.439572 C223.476953,257.439572 223.619772,261.005935 223.707307,265.392561 C223.844367,272.420597 223.832849,281.548186 222.836569,281.42969 Z" id="Path" fill="#FC9E9E" fill-rule="nonzero"></path>
                <path d="M222.836569,281.42969 C222.03033,281.334204 218.504763,280.410401 215.193425,279.496952 C214.61754,275.265635 212.191914,269.885028 213.331014,266.517691 L213.686911,266.517691 C213.686911,266.517691 219.169334,265.202739 223.707307,265.392561 C223.844367,272.420597 223.832849,281.548186 222.836569,281.42969 Z" id="Path" fill="#FA6D6D" fill-rule="nonzero"></path>
                <path d="M221.763119,276.711737 C221.169958,277.563063 217.536125,279.386509 215.127774,277.747133 C214.356089,277.209878 213.783659,276.762357 213.30913,276.410322 C212.444151,275.770678 211.940828,275.452006 211.269346,275.598112 C211.145447,275.625038 211.024361,275.663556 210.90769,275.713156 C209.640744,276.229703 211.853293,274.317672 210.423947,273.666524 C208.994601,273.015375 208.505099,271.952368 207.782939,274.440769 C207.06078,276.92917 203.155129,280.969514 202.612645,281.113319 C202.070162,281.257124 199.011062,282.644555 196.554337,285.30092 C194.145987,285.761096 190.463779,285.623043 189.558488,285.185876 C188.653197,284.748709 187.17087,284.242515 186.490174,284.963841 C185.96036,285.539061 186.698644,291.684709 196.655693,292.23692 C199.350834,292.39223 202.726671,292.133381 206.935237,291.238339 C209.602735,290.663119 211.927007,290.158076 213.952969,289.681794 C226.927654,286.659589 227.665939,285.5103 227.665939,285.5103 C227.665939,285.5103 228.290198,279.64996 225.241464,276.402269 C222.192729,273.154578 222.348218,275.856961 221.763119,276.711737 Z" id="Path" fill="#101D71" fill-rule="nonzero"></path>
                <path d="M207.782939,274.430415 C207.06078,276.918816 203.155129,280.959161 202.612645,281.102965 C202.070162,281.24677 199.011062,282.634201 196.554337,285.290566 C194.145987,285.750742 190.463779,285.612689 189.558488,285.175522 C188.653197,284.738355 187.17087,284.232161 186.490174,284.953487 C185.96036,285.528707 186.698644,291.674355 196.655693,292.226567 C201.377948,291.846921 204.538404,290.42958 205.572693,287.935427 C207.307259,283.769685 208.714721,277.994478 211.064331,275.799439 C211.1415,275.732713 211.203695,275.656784 211.269346,275.592359 C211.145447,275.619286 211.024361,275.657804 210.90769,275.707403 C209.640744,276.223951 211.853293,274.31192 210.423947,273.660771 C208.994601,273.009622 208.505099,271.942014 207.782939,274.430415 Z" id="Path" fill="#2B42A0" fill-rule="nonzero"></path>
                <path d="M221.763119,276.711737 C221.169958,277.563063 217.536125,279.386509 215.127774,277.747133 C214.356089,277.209878 213.783659,276.762357 213.30913,276.410322 C211.674769,277.352532 210.136005,278.62837 209.660324,280.582967 C208.814925,284.051542 214.510426,285.644901 215.897157,285.978529 C216.629682,286.154546 215.07249,287.879055 213.952969,289.677192 C226.927654,286.654987 227.665939,285.505698 227.665939,285.505698 C227.665939,285.505698 228.290198,279.645358 225.241464,276.397667 C222.192729,273.149976 222.348218,275.856961 221.763119,276.711737 Z" id="Path" fill="#000A5D" fill-rule="nonzero"></path>
                <path d="M227.644055,283.80995 C226.952993,285.453928 222.357433,286.916137 218.803071,287.244012 C217.801032,287.337198 216.567487,287.504012 215.298236,287.704188 C212.085951,288.191975 208.698596,288.854628 208.461332,288.99038 C208.272442,289.09622 206.686455,289.556396 203.96943,289.971705 C201.468366,290.356117 198.946438,290.590078 196.417277,290.672323 C183.177684,290.749402 189.696701,283.120837 186.729742,284.644019 C183.974709,286.055608 184.069154,288.785601 188.696965,292.089664 C189.060924,292.351964 189.452525,292.618866 189.876377,292.883468 C195.654805,296.546467 209.524415,293.280369 209.524415,293.280369 C209.524415,293.280369 210.748746,293.149219 213.077624,292.791432 C215.656437,292.401433 219.592034,291.745683 224.688614,290.69303 C234.362328,288.682062 227.644055,283.80995 227.644055,283.80995 Z" id="Path" fill="#D6D6D6" fill-rule="nonzero"></path>
                <path d="M227.644055,283.80995 C226.952993,285.453928 222.357433,286.916137 218.803071,287.244012 C217.801032,287.337198 216.567487,287.504012 215.298236,287.704188 C214.225939,289.258432 212.50865,291.484533 213.082232,292.791432 C215.661044,292.401433 219.596641,291.745683 224.693221,290.69303 C234.362328,288.682062 227.644055,283.80995 227.644055,283.80995 Z" id="Path" fill="#B7B7B7" fill-rule="nonzero"></path>
                <path d="M186.734349,284.635966 C183.979316,286.047555 184.073761,288.777548 188.701572,292.081611 C195.87249,292.771875 201.255861,292.096567 203.974037,289.963652 C201.472973,290.348064 198.951045,290.582025 196.421884,290.664269 C183.182292,290.7448 189.701308,283.116235 186.734349,284.635966 Z" id="Path" fill="#FFFFFF" fill-rule="nonzero"></path>
                <path d="M278.371446,185.473819 L266.446023,188.496024 L245.764847,193.723622 L228.581596,198.073434 L225.378524,263.169912 L206.092142,263.169912 C206.092142,263.169912 203.137852,238.788644 201.139532,216.577106 C200.81934,212.879593 200.510666,209.240752 200.249214,205.790584 C199.311674,193.322119 198.967295,183.235064 200.036137,181.219493 C201.22246,179.003747 208.294325,175.007119 216.736797,170.872439 C222.539412,168.015898 229.006599,165.099533 234.619172,162.646796 C242.546803,159.185123 248.81243,156.636899 249.239736,156.494244 L278.371446,185.473819 Z" id="Path" fill="#101D71" fill-rule="nonzero"></path>
                <path d="M266.446023,188.496024 L245.764847,193.723622 L228.581596,198.073434 L225.378524,263.169912 L218.875633,263.169912 C219.451518,253.829492 220.893533,227.112832 218.645279,219.017188 C216.212741,210.210573 206.436521,211.30119 200.251518,205.787132 C200.072993,203.428731 199.919808,201.153161 199.79081,199.007591 C199.233353,189.785667 199.173461,182.851967 200.040744,181.216042 C201.227067,179.000295 208.298932,175.003668 216.741404,170.868988 C222.544019,168.012446 229.011206,165.096082 234.623779,162.643344 C236.875383,162.616306 239.125517,162.770194 241.352418,163.10352 C241.720984,163.163343 242.076881,163.218564 242.444295,163.293343 C258.981404,166.284486 270.729454,177.970652 266.446023,188.496024 Z" id="Path" fill="#000A5D" fill-rule="nonzero"></path>
                <path d="M258.945699,184.547715 C254.044919,185.389837 225.517888,179.485781 216.736797,170.870138 C230.75153,164.006615 248.503755,156.741589 249.239736,156.489643 L278.371446,185.470368 L245.764847,193.723622 C252.858596,189.219651 262.387187,183.956389 258.945699,184.547715 Z" id="Path" fill="#010D51" fill-rule="nonzero"></path>
                <path d="M212.54781,263.169912 L206.0979,263.169912 C206.0979,263.169912 203.143611,238.788644 201.145291,216.577106 C203.909538,221.754084 207.516881,223.771956 208.810318,230.966805 C210.043863,237.875195 211.753089,254.39896 212.54781,263.169912 Z" id="Path" fill="#2B42A0" fill-rule="nonzero"></path>
                <path d="M225.506371,176.379594 C210.779844,173.036416 207.053869,189.310536 199.79081,199.006441 C199.233353,189.784517 199.173461,182.850817 200.040744,181.214892 C201.227067,178.999145 208.298932,175.002518 216.741404,170.867837 C222.544019,168.011296 229.011206,165.094931 234.623779,162.642194 C236.875383,162.615155 239.125517,162.769043 241.352418,163.10237 C241.720984,163.162193 242.076881,163.217414 242.444295,163.292192 C244.670666,170.16722 236.957265,178.978437 225.506371,176.379594 Z" id="Path" fill="#010D51" fill-rule="nonzero"></path>
                <path d="M224.200264,99.5992511 C224.508945,98.8191883 224.873862,98.062515 225.292142,97.3351858 C225.090582,97.7619989 224.734685,98.5442979 224.200264,99.5992511 Z" id="Path" fill="#F27203" fill-rule="nonzero"></path>
                <path d="M287.402472,127.158033 C281.385627,127.158033 241.181956,123.821758 229.583635,125.415117 C227.32847,125.723435 225.477576,125.616444 224.077025,125.21379 C222.29754,124.727154 221.205663,123.790696 220.825579,122.688575 C219.972118,120.187519 222.843479,116.809828 229.796713,115.944698 C238.874961,114.806913 254.111722,114.273109 263.082855,114.344436 C263.510162,114.344436 263.937469,114.355941 264.32907,114.355941 L264.353257,114.355941 C266.887151,114.3801 268.779508,114.470985 269.681344,114.61709 C271.912322,114.962222 271.626683,111.061081 270.939076,107.516577 C270.576191,105.6775 270.120663,103.857876 269.574229,102.064643 L287.397864,102.064643 C287.397864,102.064643 293.419316,127.158033 287.402472,127.158033 Z" id="Path" fill="#FC9E9E" fill-rule="nonzero"></path>
                <path d="M287.402472,127.158033 C281.385627,127.158033 241.181956,123.821758 229.583635,125.415117 C227.32847,125.723435 225.477576,125.616444 224.077025,125.21379 C224.409886,123.470874 226.853941,121.456454 231.398824,120.413005 C237.854493,118.931239 266.95165,122.617248 276.14853,122.713885 C282.307043,122.773708 283.233065,112.022849 282.18841,102.065794 L287.397864,102.065794 C287.397864,102.065794 293.419316,127.158033 287.402472,127.158033 Z" id="Path" fill="#FA6D6D" fill-rule="nonzero"></path>
                <path d="M263.087463,114.344436 C261.236569,114.889745 258.281128,115.50638 253.713209,116.241511 C244.457588,117.722127 234.560432,115.446557 229.919952,116.881156 C226.349466,117.994781 223.354865,122.058134 220.830186,122.688575 C219.976725,120.187519 222.848086,116.809828 229.80132,115.944698 C238.879568,114.806913 254.116329,114.273109 263.087463,114.344436 Z" id="Path" fill="#F0C2D2" fill-rule="nonzero"></path>
                <path d="M272.130006,115.126735 C270.196185,116.217352 267.560936,114.451427 264.357864,114.355941 C266.891758,114.3801 268.784115,114.470985 269.685951,114.61709 C271.916929,114.962222 271.63129,111.061081 270.943683,107.516577 C272.011374,110.08896 273.483335,114.370896 272.130006,115.126735 Z" id="Path" fill="#FA6D6D" fill-rule="nonzero"></path>
                <path d="M170.784643,245.290929 C170.122376,244.819249 167.480216,242.313592 165.018884,239.920677 C162.566767,237.559975 160.275897,235.301662 160.275897,235.301662 L168.748314,220.177982 L182.915081,224.576113 C182.915081,224.576113 181.318728,227.770884 179.276641,231.654768 C176.011374,237.8867 171.598944,245.878804 170.784643,245.290929 Z" id="Path" fill="#FC9E9E" fill-rule="nonzero"></path>
                <path d="M170.784643,245.290929 C170.122376,244.819249 167.480216,242.313592 165.018884,239.920677 C166.550738,235.933253 167.024115,230.052206 169.645543,227.650088 L169.957672,227.821503 C169.957672,227.821503 175.396329,229.306721 179.277792,231.654768 C176.011374,237.8867 171.598944,245.878804 170.784643,245.290929 Z" id="Path" fill="#FA6D6D" fill-rule="nonzero"></path>
                <path d="M172.117241,240.645454 C171.187762,241.10563 167.124319,240.954922 165.806695,238.354929 C165.389754,237.512807 165.104115,236.845552 164.858788,236.308296 C164.408446,235.331573 164.121656,234.812725 163.461692,234.616 C163.341257,234.578111 163.217444,234.551913 163.091974,234.53777 C161.731734,234.38016 164.589274,233.770427 163.655189,232.511846 C162.721104,231.253265 162.799424,230.086719 160.966959,231.919369 C159.134493,233.75202 153.763791,235.414405 153.215549,235.283255 C152.667307,235.152105 149.320264,234.892105 145.88799,236.037943 C143.553353,235.285556 140.395201,233.391932 139.814709,232.565916 C139.234217,231.739901 138.176893,230.590611 137.232442,230.895478 C136.490702,231.145123 134.173341,236.884667 142.633089,242.160583 C144.920504,243.59288 148.002639,244.990665 152.122519,246.231989 C154.735885,247.015438 157.018692,247.687295 159.022771,248.244108 C171.85003,251.839232 173.052478,251.186933 173.052478,251.186933 C173.052478,251.186933 176.424859,246.355086 175.320312,242.038636 C174.215765,237.722187 173.042112,240.177225 172.117241,240.645454 Z" id="Path" fill="#101D71" fill-rule="nonzero"></path>
                <path d="M160.966959,231.919369 C159.134493,233.75202 153.763791,235.414405 153.215549,235.283255 C152.667307,235.152105 149.320264,234.892105 145.88799,236.037943 C143.553353,235.285556 140.395201,233.391932 139.814709,232.565916 C139.234217,231.739901 138.176893,230.590611 137.232442,230.895478 C136.490702,231.145123 134.173341,236.884667 142.633089,242.160583 C146.955681,244.100224 150.407534,244.378631 152.517576,242.690936 C156.045447,239.874659 160.065123,235.490334 163.182963,234.697681 C163.283167,234.675823 163.373005,234.640159 163.461692,234.616 C163.341257,234.578111 163.217444,234.551913 163.091974,234.53777 C161.731734,234.38016 164.589274,233.770427 163.655189,232.511846 C162.721104,231.253265 162.799424,230.086719 160.966959,231.919369 Z" id="Path" fill="#2B42A0" fill-rule="nonzero"></path>
                <path d="M172.117241,240.645454 C171.187762,241.10563 167.124319,240.954922 165.806695,238.354929 C165.389754,237.512807 165.104115,236.845552 164.858788,236.308296 C162.971038,236.347411 161.007271,236.725906 159.648182,238.209973 C157.229466,240.842179 161.454157,244.982612 162.511482,245.938627 C163.068938,246.445971 160.871362,247.20411 159.022771,248.239506 C171.85003,251.83463 173.052478,251.182331 173.052478,251.182331 C173.052478,251.182331 176.424859,246.350484 175.320312,242.034035 C174.215765,237.717585 173.042112,240.177225 172.117241,240.645454 Z" id="Path" fill="#000A5D" fill-rule="nonzero"></path>
                <path d="M173.84835,249.694812 C172.447798,250.802686 167.717481,249.873131 164.445303,248.450037 C163.523887,248.050834 162.3606,247.602163 161.153545,247.163845 C158.103659,246.045618 154.818812,244.994116 154.541236,245.001019 C154.324703,245.001019 152.713377,244.642081 150.135717,243.702172 C147.758939,242.835104 145.436271,241.826665 143.18018,240.682268 C131.540396,234.379009 140.933077,230.829903 137.598704,230.737868 C134.503899,230.648133 133.269202,233.085915 135.730534,238.208823 C135.924031,238.613778 136.13826,239.035989 136.381284,239.474306 C139.679952,245.464646 153.409046,249.277203 153.409046,249.277203 C153.409046,249.277203 154.544691,249.750033 156.758392,250.557642 C159.205903,251.456135 162.971038,252.77569 167.945531,254.305775 C177.385435,257.196829 173.84835,249.694812 173.84835,249.694812 Z" id="Path" fill="#D6D6D6" fill-rule="nonzero"></path>
                <path d="M173.84835,249.694812 C172.447798,250.802686 167.717481,249.873131 164.445303,248.450037 C163.523887,248.050834 162.3606,247.602163 161.153545,247.163845 C159.463899,248.008268 156.886239,249.133398 156.758392,250.555341 C159.205903,251.453835 162.971038,252.773389 167.945531,254.303474 C177.385435,257.196829 173.84835,249.694812 173.84835,249.694812 Z" id="Path" fill="#B7B7B7" fill-rule="nonzero"></path>
                <path d="M137.598704,230.737868 C134.503899,230.648133 133.269202,233.085915 135.730534,238.208823 C141.684031,242.261822 146.72763,244.263587 150.135717,243.702172 C147.758939,242.835104 145.436271,241.826665 143.18018,240.682268 C131.540396,234.379009 140.933077,230.829903 137.598704,230.737868 Z" id="Path" fill="#FFFFFF" fill-rule="nonzero"></path>
                <path d="M278.371446,185.473819 C269.02138,187.98638 214.600264,167.635102 214.600264,167.635102 L182.774565,230.335214 L172.26006,225.503367 L168.296821,223.677619 L161.711002,220.64391 C161.711002,220.64391 191.341428,142.817818 198.853269,139.261809 C199.980852,138.728005 202.686359,138.645173 206.472226,138.870659 C210.174013,139.10765 214.920456,139.652958 220.225507,140.388089 L220.237025,140.388089 C240.660204,143.231976 269.483239,148.980723 279.926335,151.114788 C282.335837,151.600274 285.207199,153.378854 285.397241,155.831591 C286.097516,164.458738 291.923167,181.823474 278.371446,185.473819 Z" id="Path" fill="#101D71" fill-rule="nonzero"></path>
                <path d="M206.472226,138.868358 C205.961992,148.137451 195.270114,165.122542 189.586131,175.019774 C184.258044,184.253203 173.909394,213.221273 168.296821,223.675319 L161.711002,220.641609 C161.711002,220.641609 191.341428,142.815517 198.853269,139.259508 C199.980852,138.725704 202.688662,138.645173 206.472226,138.868358 Z" id="Path" fill="#2B42A0" fill-rule="nonzero"></path>
                <path d="M278.371446,185.473819 C269.02138,187.98638 214.600264,167.635102 214.600264,167.635102 L182.774565,230.335214 L172.26006,225.503367 C184.95832,212.572425 210.411278,164.248208 211.823347,156.531058 C213.320648,148.495237 219.395081,146.716658 233.937325,149.384527 C248.479568,152.052397 227.611806,142.497995 220.242783,140.388089 C240.665963,143.231976 269.488998,148.980723 279.932094,151.114788 C282.341596,151.600274 285.212957,153.378854 285.402999,155.831591 C286.097516,164.458738 291.923167,181.823474 278.371446,185.473819 Z" id="Path" fill="#000A5D" fill-rule="nonzero"></path>
                <polygon id="Path" fill="#101D71" fill-rule="nonzero" points="187.640792 226.481241 184.172813 234.453788 166.782244 227.905485 157.31009 224.336821 157.314697 224.326467 159.795609 216.039851 165.340228 218.118695 173.683647 221.252493"></polygon>
                <path d="M165.340228,218.118695 C163.457085,220.840635 159.845135,223.224346 157.314697,224.331069 L159.795609,216.047904 L165.340228,218.118695 Z" id="Path" fill="#2B42A0" fill-rule="nonzero"></path>
                <path d="M187.640792,226.481241 L184.173965,234.453788 L166.782244,227.905485 C168.812813,226.45248 171.794745,223.73054 173.683647,221.252493 L187.640792,226.481241 Z" id="Path" fill="#000A5D" fill-rule="nonzero"></path>
                <polygon id="Path" fill="#101D71" fill-rule="nonzero" points="231.403431 257.812315 231.118944 266.500435 212.536293 266.808753 202.413389 266.974416 202.413389 266.962912 201.665891 258.346119 207.587139 258.239128 216.499532 258.084969"></polygon>
                <path d="M207.587139,258.239128 C206.83964,261.460359 204.362184,265.007164 202.413389,266.962912 L201.665891,258.346119 L207.587139,258.239128 Z" id="Path" fill="#2B42A0" fill-rule="nonzero"></path>
                <path d="M231.403431,257.812315 L231.118944,266.500435 L212.536293,266.804151 C213.88847,264.705749 215.656437,261.079563 216.499532,258.080367 L231.403431,257.812315 Z" id="Path" fill="#000A5D" fill-rule="nonzero"></path>
                <path d="M243.78841,23.5793489 C243.76212,23.6161 243.738266,23.6545301 243.717001,23.6943929 C243.539628,23.9543922 242.875057,24.6066915 240.572669,25.8031487 C237.511266,27.4034103 233.662052,24.8321777 232.206215,27.0249157 C231.613053,27.9130551 231.364271,29.0865035 231.209934,29.9010148 C231.340084,25.788193 231.900996,24.4490813 234.651422,23.8324456 C237.7612,23.1329783 241.081752,24.5997889 242.862388,23.2951903 C244.643023,21.9905917 244.667211,22.3817412 243.78841,23.5793489 Z" id="Path" fill="#2B42A0" fill-rule="nonzero"></path>
                <path d="M240.236353,58.6597054 C240.236353,58.6597054 233.095381,57.9004152 232.664619,50.8252113 C232.463059,47.5890246 232.451542,42.4085948 232.487247,37.7389602 C232.732573,45.0408007 234.050198,54.4329901 240.236353,58.6597054 Z" id="Path" fill="#F0C2D2" fill-rule="nonzero"></path>
                <path d="M264.784019,42.5627537 C264.3809,43.7005385 263.561992,44.5069967 262.588746,45.0523051 C263.221101,44.2695078 263.605638,43.3162842 263.693293,42.3142587 C263.942076,38.8537362 260.536293,36.5770161 256.192969,35.5462222 C262.066995,34.2301192 266.244463,38.5327636 264.784019,42.5627537 Z" id="Path" fill="#F0C2D2" fill-rule="nonzero"></path>
                <path d="M244.314769,71.697638 C243.650198,73.2024131 242.842807,73.937544 242.202424,74.3643572 C241.400716,73.6825246 240.915755,72.7008214 240.861764,71.65047 C240.766167,69.8845451 240.541572,65.0239376 240.387235,61.764742 C241.905267,67.0981803 245.666947,68.6397694 244.314769,71.697638 Z" id="Path" fill="#F0C2D2" fill-rule="nonzero"></path>
                <path d="M59.2164686,269.845886 C58.1896443,272.120946 57.2834825,274.448441 56.5017476,276.818701 C54.0369605,276.27646 51.579852,275.712745 49.1304218,275.127555 C46.8268825,274.574193 44.5233433,274.020832 42.219804,273.446762 C37.2288022,272.199686 32.2673624,270.90199 27.3354848,269.553675 C27.3354848,269.553675 15.1451549,258.15857 22.7042191,252.29708 C32.4504938,244.744443 7.73927607,222.615737 23.8801759,213.864342 C30.3738532,210.345147 22.8723774,183.821761 35.8470625,186.483878 C38.9867866,187.126974 40.8526534,189.042456 41.9053708,191.450326 C43.1216396,194.18262 43.2736732,197.675355 42.9914896,201.253222 C42.3177044,209.799839 39.2021675,218.800879 42.3073385,218.969993 C42.3972073,218.979791 42.487627,218.983634 42.5780043,218.981498 C48.8424794,218.417782 51.5618076,214.025404 52.1653349,222.668657 C52.7838352,231.072618 49.0060307,247.599835 54.0864866,250.509296 C54.2150953,250.584662 54.3495095,250.649676 54.4884542,250.703721 C60.1609197,252.971237 67.2834632,251.963452 59.2164686,269.845886 Z" id="Path" fill="#FEAD00" fill-rule="nonzero"></path>
                <path d="M70.3229833,281.168274 C65.5131933,280.192701 60.9770394,278.412507 56.2325163,277.334929 C53.7677292,276.792688 51.584459,275.70776 49.1350289,275.121802 C46.8314896,274.569591 44.5279503,274.01623 42.224411,273.44101 C42.1587602,272.899153 42.0942611,272.357296 42.0067266,271.793581 C39.7918735,257.119723 44.7709737,259.31131 49.3688382,258.823524 C49.5393103,258.806587 49.7069109,258.767925 49.8675544,258.70848 C51.9407398,258.046977 53.1466426,254.566897 54.0910937,250.509296 C55.0355448,246.451696 55.7300619,241.833831 56.8058148,238.87375 C59.0206678,232.702791 60.0952689,236.457826 64.5468585,238.146672 C64.6093064,238.170494 64.6748611,238.185218 64.7415076,238.190389 C67.0450469,238.700033 66.6200439,231.509785 67.8800799,225.144403 C68.4121975,222.486887 69.2368645,219.960522 70.6811837,218.225659 C71.9400679,216.68522 73.6757848,215.752214 76.109474,215.839647 C88.139708,216.251504 78.1941771,237.149241 78.3243271,240.098968 C78.454477,243.048695 81.2037512,239.079678 85.8488382,242.375688 C90.4939251,245.671698 72.8200199,260.465201 70.3229833,263.468999 C67.8259467,266.472797 71.039384,263.52307 80.3871465,266.516514 C85.3213277,268.094917 78.7907938,275.344749 70.3229833,281.168274 Z" id="Path" fill="#F27203" fill-rule="nonzero"></path>
                <path d="M0.84112726,276.338177 C12.5851613,278.058924 23.8686326,280.170253 34.6915412,282.672165 C59.4205963,288.388736 73.7915054,293.929812 93.1083014,293.579484 C122.076586,293.054116 146.102117,293.054116 165.184894,293.579484 C184.775442,294.930448 203.607039,296.015177 221.679685,296.833671 C248.788654,298.061413 277.56921,296.833671 307.800487,288.388736 C327.954672,282.758779 359.354509,273.855592 402,261.679175" id="Path-21" stroke="#979797" transform="translate(201.420564, 279.458702) scale(-1, 1) translate(-201.420564, -279.458702) "></path>
            </g>
        </g>
    </g>
</svg>